ply
format ascii 1.0
comment Created by Blender 2.82 (sub 7) - www.blender.org, source file: ''
element vertex 162
property float x
property float y
property float z
element face 320
property list uchar uint vertex_indices
end_header
-0.01223989948630333 -0.0035863604862242937 -0.26066142320632935
0.11704126745462418 -0.15653081238269806 -0.25557276606559753
-0.023419944569468498 -0.18225282430648804 -0.25633326172828674
0.6320485472679138 -0.48071345686912537 -0.15842804312705994
0.48562830686569214 -0.29855701327323914 -0.21409717202186584
0.7240906953811646 -0.28348568081855774 -0.1638512760400772
-0.1543910801410675 -0.010569177567958832 -0.25750431418418884
-0.021070696413517 0.16732323169708252 -0.2569018006324768
0.13023622334003448 0.09333422780036926 -0.25725868344306946
0.816321074962616 -0.38574162125587463 -0.1119980439543724
-0.18395119905471802 -0.7263307571411133 -0.17259535193443298
0.00693217758089304 -0.737697422504425 -0.17598894238471985
-0.11331899464130402 -0.859152615070343 -0.13007858395576477
-0.7413720488548279 0.036766622215509415 -0.1746368706226349
-0.6597550511360168 -0.21275594830513 -0.18792057037353516
-0.8612129092216492 -0.17790630459785461 -0.12399204075336456
-0.2737587094306946 0.672773540019989 -0.17907902598381042
-0.44408944249153137 0.5487427711486816 -0.18453487753868103
-0.44192633032798767 0.7714330554008484 -0.1192685067653656
0.6107368469238281 0.4799315333366394 -0.16416269540786743
0.42005667090415955 0.5810301899909973 -0.1817525178194046
0.6362263560295105 0.6076920032501221 -0.1239096075296402
0.5922186374664307 -0.7151491641998291 -0.09671299159526825
-0.3677741587162018 -0.8305209279060364 -0.10897663980722427
-0.856180727481842 0.1536673605442047 -0.12865228950977325
-0.21265511214733124 0.8095095753669739 -0.1426696479320526
0.7603501081466675 0.44591212272644043 -0.12311424314975739
0.2389044165611267 -0.6826199293136597 0.17996855080127716
0.45132893323898315 -0.5507234930992126 0.18300069868564606
0.1464633196592331 -0.48429736495018005 0.22487816214561462
-0.5689211487770081 -0.420533150434494 0.18412762880325317
-0.4211389124393463 -0.5061403512954712 0.19614766538143158
-0.44010210037231445 -0.33354902267456055 0.21718114614486694
-0.6117168664932251 0.38506075739860535 0.1802080273628235
-0.6416813135147095 0.24884837865829468 0.18899723887443542
-0.4230905771255493 0.3479553759098053 0.21807576715946198
0.20676924288272858 0.7136949300765991 0.17438209056854248
-0.08063695579767227 0.6822255253791809 0.18939410150051117
0.12348451465368271 0.5486370921134949 0.21554017066955566
0.7243345975875854 -0.07044883817434311 0.17872078716754913
0.6862145662307739 0.2354993224143982 0.17941920459270477
0.5825435519218445 0.013409036211669445 0.2117905616760254
0.1674530804157257 0.05251604691147804 0.2565515637397766
0.0314447358250618 0.24640978872776031 0.25238940119743347
-0.00030676356982439756 0.0678853988647461 0.2601274251937866
0.403495728969574 0.024549493566155434 0.23838777840137482
0.28238189220428467 0.24807704985141754 0.2415403425693512
0.46572256088256836 0.24564261734485626 0.22156336903572083
0.12689325213432312 0.38525334000587463 0.23812773823738098
0.3250129520893097 0.4568823277950287 0.21575118601322174
0.5689468383789062 0.46460118889808655 0.1768483966588974
0.35569873452186584 0.6034204959869385 0.185978502035141
-0.1256353259086609 0.11492936313152313 0.256843239068985
-0.12962347269058228 0.31746554374694824 0.24487709999084473
-0.07309415936470032 0.5306984186172485 0.2199983149766922
-0.25859710574150085 0.2483220398426056 0.24327456951141357
-0.21349561214447021 0.46023133397102356 0.2245691865682602
-0.25297796726226807 0.6857541799545288 0.1778608113527298
-0.4737117886543274 0.48540765047073364 0.19149337708950043
-0.16118855774402618 -0.10835930705070496 0.2556867301464081
-0.29746362566947937 -0.02359599433839321 0.2488073706626892
-0.49131709337234497 0.14127317070960999 0.22397491335868835
-0.2912924289703369 -0.1866360902786255 0.24444647133350372
-0.514220654964447 -0.04250967875123024 0.2232721447944641
-0.6733683347702026 0.07184619456529617 0.19176259636878967
-0.6777782440185547 -0.17467358708381653 0.18610142171382904
0.11274801194667816 -0.16594992578029633 0.2553211450576782
-0.07124556601047516 -0.304803729057312 0.24751299619674683
-0.22932593524456024 -0.38563647866249084 0.23297914862632751
0.16816100478172302 -0.32214298844337463 0.2427864968776703
-0.013691085390746593 -0.46079590916633606 0.23125596344470978
-0.15600578486919403 -0.6508921980857849 0.1935809850692749
0.05495021119713783 -0.6889989972114563 0.18836285173892975
0.26368841528892517 -0.19527992606163025 0.24609051644802094
0.3798230290412903 -0.4041441082954407 0.21688222885131836
0.46605798602104187 -0.2390514314174652 0.22199103236198425
0.5504140853881836 -0.3728712499141693 0.19465775787830353
0.6926900148391724 -0.2543262243270874 0.17591874301433563
0.8580478429794312 0.08284160494804382 0.1320609599351883
0.9660530090332031 0.2570496201515198 0.0061071040108799934
0.775529146194458 0.37603768706321716 0.13220565021038055
0.8114310503005981 0.568817675113678 0.03526673838496208
0.6033385992050171 0.5333558917045593 0.15449334681034088
0.5444748997688293 0.8376587629318237 0.010790686123073101
0.3527493476867676 0.8586779236793518 0.09691069275140762
0.13340705633163452 0.9304102063179016 0.08893939852714539
0.0009186723036691546 0.9708162546157837 -0.06251956522464752
-0.1512443870306015 0.8088194131851196 0.1481596678495407
-0.3561745285987854 0.9345468282699585 -0.0003430390788707882
-0.3802337050437927 0.7799376249313354 0.12960247695446014
-0.5593778491020203 0.8174824118614197 -0.03585311025381088
-0.6743156313896179 0.6155420541763306 0.1063176691532135
-0.8374499678611755 0.35517460107803345 0.10835068672895432
-0.9454176425933838 0.32297906279563904 -0.012014506384730339
-0.8692436218261719 0.16142219305038452 0.12176312506198883
-0.9842244386672974 -0.04807492718100548 0.04418826103210449
-0.8766326904296875 -0.14142510294914246 0.11989187449216843
-0.9337045550346375 -0.30058950185775757 0.050691187381744385
-0.779156506061554 -0.44871053099632263 0.11408262699842453
-0.6272473335266113 -0.6368493437767029 0.11677499115467072
-0.5632908344268799 -0.8163188695907593 0.033186595886945724
-0.38519594073295593 -0.752090334892273 0.1393139511346817
-0.36661040782928467 -0.884562075138092 0.07515961676836014
-0.07207480072975159 -0.8212779760360718 0.14753851294517517
0.1048276349902153 -0.9792242646217346 -0.045169007033109665
0.13983213901519775 -0.8850721120834351 0.11574535816907883
0.339306116104126 -0.7998765707015991 0.1289888322353363
0.5022193193435669 -0.8646052479743958 -0.003916451241821051
0.57878577709198 -0.6001430153846741 0.14389534294605255
0.7915599346160889 -0.5934579372406006 0.037915922701358795
0.7780595421791077 -0.38627108931541443 0.12909691035747528
0.9337043762207031 -0.35440322756767273 -0.013193393126130104
0.8505237102508545 -0.17871002852916718 0.12893539667129517
0.2966550886631012 0.9165483117103577 -0.0699099749326706
0.2830057442188263 0.7910982966423035 -0.14135843515396118
0.14939993619918823 0.866640567779541 -0.1240890771150589
0.18723227083683014 0.6638736724853516 -0.18866552412509918
-0.06384409219026566 0.6704946160316467 -0.19262313842773438
-0.8621582984924316 0.4946383535861969 -0.028602905571460724
-0.6280518770217896 0.6041711568832397 -0.12786661088466644
-0.7803201675415039 0.2793760597705841 -0.1458563655614853
-0.5626006722450256 0.3826417922973633 -0.1909901648759842
-0.6603909730911255 0.1694941371679306 -0.19068779051303864
-0.7422558665275574 -0.6252680420875549 -0.06285155564546585
-0.7484952807426453 -0.4441286027431488 -0.12843945622444153
-0.622207760810852 -0.5861237049102783 -0.13525310158729553
-0.5456851124763489 -0.38915830850601196 -0.1934587061405182
-0.4118749797344208 -0.6285811066627502 -0.1719096601009369
0.31522828340530396 -0.935576856136322 -0.04151533171534538
0.20484274625778198 -0.8050016164779663 -0.14507393538951874
0.3813619911670685 -0.7595588564872742 -0.13735531270503998
0.2600097060203552 -0.5926197171211243 -0.19871914386749268
0.4442347586154938 -0.6043122410774231 -0.1723920851945877
0.9990318417549133 0.002231069141998887 -0.011428027413785458
0.883215069770813 -0.10418248921632767 -0.11922958493232727
0.8474224805831909 0.14420442283153534 -0.1331835836172104
0.6918833255767822 -0.05963514372706413 -0.18751341104507446
0.6792140007019043 0.21979299187660217 -0.18253958225250244
0.40196892619132996 0.3429916799068451 -0.2212820053100586
0.2701423764228821 0.25915858149528503 -0.24164500832557678
0.2480919361114502 0.4300011396408081 -0.22620528936386108
0.12608817219734192 0.3283229470252991 -0.2440127581357956
0.08464457094669342 0.4793574810028076 -0.22774367034435272
-0.1428472399711609 0.381856769323349 -0.2379610240459442
-0.19626080989837646 0.5256519913673401 -0.2157507687807083
-0.39665600657463074 0.3425045907497406 -0.22199752926826477
-0.3140847086906433 0.17380253970623016 -0.24323917925357819
-0.463517427444458 0.17286448180675507 -0.22649149596691132
-0.3976396918296814 -0.03396681696176529 -0.23895381391048431
-0.544791042804718 -0.020356351509690285 -0.21848058700561523
-0.4598396122455597 -0.25356873869895935 -0.2217695713043213
-0.24648062884807587 -0.21340656280517578 -0.24639087915420532
-0.2931560277938843 -0.41943779587745667 -0.22390194237232208
-0.07966776192188263 -0.3808521628379822 -0.24001957476139069
-0.21376529335975647 -0.5430302023887634 -0.21160149574279785
0.5507743954658508 0.05264560878276825 -0.2171335369348526
0.5484743714332581 -0.12073250114917755 -0.21564774215221405
0.32997167110443115 -0.03272121772170067 -0.2459099292755127
0.3016049861907959 -0.21507707238197327 -0.2421463280916214
-0.0010838598245754838 -0.5001417398452759 -0.22563457489013672
0.15682965517044067 -0.3253510594367981 -0.24299561977386475
0.3402693569660187 -0.4673493504524231 -0.2126368135213852
3 0 1 2
3 3 4 5
3 0 2 6
3 0 6 7
3 0 7 8
3 3 5 9
3 10 11 12
3 13 14 15
3 16 17 18
3 19 20 21
3 3 9 22
3 10 12 23
3 13 15 24
3 16 18 25
3 19 21 26
3 27 28 29
3 30 31 32
3 33 34 35
3 36 37 38
3 39 40 41
3 42 43 44
3 45 46 42
3 41 47 45
3 42 46 43
3 46 48 43
3 45 47 46
3 47 49 46
3 46 49 48
3 49 38 48
3 41 40 47
3 40 50 47
3 47 50 49
3 50 51 49
3 49 51 38
3 51 36 38
3 43 52 44
3 48 53 43
3 38 54 48
3 43 53 52
3 53 55 52
3 48 54 53
3 54 56 53
3 53 56 55
3 56 35 55
3 38 37 54
3 37 57 54
3 54 57 56
3 57 58 56
3 56 58 35
3 58 33 35
3 52 59 44
3 55 60 52
3 35 61 55
3 52 60 59
3 60 62 59
3 55 61 60
3 61 63 60
3 60 63 62
3 63 32 62
3 35 34 61
3 34 64 61
3 61 64 63
3 64 65 63
3 63 65 32
3 65 30 32
3 59 66 44
3 62 67 59
3 32 68 62
3 59 67 66
3 67 69 66
3 62 68 67
3 68 70 67
3 67 70 69
3 70 29 69
3 32 31 68
3 31 71 68
3 68 71 70
3 71 72 70
3 70 72 29
3 72 27 29
3 66 42 44
3 69 73 66
3 29 74 69
3 66 73 42
3 73 45 42
3 69 74 73
3 74 75 73
3 73 75 45
3 75 41 45
3 29 28 74
3 28 76 74
3 74 76 75
3 76 77 75
3 75 77 41
3 77 39 41
3 78 40 39
3 79 80 78
3 26 81 79
3 78 80 40
3 80 50 40
3 79 81 80
3 81 82 80
3 80 82 50
3 82 51 50
3 26 21 81
3 21 83 81
3 81 83 82
3 83 84 82
3 82 84 51
3 84 36 51
3 85 37 36
3 86 87 85
3 25 88 86
3 85 87 37
3 87 57 37
3 86 88 87
3 88 89 87
3 87 89 57
3 89 58 57
3 25 18 88
3 18 90 88
3 88 90 89
3 90 91 89
3 89 91 58
3 91 33 58
3 92 34 33
3 93 94 92
3 24 95 93
3 92 94 34
3 94 64 34
3 93 95 94
3 95 96 94
3 94 96 64
3 96 65 64
3 24 15 95
3 15 97 95
3 95 97 96
3 97 98 96
3 96 98 65
3 98 30 65
3 99 31 30
3 100 101 99
3 23 102 100
3 99 101 31
3 101 71 31
3 100 102 101
3 102 103 101
3 101 103 71
3 103 72 71
3 23 12 102
3 12 104 102
3 102 104 103
3 104 105 103
3 103 105 72
3 105 27 72
3 106 28 27
3 107 108 106
3 22 109 107
3 106 108 28
3 108 76 28
3 107 109 108
3 109 110 108
3 108 110 76
3 110 77 76
3 22 9 109
3 9 111 109
3 109 111 110
3 111 112 110
3 110 112 77
3 112 39 77
3 84 85 36
3 83 113 84
3 21 114 83
3 84 113 85
3 113 86 85
3 83 114 113
3 114 115 113
3 113 115 86
3 115 25 86
3 21 20 114
3 20 116 114
3 114 116 115
3 116 117 115
3 115 117 25
3 117 16 25
3 91 92 33
3 90 118 91
3 18 119 90
3 91 118 92
3 118 93 92
3 90 119 118
3 119 120 118
3 118 120 93
3 120 24 93
3 18 17 119
3 17 121 119
3 119 121 120
3 121 122 120
3 120 122 24
3 122 13 24
3 98 99 30
3 97 123 98
3 15 124 97
3 98 123 99
3 123 100 99
3 97 124 123
3 124 125 123
3 123 125 100
3 125 23 100
3 15 14 124
3 14 126 124
3 124 126 125
3 126 127 125
3 125 127 23
3 127 10 23
3 105 106 27
3 104 128 105
3 12 129 104
3 105 128 106
3 128 107 106
3 104 129 128
3 129 130 128
3 128 130 107
3 130 22 107
3 12 11 129
3 11 131 129
3 129 131 130
3 131 132 130
3 130 132 22
3 132 3 22
3 112 78 39
3 111 133 112
3 9 134 111
3 112 133 78
3 133 79 78
3 111 134 133
3 134 135 133
3 133 135 79
3 135 26 79
3 9 5 134
3 5 136 134
3 134 136 135
3 136 137 135
3 135 137 26
3 137 19 26
3 138 20 19
3 139 140 138
3 8 141 139
3 138 140 20
3 140 116 20
3 139 141 140
3 141 142 140
3 140 142 116
3 142 117 116
3 8 7 141
3 7 143 141
3 141 143 142
3 143 144 142
3 142 144 117
3 144 16 117
3 144 17 16
3 143 145 144
3 7 146 143
3 144 145 17
3 145 121 17
3 143 146 145
3 146 147 145
3 145 147 121
3 147 122 121
3 7 6 146
3 6 148 146
3 146 148 147
3 148 149 147
3 147 149 122
3 149 13 122
3 149 14 13
3 148 150 149
3 6 151 148
3 149 150 14
3 150 126 14
3 148 151 150
3 151 152 150
3 150 152 126
3 152 127 126
3 6 2 151
3 2 153 151
3 151 153 152
3 153 154 152
3 152 154 127
3 154 10 127
3 137 138 19
3 136 155 137
3 5 156 136
3 137 155 138
3 155 139 138
3 136 156 155
3 156 157 155
3 155 157 139
3 157 8 139
3 5 4 156
3 4 158 156
3 156 158 157
3 158 1 157
3 157 1 8
3 1 0 8
3 154 11 10
3 153 159 154
3 2 160 153
3 154 159 11
3 159 131 11
3 153 160 159
3 160 161 159
3 159 161 131
3 161 132 131
3 2 1 160
3 1 158 160
3 160 158 161
3 158 4 161
3 161 4 132
3 4 3 132
