ply
format ascii 1.0
comment Created by Blender 2.82 (sub 7) - www.blender.org, source file: ''
element vertex 92
property float x
property float y
property float z
element face 180
property list uchar uint vertex_indices
end_header
0.05508707836270332 -0.04647272452712059 -0.25993794202804565
0.289989709854126 -0.15660610795021057 -0.24606075882911682
0.021976014599204063 -0.3076035678386688 -0.24789941310882568
0.6625214219093323 -0.528846025466919 -0.13826332986354828
0.47704777121543884 -0.29901379346847534 -0.21541829407215118
0.7408232092857361 -0.15680675208568573 -0.1702037900686264
-0.16899780929088593 -0.044862378388643265 -0.25663745403289795
-0.06866475939750671 0.2124433070421219 -0.25403931736946106
0.21247103810310364 0.10412776470184326 -0.2532430589199066
0.8699237108230591 -0.4573347568511963 -0.04805392026901245
-0.1421942114830017 -0.7238525748252869 -0.175941601395607
0.1015714555978775 -0.763213038444519 -0.16635486483573914
-0.1384478360414505 -0.9846159219741821 -0.027654612436890602
-0.6733051538467407 -0.061372723430395126 -0.1920415610074997
-0.5401385426521301 -0.3028598427772522 -0.204616516828537
-0.8674145340919495 -0.21020963788032532 -0.11753543466329575
-0.21497264504432678 0.6479592323303223 -0.19040308892726898
-0.4217544198036194 0.46548065543174744 -0.20278678834438324
-0.42488083243370056 0.7479619979858398 -0.13288788497447968
0.6320194602012634 0.4690822660923004 -0.1607605367898941
0.3730904161930084 0.5111808180809021 -0.20179077982902527
0.7002941966056824 0.7063594460487366 -0.026801517233252525
0.6047824621200562 -0.7722543478012085 0.05075329169631004
-0.44938230514526367 -0.7667173147201538 -0.11948061734437943
-0.8353731036186218 0.11041515320539474 -0.14032036066055298
-0.09957242757081985 0.8880478143692017 -0.11694037914276123
0.929520308971405 0.2780550420284271 -0.06313681602478027
0.1701531857252121 -0.6536731719970703 0.19219307601451874
0.34619373083114624 -0.49229001998901367 0.20809495449066162
0.08457154035568237 -0.43528857827186584 0.23363645374774933
-0.6845180988311768 -0.44787976145744324 0.14989817142486572
-0.4819324016571045 -0.592156171798706 0.16832394897937775
-0.45030683279037476 -0.2726548910140991 0.22156624495983124
-0.7428902387619019 0.4775676429271698 0.12226366251707077
-0.8477623462677002 0.17854709923267365 0.13018794357776642
-0.544167160987854 0.3356136679649353 0.20040109753608704
0.12727288901805878 0.7668711543083191 0.1639416664838791
-0.18712082505226135 0.7393585443496704 0.16856762766838074
0.0512910857796669 0.5360986590385437 0.21959593892097473
0.6364279985427856 -0.04827037826180458 0.20064537227153778
0.5209994912147522 0.3285074234008789 0.20530951023101807
0.39905110001564026 0.032959725707769394 0.23878781497478485
0.15075363218784332 0.0630585178732872 0.25706246495246887
0.0009481390588916838 0.27245405316352844 0.2507874369621277
-0.12188379466533661 0.04717949777841568 0.2583332657814026
0.290608674287796 0.2813796401023865 0.23833364248275757
0.3898760676383972 0.5551486015319824 0.191468745470047
-0.3193433880805969 0.18480679392814636 0.24223284423351288
-0.32850730419158936 0.45602527260780334 0.21555529534816742
-0.46148842573165894 0.6277264952659607 0.1633768528699875
-0.2562350332736969 -0.10179033875465393 0.25054600834846497
-0.5091052651405334 0.021616145968437195 0.22425229847431183
-0.7099463939666748 -0.13166135549545288 0.18031488358974457
-0.014513741247355938 -0.20190869271755219 0.25526148080825806
-0.15219277143478394 -0.41372445225715637 0.2339293509721756
-0.13053365051746368 -0.6463749408721924 0.19591039419174194
0.24690288305282593 -0.2338167428970337 0.24509106576442719
0.47300660610198975 -0.27277255058288574 0.2183273285627365
0.8157268166542053 0.05725158751010895 0.1499989777803421
0.6787625551223755 0.5296326279640198 0.13259978592395782
0.33782851696014404 0.9077150225639343 0.0649239718914032
0.021685486659407616 0.9492517709732056 0.08173085749149323
-0.37157750129699707 0.8890153169631958 0.06974494457244873
-0.6380113363265991 0.765951931476593 -0.020530633628368378
-0.9378541707992554 0.31200528144836426 -0.039553508162498474
-0.9780245423316956 0.04125387594103813 0.05325501784682274
-0.9432535171508789 -0.33096253871917725 0.007492384873330593
-0.7151927947998047 -0.6806992292404175 0.04143096134066582
-0.4219176173210144 -0.8298101425170898 0.09521562606096268
0.087428979575634 -0.8932989835739136 0.11492065340280533
0.37878257036209106 -0.7348818778991699 0.14660097658634186
0.6514293551445007 -0.5284022688865662 0.1418856680393219
0.8373078107833862 -0.21196889877319336 0.1313648521900177
0.2451627254486084 0.8577989935874939 -0.11775446683168411
0.07428332418203354 0.6458157300949097 -0.1980520784854889
-0.6307289600372314 0.48174217343330383 -0.1585453748703003
-0.5516955256462097 0.28491494059562683 -0.20428936183452606
-0.6672182083129883 -0.49506744742393494 -0.14503872394561768
-0.4151217043399811 -0.4833998680114746 -0.20082487165927887
0.3079640865325928 -0.9470254778862 -0.023661961778998375
0.42989736795425415 -0.6838383674621582 -0.15364356338977814
0.9480280876159668 -0.05322781950235367 -0.08176518231630325
0.7490019202232361 0.19593177735805511 -0.1649482399225235
0.4476488530635834 0.2600737512111664 -0.22297810018062592
0.15142056345939636 0.4142000079154968 -0.23390096426010132
-0.13484571874141693 0.43130937218666077 -0.23250047862529755
-0.28774917125701904 0.22737649083137512 -0.2424774169921875
-0.4176483750343323 -0.0008839537622407079 -0.23682241141796112
-0.28755876421928406 -0.28789156675338745 -0.23806951940059662
-0.10355272889137268 -0.47691982984542847 -0.2274632602930069
0.5363588929176331 -0.0023835361935198307 -0.21995560824871063
0.21433673799037933 -0.5022103786468506 -0.21833787858486176
3 0 1 2
3 3 4 5
3 0 2 6
3 0 6 7
3 0 7 8
3 3 5 9
3 10 11 12
3 13 14 15
3 16 17 18
3 19 20 21
3 3 9 22
3 10 12 23
3 13 15 24
3 16 18 25
3 19 21 26
3 27 28 29
3 30 31 32
3 33 34 35
3 36 37 38
3 39 40 41
3 42 43 44
3 41 45 42
3 42 45 43
3 45 38 43
3 41 40 45
3 40 46 45
3 45 46 38
3 46 36 38
3 43 47 44
3 38 48 43
3 43 48 47
3 48 35 47
3 38 37 48
3 37 49 48
3 48 49 35
3 49 33 35
3 47 50 44
3 35 51 47
3 47 51 50
3 51 32 50
3 35 34 51
3 34 52 51
3 51 52 32
3 52 30 32
3 50 53 44
3 32 54 50
3 50 54 53
3 54 29 53
3 32 31 54
3 31 55 54
3 54 55 29
3 55 27 29
3 53 42 44
3 29 56 53
3 53 56 42
3 56 41 42
3 29 28 56
3 28 57 56
3 56 57 41
3 57 39 41
3 58 40 39
3 26 59 58
3 58 59 40
3 59 46 40
3 26 21 59
3 21 60 59
3 59 60 46
3 60 36 46
3 61 37 36
3 25 62 61
3 61 62 37
3 62 49 37
3 25 18 62
3 18 63 62
3 62 63 49
3 63 33 49
3 64 34 33
3 24 65 64
3 64 65 34
3 65 52 34
3 24 15 65
3 15 66 65
3 65 66 52
3 66 30 52
3 67 31 30
3 23 68 67
3 67 68 31
3 68 55 31
3 23 12 68
3 12 69 68
3 68 69 55
3 69 27 55
3 70 28 27
3 22 71 70
3 70 71 28
3 71 57 28
3 22 9 71
3 9 72 71
3 71 72 57
3 72 39 57
3 60 61 36
3 21 73 60
3 60 73 61
3 73 25 61
3 21 20 73
3 20 74 73
3 73 74 25
3 74 16 25
3 63 64 33
3 18 75 63
3 63 75 64
3 75 24 64
3 18 17 75
3 17 76 75
3 75 76 24
3 76 13 24
3 66 67 30
3 15 77 66
3 66 77 67
3 77 23 67
3 15 14 77
3 14 78 77
3 77 78 23
3 78 10 23
3 69 70 27
3 12 79 69
3 69 79 70
3 79 22 70
3 12 11 79
3 11 80 79
3 79 80 22
3 80 3 22
3 72 58 39
3 9 81 72
3 72 81 58
3 81 26 58
3 9 5 81
3 5 82 81
3 81 82 26
3 82 19 26
3 83 20 19
3 8 84 83
3 83 84 20
3 84 74 20
3 8 7 84
3 7 85 84
3 84 85 74
3 85 16 74
3 85 17 16
3 7 86 85
3 85 86 17
3 86 76 17
3 7 6 86
3 6 87 86
3 86 87 76
3 87 13 76
3 87 14 13
3 6 88 87
3 87 88 14
3 88 78 14
3 6 2 88
3 2 89 88
3 88 89 78
3 89 10 78
3 82 83 19
3 5 90 82
3 82 90 83
3 90 8 83
3 5 4 90
3 4 1 90
3 90 1 8
3 1 0 8
3 89 11 10
3 2 91 89
3 89 91 11
3 91 80 11
3 2 1 91
3 1 4 91
3 91 4 80
3 4 3 80
