ply
format ascii 1.0
comment Created by Blender 2.76 (sub 0) - www.blender.org, source file: ''
element vertex 12
property float x
property float y
property float z
element face 20
property list uchar uint vertex_indices
end_header
0.000000 0.000000 -1.000000
0.723607 -0.525725 -0.447220
-0.276388 -0.850649 -0.447220
0.723607 0.525725 -0.447220
-0.894426 0.000000 -0.447216
-0.276388 0.850649 -0.447220
0.894426 0.000000 0.447216
0.276388 -0.850649 0.447220
-0.723607 -0.525725 0.447220
-0.723607 0.525725 0.447220
0.276388 0.850649 0.447220
0.000000 0.000000 1.000000
3 0 1 2
3 1 0 3
3 0 2 4
3 0 4 5
3 0 5 3
3 1 3 6
3 2 1 7
3 4 2 8
3 5 4 9
3 3 5 10
3 1 6 7
3 2 7 8
3 4 8 9
3 5 9 10
3 3 10 6
3 7 6 11
3 8 7 11
3 9 8 11
3 10 9 11
3 6 10 11
