ply
format ascii 1.0
comment Created by Blender 2.76 (sub 0) - www.blender.org, source file: ''
element vertex 12
property float x
property float y
property float z
element face 20
property list uchar uint vertex_indices
end_header
-0.465088 -0.995964 -0.953735
0.258512 -1.521684 -0.400950
-0.741473 -1.846604 -0.400950
0.258512 -0.470244 -0.400950
-1.359513 -0.995964 -0.400950
-0.741473 -0.145324 -0.400950
0.429337 -0.995964 0.493480
-0.188703 -1.846604 0.493480
-1.188688 -1.521684 0.493480
-1.188688 -0.470244 0.493480
-0.188703 -0.145324 0.493480
-0.465088 -0.995964 1.046265
3 0 1 2
3 1 0 3
3 0 2 4
3 0 4 5
3 0 5 3
3 1 3 6
3 2 1 7
3 4 2 8
3 5 4 9
3 3 5 10
3 1 6 7
3 2 7 8
3 4 8 9
3 5 9 10
3 3 10 6
3 7 6 11
3 8 7 11
3 9 8 11
3 10 9 11
3 6 10 11
