ply
format ascii 1.0
comment Created by Blender 2.82 (sub 7) - www.blender.org, source file: ''
element vertex 92
property float x
property float y
property float z
element face 180
property list uchar uint vertex_indices
end_header
0.000000 0.000000 -1.000000
0.241200 -0.175240 -0.815738
-0.092128 -0.283547 -0.815738
0.723600 -0.525720 -0.447215
0.482400 -0.350480 -0.631477
0.723600 -0.175240 -0.447215
-0.298142 0.000000 -0.815738
-0.092128 0.283547 -0.815738
0.241200 0.175240 -0.815738
0.780542 -0.350480 -0.149072
-0.276385 -0.850640 -0.447215
0.056943 -0.742333 -0.447215
-0.092128 -0.850640 -0.149072
-0.894425 0.000000 -0.447215
-0.688412 -0.283547 -0.447215
-0.837483 -0.175240 -0.149072
-0.276385 0.850640 -0.447215
-0.482398 0.567093 -0.447215
-0.425457 0.742333 -0.149072
0.723600 0.525720 -0.447215
0.390272 0.634027 -0.447215
0.574528 0.634027 -0.149072
0.574528 -0.634027 -0.149072
-0.425457 -0.742333 -0.149072
-0.837483 0.175240 -0.149072
-0.092128 0.850640 -0.149072
0.780542 0.350480 -0.149072
0.276385 -0.850640 0.447215
0.482398 -0.567093 0.447215
0.184257 -0.567093 0.631477
-0.723600 -0.525720 0.447215
-0.390272 -0.634027 0.447215
-0.482400 -0.350480 0.631477
-0.723600 0.525720 0.447215
-0.723600 0.175240 0.447215
-0.482400 0.350480 0.631477
0.276385 0.850640 0.447215
-0.056943 0.742333 0.447215
0.184257 0.567093 0.631477
0.894425 0.000000 0.447215
0.688412 0.283547 0.447215
0.596283 0.000000 0.631477
0.298142 0.000000 0.815738
0.092128 0.283547 0.815738
0.000000 0.000000 1.000000
0.390270 0.283547 0.631477
0.482398 0.567093 0.447215
-0.241200 0.175240 0.815738
-0.149072 0.458787 0.631477
-0.390272 0.634027 0.447215
-0.241200 -0.175240 0.815738
-0.482400 0.000000 0.631477
-0.723600 -0.175240 0.447215
0.092128 -0.283547 0.815738
-0.149072 -0.458787 0.631477
-0.056943 -0.742333 0.447215
0.390270 -0.283547 0.631477
0.688412 -0.283547 0.447215
0.837483 0.175240 0.149072
0.631470 0.458787 0.149072
0.425457 0.742333 0.149072
0.092128 0.850640 0.149072
-0.241200 0.742333 0.149072
-0.574528 0.634027 0.149072
-0.780542 0.350480 0.149072
-0.780542 0.000000 0.149072
-0.780542 -0.350480 0.149072
-0.574528 -0.634027 0.149072
-0.241200 -0.742333 0.149072
0.092128 -0.850640 0.149072
0.425457 -0.742333 0.149072
0.631470 -0.458787 0.149072
0.837483 -0.175240 0.149072
0.241200 0.742333 -0.149072
0.056943 0.742333 -0.447215
-0.631470 0.458787 -0.149072
-0.688412 0.283547 -0.447215
-0.631470 -0.458787 -0.149072
-0.482398 -0.567093 -0.447215
0.241200 -0.742333 -0.149072
0.390272 -0.634027 -0.447215
0.780542 0.000000 -0.149072
0.723600 0.175240 -0.447215
0.482400 0.350480 -0.631477
0.149072 0.458787 -0.631477
-0.184257 0.567093 -0.631477
-0.390270 0.283547 -0.631477
-0.596283 0.000000 -0.631477
-0.390270 -0.283547 -0.631477
-0.184257 -0.567093 -0.631477
0.482400 0.000000 -0.631477
0.149072 -0.458787 -0.631477
3 0 1 2
3 3 4 5
3 0 2 6
3 0 6 7
3 0 7 8
3 3 5 9
3 10 11 12
3 13 14 15
3 16 17 18
3 19 20 21
3 3 9 22
3 10 12 23
3 13 15 24
3 16 18 25
3 19 21 26
3 27 28 29
3 30 31 32
3 33 34 35
3 36 37 38
3 39 40 41
3 42 43 44
3 41 45 42
3 42 45 43
3 45 38 43
3 41 40 45
3 40 46 45
3 45 46 38
3 46 36 38
3 43 47 44
3 38 48 43
3 43 48 47
3 48 35 47
3 38 37 48
3 37 49 48
3 48 49 35
3 49 33 35
3 47 50 44
3 35 51 47
3 47 51 50
3 51 32 50
3 35 34 51
3 34 52 51
3 51 52 32
3 52 30 32
3 50 53 44
3 32 54 50
3 50 54 53
3 54 29 53
3 32 31 54
3 31 55 54
3 54 55 29
3 55 27 29
3 53 42 44
3 29 56 53
3 53 56 42
3 56 41 42
3 29 28 56
3 28 57 56
3 56 57 41
3 57 39 41
3 58 40 39
3 26 59 58
3 58 59 40
3 59 46 40
3 26 21 59
3 21 60 59
3 59 60 46
3 60 36 46
3 61 37 36
3 25 62 61
3 61 62 37
3 62 49 37
3 25 18 62
3 18 63 62
3 62 63 49
3 63 33 49
3 64 34 33
3 24 65 64
3 64 65 34
3 65 52 34
3 24 15 65
3 15 66 65
3 65 66 52
3 66 30 52
3 67 31 30
3 23 68 67
3 67 68 31
3 68 55 31
3 23 12 68
3 12 69 68
3 68 69 55
3 69 27 55
3 70 28 27
3 22 71 70
3 70 71 28
3 71 57 28
3 22 9 71
3 9 72 71
3 71 72 57
3 72 39 57
3 60 61 36
3 21 73 60
3 60 73 61
3 73 25 61
3 21 20 73
3 20 74 73
3 73 74 25
3 74 16 25
3 63 64 33
3 18 75 63
3 63 75 64
3 75 24 64
3 18 17 75
3 17 76 75
3 75 76 24
3 76 13 24
3 66 67 30
3 15 77 66
3 66 77 67
3 77 23 67
3 15 14 77
3 14 78 77
3 77 78 23
3 78 10 23
3 69 70 27
3 12 79 69
3 69 79 70
3 79 22 70
3 12 11 79
3 11 80 79
3 79 80 22
3 80 3 22
3 72 58 39
3 9 81 72
3 72 81 58
3 81 26 58
3 9 5 81
3 5 82 81
3 81 82 26
3 82 19 26
3 83 20 19
3 8 84 83
3 83 84 20
3 84 74 20
3 8 7 84
3 7 85 84
3 84 85 74
3 85 16 74
3 85 17 16
3 7 86 85
3 85 86 17
3 86 76 17
3 7 6 86
3 6 87 86
3 86 87 76
3 87 13 76
3 87 14 13
3 6 88 87
3 87 88 14
3 88 78 14
3 6 2 88
3 2 89 88
3 88 89 78
3 89 10 78
3 82 83 19
3 5 90 82
3 82 90 83
3 90 8 83
3 5 4 90
3 4 1 90
3 90 1 8
3 1 0 8
3 89 11 10
3 2 91 89
3 89 91 11
3 91 80 11
3 2 1 91
3 1 4 91
3 91 4 80
3 4 3 80
