ply
format ascii 1.0
comment Created by Blender 2.82 (sub 7) - www.blender.org, source file: ''
element vertex 252
property float x
property float y
property float z
element face 500
property list uchar uint vertex_indices
end_header
0.000000 0.000000 -1.000000
0.159515 -0.115893 -0.980369
-0.060928 -0.187520 -0.980369
0.723607 -0.525725 -0.447220
0.638063 -0.463574 -0.614797
0.797578 -0.347681 -0.492937
-0.197172 0.000000 -0.980369
-0.060928 0.187520 -0.980369
0.159515 0.115893 -0.980369
0.835238 -0.463575 -0.295763
-0.276388 -0.850649 -0.447220
-0.084198 -0.865981 -0.492938
-0.182786 -0.937611 -0.295763
-0.894426 0.000000 -0.447216
-0.849619 -0.187520 -0.492934
-0.948206 -0.115893 -0.295761
-0.276388 0.850649 -0.447220
-0.440888 0.750087 -0.492938
-0.403231 0.865984 -0.295764
0.723607 0.525725 -0.447220
0.577136 0.651097 -0.492938
0.698995 0.651099 -0.295764
0.698995 -0.651099 -0.295764
-0.403231 -0.865984 -0.295764
-0.948206 0.115893 -0.295761
-0.182786 0.937611 -0.295763
0.835238 0.463575 -0.295763
0.276388 -0.850649 0.447220
0.440888 -0.750087 0.492938
0.243713 -0.750086 0.614797
-0.723607 -0.525725 0.447220
-0.577136 -0.651097 0.492938
-0.638063 -0.463574 0.614797
-0.723607 0.525725 0.447220
-0.797578 0.347681 0.492937
-0.638063 0.463574 0.614797
0.276388 0.850649 0.447220
0.084198 0.865981 0.492938
0.243713 0.750086 0.614797
0.894426 0.000000 0.447216
0.849619 0.187520 0.492934
0.788689 0.000000 0.614792
0.197172 0.000000 0.980369
0.060928 0.187520 0.980369
0.000000 0.000000 1.000000
0.417407 0.000000 0.908720
0.281808 0.204745 0.937371
0.626111 0.000000 0.779734
0.513820 0.211635 0.831384
0.712377 0.204745 0.671266
0.128983 0.396975 0.908721
0.360055 0.423271 0.831386
0.193475 0.595464 0.779738
0.582585 0.423271 0.693856
0.414860 0.614239 0.671269
0.755097 0.396976 0.521765
0.610886 0.595465 0.521766
0.440888 0.750087 0.492938
-0.159515 0.115893 0.980369
-0.107643 0.331283 0.937371
-0.042502 0.554067 0.831386
0.025407 0.740778 0.671269
-0.337688 0.245342 0.908721
-0.291293 0.473229 0.831386
-0.506533 0.368014 0.779737
-0.222531 0.684866 0.693858
-0.455979 0.584363 0.671269
-0.144215 0.840810 0.521767
-0.377552 0.764993 0.521767
-0.577135 0.651097 0.492938
-0.159515 -0.115893 0.980369
-0.348334 0.000000 0.937371
-0.540084 0.130797 0.831385
-0.696671 0.253078 0.671268
-0.337688 -0.245342 0.908721
-0.540084 -0.130797 0.831385
-0.506533 -0.368014 0.779737
-0.720114 -0.000000 0.693856
-0.696671 -0.253078 0.671268
-0.844223 0.122671 0.521765
-0.844223 -0.122671 0.521765
-0.797578 -0.347681 0.492937
0.060928 -0.187520 0.980369
-0.107643 -0.331283 0.937371
-0.291293 -0.473229 0.831386
-0.455979 -0.584363 0.671269
0.128983 -0.396975 0.908721
-0.042502 -0.554067 0.831386
0.193475 -0.595464 0.779738
-0.222531 -0.684866 0.693858
0.025407 -0.740778 0.671269
-0.377552 -0.764993 0.521767
-0.144215 -0.840810 0.521767
0.084198 -0.865981 0.492938
0.281808 -0.204745 0.937371
0.360055 -0.423271 0.831386
0.414860 -0.614239 0.671269
0.513820 -0.211635 0.831384
0.582585 -0.423271 0.693856
0.712377 -0.204745 0.671266
0.610886 -0.595465 0.521766
0.755097 -0.396976 0.521765
0.849619 -0.187520 0.492934
0.948206 0.115893 0.295761
0.963804 0.245343 0.104353
0.886548 0.331285 0.322929
0.923946 0.368015 -0.104353
0.873883 0.473232 0.111266
0.804319 0.584367 -0.107644
0.762617 0.554071 0.333797
0.720119 0.684871 0.111266
0.589031 0.740782 0.322931
0.635523 0.764997 -0.104354
0.531169 0.840815 0.104354
0.403231 0.865984 0.295764
0.182786 0.937611 0.295763
0.064492 0.992447 0.104354
-0.041118 0.945529 0.322931
-0.064492 0.992447 -0.104354
-0.180030 0.977348 0.111266
-0.307220 0.945531 -0.107644
-0.291296 0.896507 0.333798
-0.428825 0.896509 0.111266
-0.522507 0.789114 0.322931
-0.531169 0.840815 -0.104354
-0.635523 0.764997 0.104354
-0.698995 0.651099 0.295764
-0.835238 0.463575 0.295763
-0.923946 0.368015 0.104353
-0.911958 0.253078 0.322930
-0.963804 0.245343 -0.104353
-0.985146 0.130797 0.111265
-0.994190 0.000000 -0.107643
-0.942645 -0.000000 0.333796
-0.985146 -0.130797 0.111265
-0.911958 -0.253078 0.322930
-0.963804 -0.245343 -0.104353
-0.923946 -0.368015 0.104353
-0.835238 -0.463575 0.295763
-0.698995 -0.651099 0.295764
-0.635523 -0.764997 0.104354
-0.522507 -0.789114 0.322931
-0.531169 -0.840815 -0.104354
-0.428825 -0.896509 0.111266
-0.307220 -0.945531 -0.107644
-0.291296 -0.896507 0.333798
-0.180030 -0.977348 0.111266
-0.041118 -0.945529 0.322931
-0.064492 -0.992447 -0.104354
0.064492 -0.992447 0.104354
0.182786 -0.937611 0.295763
0.403231 -0.865984 0.295764
0.531169 -0.840815 0.104354
0.589031 -0.740782 0.322931
0.635523 -0.764997 -0.104354
0.720119 -0.684871 0.111266
0.804319 -0.584367 -0.107644
0.762617 -0.554071 0.333797
0.873883 -0.473232 0.111266
0.886548 -0.331285 0.322929
0.923946 -0.368015 -0.104353
0.963804 -0.245343 0.104353
0.948206 -0.115893 0.295761
0.307220 0.945531 0.107644
0.428825 0.896509 -0.111266
0.522507 0.789114 -0.322931
0.180030 0.977348 -0.111266
0.291296 0.896507 -0.333798
0.041118 0.945529 -0.322931
0.377552 0.764993 -0.521767
0.144215 0.840810 -0.521767
-0.084198 0.865981 -0.492938
-0.804319 0.584367 0.107644
-0.720119 0.684871 -0.111266
-0.589031 0.740782 -0.322931
-0.873883 0.473232 -0.111266
-0.762617 0.554071 -0.333797
-0.886548 0.331285 -0.322929
-0.610886 0.595465 -0.521766
-0.755097 0.396976 -0.521765
-0.849619 0.187520 -0.492934
-0.804319 -0.584367 0.107644
-0.873883 -0.473232 -0.111266
-0.886548 -0.331285 -0.322929
-0.720119 -0.684871 -0.111266
-0.762617 -0.554071 -0.333797
-0.589031 -0.740782 -0.322931
-0.755097 -0.396976 -0.521765
-0.610886 -0.595465 -0.521766
-0.440888 -0.750087 -0.492938
0.307220 -0.945531 0.107644
0.180030 -0.977348 -0.111266
0.041118 -0.945529 -0.322931
0.428825 -0.896509 -0.111266
0.291296 -0.896507 -0.333798
0.522507 -0.789114 -0.322931
0.144215 -0.840810 -0.521767
0.377552 -0.764993 -0.521767
0.577135 -0.651097 -0.492938
0.994190 0.000000 0.107643
0.985146 -0.130797 -0.111265
0.911958 -0.253078 -0.322930
0.985146 0.130797 -0.111265
0.942645 0.000000 -0.333796
0.911958 0.253078 -0.322930
0.844223 -0.122671 -0.521765
0.844223 0.122671 -0.521765
0.797578 0.347681 -0.492937
0.638063 0.463574 -0.614797
0.506533 0.368014 -0.779737
0.455979 0.584363 -0.671269
0.337688 0.245342 -0.908721
0.291293 0.473229 -0.831386
0.107643 0.331283 -0.937371
0.222531 0.684866 -0.693858
0.042502 0.554067 -0.831386
-0.025407 0.740778 -0.671269
-0.128983 0.396975 -0.908722
-0.193475 0.595464 -0.779738
-0.243713 0.750086 -0.614797
-0.414860 0.614239 -0.671269
-0.360055 0.423271 -0.831386
-0.281808 0.204745 -0.937371
-0.582585 0.423271 -0.693856
-0.513820 0.211635 -0.831384
-0.712377 0.204745 -0.671266
-0.417407 0.000000 -0.908720
-0.626111 0.000000 -0.779734
-0.788689 0.000000 -0.614792
-0.712377 -0.204745 -0.671266
-0.513820 -0.211635 -0.831384
-0.281808 -0.204745 -0.937371
-0.582585 -0.423271 -0.693856
-0.360055 -0.423271 -0.831386
-0.414860 -0.614239 -0.671269
-0.128983 -0.396975 -0.908722
-0.193475 -0.595464 -0.779738
-0.243713 -0.750086 -0.614797
0.696671 0.253078 -0.671268
0.720114 0.000000 -0.693856
0.696671 -0.253078 -0.671268
0.540084 0.130797 -0.831385
0.540084 -0.130797 -0.831385
0.348334 0.000000 -0.937371
0.506533 -0.368014 -0.779737
0.337688 -0.245342 -0.908721
-0.025407 -0.740778 -0.671269
0.042502 -0.554067 -0.831386
0.107643 -0.331283 -0.937371
0.222531 -0.684866 -0.693858
0.291293 -0.473229 -0.831386
0.455979 -0.584363 -0.671269
3 0 1 2
3 3 4 5
3 0 2 6
3 0 6 7
3 0 7 8
3 3 5 9
3 10 11 12
3 13 14 15
3 16 17 18
3 19 20 21
3 3 9 22
3 10 12 23
3 13 15 24
3 16 18 25
3 19 21 26
3 27 28 29
3 30 31 32
3 33 34 35
3 36 37 38
3 39 40 41
3 42 43 44
3 45 46 42
3 47 48 45
3 41 49 47
3 42 46 43
3 46 50 43
3 45 48 46
3 48 51 46
3 46 51 50
3 51 52 50
3 47 49 48
3 49 53 48
3 48 53 51
3 53 54 51
3 51 54 52
3 54 38 52
3 41 40 49
3 40 55 49
3 49 55 53
3 55 56 53
3 53 56 54
3 56 57 54
3 54 57 38
3 57 36 38
3 43 58 44
3 50 59 43
3 52 60 50
3 38 61 52
3 43 59 58
3 59 62 58
3 50 60 59
3 60 63 59
3 59 63 62
3 63 64 62
3 52 61 60
3 61 65 60
3 60 65 63
3 65 66 63
3 63 66 64
3 66 35 64
3 38 37 61
3 37 67 61
3 61 67 65
3 67 68 65
3 65 68 66
3 68 69 66
3 66 69 35
3 69 33 35
3 58 70 44
3 62 71 58
3 64 72 62
3 35 73 64
3 58 71 70
3 71 74 70
3 62 72 71
3 72 75 71
3 71 75 74
3 75 76 74
3 64 73 72
3 73 77 72
3 72 77 75
3 77 78 75
3 75 78 76
3 78 32 76
3 35 34 73
3 34 79 73
3 73 79 77
3 79 80 77
3 77 80 78
3 80 81 78
3 78 81 32
3 81 30 32
3 70 82 44
3 74 83 70
3 76 84 74
3 32 85 76
3 70 83 82
3 83 86 82
3 74 84 83
3 84 87 83
3 83 87 86
3 87 88 86
3 76 85 84
3 85 89 84
3 84 89 87
3 89 90 87
3 87 90 88
3 90 29 88
3 32 31 85
3 31 91 85
3 85 91 89
3 91 92 89
3 89 92 90
3 92 93 90
3 90 93 29
3 93 27 29
3 82 42 44
3 86 94 82
3 88 95 86
3 29 96 88
3 82 94 42
3 94 45 42
3 86 95 94
3 95 97 94
3 94 97 45
3 97 47 45
3 88 96 95
3 96 98 95
3 95 98 97
3 98 99 97
3 97 99 47
3 99 41 47
3 29 28 96
3 28 100 96
3 96 100 98
3 100 101 98
3 98 101 99
3 101 102 99
3 99 102 41
3 102 39 41
3 103 40 39
3 104 105 103
3 106 107 104
3 26 108 106
3 103 105 40
3 105 55 40
3 104 107 105
3 107 109 105
3 105 109 55
3 109 56 55
3 106 108 107
3 108 110 107
3 107 110 109
3 110 111 109
3 109 111 56
3 111 57 56
3 26 21 108
3 21 112 108
3 108 112 110
3 112 113 110
3 110 113 111
3 113 114 111
3 111 114 57
3 114 36 57
3 115 37 36
3 116 117 115
3 118 119 116
3 25 120 118
3 115 117 37
3 117 67 37
3 116 119 117
3 119 121 117
3 117 121 67
3 121 68 67
3 118 120 119
3 120 122 119
3 119 122 121
3 122 123 121
3 121 123 68
3 123 69 68
3 25 18 120
3 18 124 120
3 120 124 122
3 124 125 122
3 122 125 123
3 125 126 123
3 123 126 69
3 126 33 69
3 127 34 33
3 128 129 127
3 130 131 128
3 24 132 130
3 127 129 34
3 129 79 34
3 128 131 129
3 131 133 129
3 129 133 79
3 133 80 79
3 130 132 131
3 132 134 131
3 131 134 133
3 134 135 133
3 133 135 80
3 135 81 80
3 24 15 132
3 15 136 132
3 132 136 134
3 136 137 134
3 134 137 135
3 137 138 135
3 135 138 81
3 138 30 81
3 139 31 30
3 140 141 139
3 142 143 140
3 23 144 142
3 139 141 31
3 141 91 31
3 140 143 141
3 143 145 141
3 141 145 91
3 145 92 91
3 142 144 143
3 144 146 143
3 143 146 145
3 146 147 145
3 145 147 92
3 147 93 92
3 23 12 144
3 12 148 144
3 144 148 146
3 148 149 146
3 146 149 147
3 149 150 147
3 147 150 93
3 150 27 93
3 151 28 27
3 152 153 151
3 154 155 152
3 22 156 154
3 151 153 28
3 153 100 28
3 152 155 153
3 155 157 153
3 153 157 100
3 157 101 100
3 154 156 155
3 156 158 155
3 155 158 157
3 158 159 157
3 157 159 101
3 159 102 101
3 22 9 156
3 9 160 156
3 156 160 158
3 160 161 158
3 158 161 159
3 161 162 159
3 159 162 102
3 162 39 102
3 114 115 36
3 113 163 114
3 112 164 113
3 21 165 112
3 114 163 115
3 163 116 115
3 113 164 163
3 164 166 163
3 163 166 116
3 166 118 116
3 112 165 164
3 165 167 164
3 164 167 166
3 167 168 166
3 166 168 118
3 168 25 118
3 21 20 165
3 20 169 165
3 165 169 167
3 169 170 167
3 167 170 168
3 170 171 168
3 168 171 25
3 171 16 25
3 126 127 33
3 125 172 126
3 124 173 125
3 18 174 124
3 126 172 127
3 172 128 127
3 125 173 172
3 173 175 172
3 172 175 128
3 175 130 128
3 124 174 173
3 174 176 173
3 173 176 175
3 176 177 175
3 175 177 130
3 177 24 130
3 18 17 174
3 17 178 174
3 174 178 176
3 178 179 176
3 176 179 177
3 179 180 177
3 177 180 24
3 180 13 24
3 138 139 30
3 137 181 138
3 136 182 137
3 15 183 136
3 138 181 139
3 181 140 139
3 137 182 181
3 182 184 181
3 181 184 140
3 184 142 140
3 136 183 182
3 183 185 182
3 182 185 184
3 185 186 184
3 184 186 142
3 186 23 142
3 15 14 183
3 14 187 183
3 183 187 185
3 187 188 185
3 185 188 186
3 188 189 186
3 186 189 23
3 189 10 23
3 150 151 27
3 149 190 150
3 148 191 149
3 12 192 148
3 150 190 151
3 190 152 151
3 149 191 190
3 191 193 190
3 190 193 152
3 193 154 152
3 148 192 191
3 192 194 191
3 191 194 193
3 194 195 193
3 193 195 154
3 195 22 154
3 12 11 192
3 11 196 192
3 192 196 194
3 196 197 194
3 194 197 195
3 197 198 195
3 195 198 22
3 198 3 22
3 162 103 39
3 161 199 162
3 160 200 161
3 9 201 160
3 162 199 103
3 199 104 103
3 161 200 199
3 200 202 199
3 199 202 104
3 202 106 104
3 160 201 200
3 201 203 200
3 200 203 202
3 203 204 202
3 202 204 106
3 204 26 106
3 9 5 201
3 5 205 201
3 201 205 203
3 205 206 203
3 203 206 204
3 206 207 204
3 204 207 26
3 207 19 26
3 208 20 19
3 209 210 208
3 211 212 209
3 8 213 211
3 208 210 20
3 210 169 20
3 209 212 210
3 212 214 210
3 210 214 169
3 214 170 169
3 211 213 212
3 213 215 212
3 212 215 214
3 215 216 214
3 214 216 170
3 216 171 170
3 8 7 213
3 7 217 213
3 213 217 215
3 217 218 215
3 215 218 216
3 218 219 216
3 216 219 171
3 219 16 171
3 219 17 16
3 218 220 219
3 217 221 218
3 7 222 217
3 219 220 17
3 220 178 17
3 218 221 220
3 221 223 220
3 220 223 178
3 223 179 178
3 217 222 221
3 222 224 221
3 221 224 223
3 224 225 223
3 223 225 179
3 225 180 179
3 7 6 222
3 6 226 222
3 222 226 224
3 226 227 224
3 224 227 225
3 227 228 225
3 225 228 180
3 228 13 180
3 228 14 13
3 227 229 228
3 226 230 227
3 6 231 226
3 228 229 14
3 229 187 14
3 227 230 229
3 230 232 229
3 229 232 187
3 232 188 187
3 226 231 230
3 231 233 230
3 230 233 232
3 233 234 232
3 232 234 188
3 234 189 188
3 6 2 231
3 2 235 231
3 231 235 233
3 235 236 233
3 233 236 234
3 236 237 234
3 234 237 189
3 237 10 189
3 207 208 19
3 206 238 207
3 205 239 206
3 5 240 205
3 207 238 208
3 238 209 208
3 206 239 238
3 239 241 238
3 238 241 209
3 241 211 209
3 205 240 239
3 240 242 239
3 239 242 241
3 242 243 241
3 241 243 211
3 243 8 211
3 5 4 240
3 4 244 240
3 240 244 242
3 244 245 242
3 242 245 243
3 245 1 243
3 243 1 8
3 1 0 8
3 237 11 10
3 236 246 237
3 235 247 236
3 2 248 235
3 237 246 11
3 246 196 11
3 236 247 246
3 247 249 246
3 246 249 196
3 249 197 196
3 235 248 247
3 248 250 247
3 247 250 249
3 250 251 249
3 249 251 197
3 251 198 197
3 2 1 248
3 1 245 248
3 248 245 250
3 245 244 250
3 250 244 251
3 244 4 251
3 251 4 198
3 4 3 198
