ply
format ascii 1.0
comment Created by Blender 2.82 (sub 7) - www.blender.org, source file: ''
element vertex 492
property float x
property float y
property float z
element face 980
property list uchar uint vertex_indices
end_header
0.000000 0.000000 -1.000000
0.103371 -0.075103 -0.921031
-0.039484 -0.121520 -0.921031
0.723600 -0.525720 -0.447215
0.620229 -0.450617 -0.526184
0.723600 -0.375514 -0.447215
-0.127775 0.000000 -0.921031
-0.039484 0.121520 -0.921031
0.103371 0.075103 -0.921031
0.748004 -0.450617 -0.319439
-0.276385 -0.850640 -0.447215
-0.133530 -0.804223 -0.447215
-0.197418 -0.850640 -0.319439
-0.894425 0.000000 -0.447215
-0.806134 -0.121520 -0.447215
-0.870021 -0.075103 -0.319439
-0.276385 0.850640 -0.447215
-0.364676 0.729120 -0.447215
-0.340273 0.804223 -0.319439
0.723600 0.525720 -0.447215
0.580745 0.572137 -0.447215
0.659712 0.572137 -0.319439
0.659712 -0.572137 -0.319439
-0.340273 -0.804223 -0.319439
-0.870021 0.075103 -0.319439
-0.197418 0.850640 -0.319439
0.748004 0.450617 -0.319439
0.276385 -0.850640 0.447215
0.364676 -0.729120 0.447215
0.236901 -0.729120 0.526184
-0.723600 -0.525720 0.447215
-0.580745 -0.572137 0.447215
-0.620229 -0.450617 0.526184
-0.723600 0.525720 0.447215
-0.723600 0.375514 0.447215
-0.620229 0.450617 0.526184
0.276385 0.850640 0.447215
0.133530 0.804223 0.447215
0.236901 0.729120 0.526184
0.894425 0.000000 0.447215
0.806134 0.121520 0.447215
0.766650 0.000000 0.526184
0.127775 0.000000 0.921031
0.039484 0.121520 0.921031
0.000000 0.000000 1.000000
0.255550 0.000000 0.842061
0.167259 0.121520 0.842061
0.383325 0.000000 0.763092
0.295034 0.121520 0.763092
0.511100 0.000000 0.684123
0.422809 0.121520 0.684123
0.638875 0.000000 0.605154
0.550584 0.121520 0.605154
0.678359 0.121520 0.526184
0.078967 0.243040 0.842061
0.206742 0.243040 0.763092
0.118451 0.364560 0.763092
0.334517 0.243040 0.684123
0.246226 0.364560 0.684123
0.157934 0.486080 0.684123
0.462292 0.243040 0.605154
0.374001 0.364560 0.605154
0.285709 0.486080 0.605154
0.197418 0.607600 0.605154
0.590067 0.243040 0.526184
0.501776 0.364560 0.526184
0.413484 0.486080 0.526184
0.325193 0.607600 0.526184
0.717842 0.243040 0.447215
0.629551 0.364560 0.447215
0.541259 0.486080 0.447215
0.452968 0.607600 0.447215
0.364676 0.729120 0.447215
-0.103371 0.075103 0.921031
-0.063888 0.196623 0.842061
-0.024404 0.318143 0.763092
0.015079 0.439663 0.684123
0.054563 0.561183 0.605154
0.094046 0.682703 0.526184
-0.206743 0.150206 0.842061
-0.167259 0.271726 0.763092
-0.310114 0.225309 0.763092
-0.127776 0.393246 0.684123
-0.270631 0.346829 0.684123
-0.413486 0.300411 0.684123
-0.088292 0.514766 0.605154
-0.231147 0.468349 0.605154
-0.374002 0.421931 0.605154
-0.516857 0.375514 0.605154
-0.048809 0.636286 0.526184
-0.191664 0.589869 0.526184
-0.334519 0.543451 0.526184
-0.477374 0.497034 0.526184
-0.009325 0.757806 0.447215
-0.152180 0.711389 0.447215
-0.295035 0.664971 0.447215
-0.437890 0.618554 0.447215
-0.580745 0.572137 0.447215
-0.103371 -0.075103 0.921031
-0.206743 0.000000 0.842061
-0.310114 0.075103 0.763092
-0.413486 0.150206 0.684123
-0.516857 0.225309 0.605154
-0.620229 0.300411 0.526184
-0.206743 -0.150206 0.842061
-0.310114 -0.075103 0.763092
-0.310114 -0.225309 0.763092
-0.413486 0.000000 0.684123
-0.413486 -0.150206 0.684123
-0.413486 -0.300411 0.684123
-0.516857 0.075103 0.605154
-0.516857 -0.075103 0.605154
-0.516857 -0.225309 0.605154
-0.516857 -0.375514 0.605154
-0.620229 0.150206 0.526184
-0.620229 -0.000000 0.526184
-0.620229 -0.150206 0.526184
-0.620229 -0.300411 0.526184
-0.723600 0.225309 0.447215
-0.723600 0.075103 0.447215
-0.723600 -0.075103 0.447215
-0.723600 -0.225309 0.447215
-0.723600 -0.375514 0.447215
0.039484 -0.121520 0.921031
-0.063888 -0.196623 0.842061
-0.167259 -0.271726 0.763092
-0.270631 -0.346829 0.684123
-0.374002 -0.421931 0.605154
-0.477374 -0.497034 0.526184
0.078967 -0.243040 0.842061
-0.024404 -0.318143 0.763092
0.118451 -0.364560 0.763092
-0.127776 -0.393246 0.684123
0.015079 -0.439663 0.684123
0.157934 -0.486080 0.684123
-0.231147 -0.468349 0.605154
-0.088292 -0.514766 0.605154
0.054563 -0.561183 0.605154
0.197418 -0.607600 0.605154
-0.334519 -0.543451 0.526184
-0.191664 -0.589869 0.526184
-0.048809 -0.636286 0.526184
0.094046 -0.682703 0.526184
-0.437890 -0.618554 0.447215
-0.295035 -0.664971 0.447215
-0.152180 -0.711389 0.447215
-0.009325 -0.757806 0.447215
0.133530 -0.804223 0.447215
0.167259 -0.121520 0.842061
0.206742 -0.243040 0.763092
0.246226 -0.364560 0.684123
0.285709 -0.486080 0.605154
0.325193 -0.607600 0.526184
0.295034 -0.121520 0.763092
0.334517 -0.243040 0.684123
0.422809 -0.121520 0.684123
0.374001 -0.364560 0.605154
0.462292 -0.243040 0.605154
0.550584 -0.121520 0.605154
0.413484 -0.486080 0.526184
0.501776 -0.364560 0.526184
0.590067 -0.243040 0.526184
0.678359 -0.121520 0.526184
0.452968 -0.607600 0.447215
0.541259 -0.486080 0.447215
0.629551 -0.364560 0.447215
0.717842 -0.243040 0.447215
0.806134 -0.121520 0.447215
0.870021 0.075103 0.319439
0.845618 0.150206 0.191664
0.781730 0.196623 0.319439
0.821214 0.225309 0.063888
0.757326 0.271726 0.191664
0.796811 0.300411 -0.063888
0.732923 0.346829 0.063888
0.772407 0.375514 -0.191664
0.708519 0.421931 -0.063888
0.684116 0.497034 -0.191664
0.693439 0.318143 0.319439
0.669035 0.393246 0.191664
0.605147 0.439663 0.319439
0.644631 0.468349 0.063888
0.580744 0.514766 0.191664
0.516856 0.561183 0.319439
0.620228 0.543451 -0.063888
0.556340 0.589869 0.063888
0.492452 0.636286 0.191664
0.428564 0.682703 0.319439
0.595824 0.618554 -0.191664
0.531936 0.664971 -0.063888
0.468049 0.711389 0.063888
0.404161 0.757806 0.191664
0.340273 0.804223 0.319439
0.197418 0.850640 0.319439
0.118451 0.850640 0.191664
0.054563 0.804223 0.319439
0.039484 0.850640 0.063888
-0.024404 0.804223 0.191664
-0.039484 0.850640 -0.063888
-0.103371 0.804223 0.063888
-0.118451 0.850640 -0.191664
-0.182339 0.804223 -0.063888
-0.261306 0.804223 -0.191664
-0.088292 0.757806 0.319439
-0.167259 0.757806 0.191664
-0.231147 0.711389 0.319439
-0.246226 0.757806 0.063888
-0.310114 0.711389 0.191664
-0.374002 0.664971 0.319439
-0.325194 0.757806 -0.063888
-0.389081 0.711389 0.063888
-0.452969 0.664971 0.191664
-0.516857 0.618554 0.319439
-0.404161 0.757806 -0.191664
-0.468049 0.711389 -0.063888
-0.531936 0.664971 0.063888
-0.595824 0.618554 0.191664
-0.659712 0.572137 0.319439
-0.748004 0.450617 0.319439
-0.772407 0.375514 0.191664
-0.748004 0.300411 0.319439
-0.796811 0.300411 0.063888
-0.772407 0.225309 0.191664
-0.821214 0.225309 -0.063888
-0.796811 0.150206 0.063888
-0.845618 0.150206 -0.191664
-0.821214 0.075103 -0.063888
-0.845618 0.000000 -0.191664
-0.748004 0.150206 0.319439
-0.772407 0.075103 0.191664
-0.748004 0.000000 0.319439
-0.796811 0.000000 0.063888
-0.772407 -0.075103 0.191664
-0.748004 -0.150206 0.319439
-0.821214 -0.075103 -0.063888
-0.796811 -0.150206 0.063888
-0.772407 -0.225309 0.191664
-0.748004 -0.300411 0.319439
-0.845618 -0.150206 -0.191664
-0.821214 -0.225309 -0.063888
-0.796811 -0.300411 0.063888
-0.772407 -0.375514 0.191664
-0.748004 -0.450617 0.319439
-0.659712 -0.572137 0.319439
-0.595824 -0.618554 0.191664
-0.516857 -0.618554 0.319439
-0.531936 -0.664971 0.063888
-0.452969 -0.664971 0.191664
-0.468049 -0.711389 -0.063888
-0.389081 -0.711389 0.063888
-0.404161 -0.757806 -0.191664
-0.325194 -0.757806 -0.063888
-0.261306 -0.804223 -0.191664
-0.374002 -0.664971 0.319439
-0.310114 -0.711389 0.191664
-0.231147 -0.711389 0.319439
-0.246226 -0.757806 0.063888
-0.167259 -0.757806 0.191664
-0.088292 -0.757806 0.319439
-0.182339 -0.804223 -0.063888
-0.103371 -0.804223 0.063888
-0.024404 -0.804223 0.191664
0.054563 -0.804223 0.319439
-0.118451 -0.850640 -0.191664
-0.039484 -0.850640 -0.063888
0.039484 -0.850640 0.063888
0.118451 -0.850640 0.191664
0.197418 -0.850640 0.319439
0.340273 -0.804223 0.319439
0.404161 -0.757806 0.191664
0.428564 -0.682703 0.319439
0.468049 -0.711389 0.063888
0.492452 -0.636286 0.191664
0.531936 -0.664971 -0.063888
0.556340 -0.589869 0.063888
0.595824 -0.618554 -0.191664
0.620228 -0.543451 -0.063888
0.684116 -0.497034 -0.191664
0.516856 -0.561183 0.319439
0.580744 -0.514766 0.191664
0.605147 -0.439663 0.319439
0.644631 -0.468349 0.063888
0.669035 -0.393246 0.191664
0.693439 -0.318143 0.319439
0.708519 -0.421931 -0.063888
0.732923 -0.346829 0.063888
0.757326 -0.271726 0.191664
0.781730 -0.196623 0.319439
0.772407 -0.375514 -0.191664
0.796811 -0.300411 -0.063888
0.821214 -0.225309 0.063888
0.845618 -0.150206 0.191664
0.870021 -0.075103 0.319439
0.261306 0.804223 0.191664
0.325194 0.757806 0.063888
0.389081 0.711389 -0.063888
0.452969 0.664971 -0.191664
0.516857 0.618554 -0.319439
0.182339 0.804223 0.063888
0.246226 0.757806 -0.063888
0.103371 0.804223 -0.063888
0.310114 0.711389 -0.191664
0.167259 0.757806 -0.191664
0.024404 0.804223 -0.191664
0.374002 0.664971 -0.319439
0.231147 0.711389 -0.319439
0.088292 0.757806 -0.319439
-0.054563 0.804223 -0.319439
0.437890 0.618554 -0.447215
0.295035 0.664971 -0.447215
0.152180 0.711389 -0.447215
0.009325 0.757806 -0.447215
-0.133530 0.804223 -0.447215
-0.684116 0.497034 0.191664
-0.620228 0.543451 0.063888
-0.556340 0.589869 -0.063888
-0.492452 0.636286 -0.191664
-0.428564 0.682703 -0.319439
-0.708519 0.421931 0.063888
-0.644631 0.468349 -0.063888
-0.732923 0.346829 -0.063888
-0.580744 0.514766 -0.191664
-0.669035 0.393246 -0.191664
-0.757326 0.271726 -0.191664
-0.516856 0.561183 -0.319439
-0.605147 0.439663 -0.319439
-0.693439 0.318143 -0.319439
-0.781730 0.196623 -0.319439
-0.452968 0.607600 -0.447215
-0.541259 0.486080 -0.447215
-0.629551 0.364560 -0.447215
-0.717842 0.243040 -0.447215
-0.806134 0.121520 -0.447215
-0.684116 -0.497034 0.191664
-0.708519 -0.421931 0.063888
-0.732923 -0.346829 -0.063888
-0.757326 -0.271726 -0.191664
-0.781730 -0.196623 -0.319439
-0.620228 -0.543451 0.063888
-0.644631 -0.468349 -0.063888
-0.556340 -0.589869 -0.063888
-0.669035 -0.393246 -0.191664
-0.580744 -0.514766 -0.191664
-0.492452 -0.636286 -0.191664
-0.693439 -0.318143 -0.319439
-0.605147 -0.439663 -0.319439
-0.516856 -0.561183 -0.319439
-0.428564 -0.682703 -0.319439
-0.717842 -0.243040 -0.447215
-0.629551 -0.364560 -0.447215
-0.541259 -0.486080 -0.447215
-0.452968 -0.607600 -0.447215
-0.364676 -0.729120 -0.447215
0.261306 -0.804223 0.191664
0.182339 -0.804223 0.063888
0.103371 -0.804223 -0.063888
0.024404 -0.804223 -0.191664
-0.054563 -0.804223 -0.319439
0.325194 -0.757806 0.063888
0.246226 -0.757806 -0.063888
0.389081 -0.711389 -0.063888
0.167259 -0.757806 -0.191664
0.310114 -0.711389 -0.191664
0.452969 -0.664971 -0.191664
0.088292 -0.757806 -0.319439
0.231147 -0.711389 -0.319439
0.374002 -0.664971 -0.319439
0.516857 -0.618554 -0.319439
0.009325 -0.757806 -0.447215
0.152180 -0.711389 -0.447215
0.295035 -0.664971 -0.447215
0.437890 -0.618554 -0.447215
0.580745 -0.572137 -0.447215
0.845618 -0.000000 0.191664
0.821214 -0.075103 0.063888
0.796811 -0.150206 -0.063888
0.772407 -0.225309 -0.191664
0.748004 -0.300411 -0.319439
0.821214 0.075103 0.063888
0.796811 -0.000000 -0.063888
0.796811 0.150206 -0.063888
0.772407 -0.075103 -0.191664
0.772407 0.075103 -0.191664
0.772407 0.225309 -0.191664
0.748004 -0.150206 -0.319439
0.748004 0.000000 -0.319439
0.748004 0.150206 -0.319439
0.748004 0.300411 -0.319439
0.723600 -0.225309 -0.447215
0.723600 -0.075103 -0.447215
0.723600 0.075103 -0.447215
0.723600 0.225309 -0.447215
0.723600 0.375514 -0.447215
0.620229 0.450617 -0.526184
0.516857 0.375514 -0.605154
0.477374 0.497034 -0.526184
0.413486 0.300411 -0.684123
0.374002 0.421931 -0.605154
0.310114 0.225309 -0.763092
0.270631 0.346829 -0.684123
0.206743 0.150206 -0.842061
0.167259 0.271726 -0.763092
0.063888 0.196623 -0.842061
0.334519 0.543451 -0.526184
0.231147 0.468349 -0.605154
0.191664 0.589869 -0.526184
0.127776 0.393246 -0.684123
0.088292 0.514766 -0.605154
0.048809 0.636286 -0.526184
0.024404 0.318143 -0.763092
-0.015079 0.439663 -0.684123
-0.054563 0.561183 -0.605154
-0.094046 0.682703 -0.526184
-0.078967 0.243040 -0.842061
-0.118451 0.364560 -0.763092
-0.157934 0.486080 -0.684123
-0.197418 0.607600 -0.605154
-0.236901 0.729120 -0.526184
-0.325193 0.607600 -0.526184
-0.285709 0.486080 -0.605154
-0.246226 0.364560 -0.684123
-0.206742 0.243040 -0.763092
-0.167259 0.121520 -0.842061
-0.413484 0.486080 -0.526184
-0.374001 0.364560 -0.605154
-0.501776 0.364560 -0.526184
-0.334517 0.243040 -0.684123
-0.462292 0.243040 -0.605154
-0.590067 0.243040 -0.526184
-0.295034 0.121520 -0.763092
-0.422809 0.121520 -0.684123
-0.550584 0.121520 -0.605154
-0.678359 0.121520 -0.526184
-0.255550 0.000000 -0.842061
-0.383325 0.000000 -0.763092
-0.511100 0.000000 -0.684123
-0.638875 0.000000 -0.605154
-0.766650 0.000000 -0.526184
-0.678359 -0.121520 -0.526184
-0.550584 -0.121520 -0.605154
-0.422809 -0.121520 -0.684123
-0.295034 -0.121520 -0.763092
-0.167259 -0.121520 -0.842061
-0.590067 -0.243040 -0.526184
-0.462292 -0.243040 -0.605154
-0.501776 -0.364560 -0.526184
-0.334517 -0.243040 -0.684123
-0.374001 -0.364560 -0.605154
-0.413484 -0.486080 -0.526184
-0.206742 -0.243040 -0.763092
-0.246226 -0.364560 -0.684123
-0.285709 -0.486080 -0.605154
-0.325193 -0.607600 -0.526184
-0.078967 -0.243040 -0.842061
-0.118451 -0.364560 -0.763092
-0.157934 -0.486080 -0.684123
-0.197418 -0.607600 -0.605154
-0.236901 -0.729120 -0.526184
0.620229 0.300411 -0.526184
0.620229 0.150206 -0.526184
0.620229 -0.000000 -0.526184
0.620229 -0.150206 -0.526184
0.620229 -0.300411 -0.526184
0.516857 0.225309 -0.605154
0.516857 0.075103 -0.605154
0.413486 0.150206 -0.684123
0.516857 -0.075103 -0.605154
0.413486 0.000000 -0.684123
0.310114 0.075103 -0.763092
0.516857 -0.225309 -0.605154
0.413486 -0.150206 -0.684123
0.310114 -0.075103 -0.763092
0.206743 0.000000 -0.842061
0.516857 -0.375514 -0.605154
0.413486 -0.300411 -0.684123
0.310114 -0.225309 -0.763092
0.206743 -0.150206 -0.842061
-0.094046 -0.682703 -0.526184
-0.054563 -0.561183 -0.605154
-0.015079 -0.439663 -0.684123
0.024404 -0.318143 -0.763092
0.063888 -0.196623 -0.842061
0.048809 -0.636286 -0.526184
0.088292 -0.514766 -0.605154
0.191664 -0.589869 -0.526184
0.127776 -0.393246 -0.684123
0.231147 -0.468349 -0.605154
0.334519 -0.543451 -0.526184
0.167259 -0.271726 -0.763092
0.270631 -0.346829 -0.684123
0.374002 -0.421931 -0.605154
0.477374 -0.497034 -0.526184
3 0 1 2
3 3 4 5
3 0 2 6
3 0 6 7
3 0 7 8
3 3 5 9
3 10 11 12
3 13 14 15
3 16 17 18
3 19 20 21
3 3 9 22
3 10 12 23
3 13 15 24
3 16 18 25
3 19 21 26
3 27 28 29
3 30 31 32
3 33 34 35
3 36 37 38
3 39 40 41
3 42 43 44
3 45 46 42
3 47 48 45
3 49 50 47
3 51 52 49
3 41 53 51
3 42 46 43
3 46 54 43
3 45 48 46
3 48 55 46
3 46 55 54
3 55 56 54
3 47 50 48
3 50 57 48
3 48 57 55
3 57 58 55
3 55 58 56
3 58 59 56
3 49 52 50
3 52 60 50
3 50 60 57
3 60 61 57
3 57 61 58
3 61 62 58
3 58 62 59
3 62 63 59
3 51 53 52
3 53 64 52
3 52 64 60
3 64 65 60
3 60 65 61
3 65 66 61
3 61 66 62
3 66 67 62
3 62 67 63
3 67 38 63
3 41 40 53
3 40 68 53
3 53 68 64
3 68 69 64
3 64 69 65
3 69 70 65
3 65 70 66
3 70 71 66
3 66 71 67
3 71 72 67
3 67 72 38
3 72 36 38
3 43 73 44
3 54 74 43
3 56 75 54
3 59 76 56
3 63 77 59
3 38 78 63
3 43 74 73
3 74 79 73
3 54 75 74
3 75 80 74
3 74 80 79
3 80 81 79
3 56 76 75
3 76 82 75
3 75 82 80
3 82 83 80
3 80 83 81
3 83 84 81
3 59 77 76
3 77 85 76
3 76 85 82
3 85 86 82
3 82 86 83
3 86 87 83
3 83 87 84
3 87 88 84
3 63 78 77
3 78 89 77
3 77 89 85
3 89 90 85
3 85 90 86
3 90 91 86
3 86 91 87
3 91 92 87
3 87 92 88
3 92 35 88
3 38 37 78
3 37 93 78
3 78 93 89
3 93 94 89
3 89 94 90
3 94 95 90
3 90 95 91
3 95 96 91
3 91 96 92
3 96 97 92
3 92 97 35
3 97 33 35
3 73 98 44
3 79 99 73
3 81 100 79
3 84 101 81
3 88 102 84
3 35 103 88
3 73 99 98
3 99 104 98
3 79 100 99
3 100 105 99
3 99 105 104
3 105 106 104
3 81 101 100
3 101 107 100
3 100 107 105
3 107 108 105
3 105 108 106
3 108 109 106
3 84 102 101
3 102 110 101
3 101 110 107
3 110 111 107
3 107 111 108
3 111 112 108
3 108 112 109
3 112 113 109
3 88 103 102
3 103 114 102
3 102 114 110
3 114 115 110
3 110 115 111
3 115 116 111
3 111 116 112
3 116 117 112
3 112 117 113
3 117 32 113
3 35 34 103
3 34 118 103
3 103 118 114
3 118 119 114
3 114 119 115
3 119 120 115
3 115 120 116
3 120 121 116
3 116 121 117
3 121 122 117
3 117 122 32
3 122 30 32
3 98 123 44
3 104 124 98
3 106 125 104
3 109 126 106
3 113 127 109
3 32 128 113
3 98 124 123
3 124 129 123
3 104 125 124
3 125 130 124
3 124 130 129
3 130 131 129
3 106 126 125
3 126 132 125
3 125 132 130
3 132 133 130
3 130 133 131
3 133 134 131
3 109 127 126
3 127 135 126
3 126 135 132
3 135 136 132
3 132 136 133
3 136 137 133
3 133 137 134
3 137 138 134
3 113 128 127
3 128 139 127
3 127 139 135
3 139 140 135
3 135 140 136
3 140 141 136
3 136 141 137
3 141 142 137
3 137 142 138
3 142 29 138
3 32 31 128
3 31 143 128
3 128 143 139
3 143 144 139
3 139 144 140
3 144 145 140
3 140 145 141
3 145 146 141
3 141 146 142
3 146 147 142
3 142 147 29
3 147 27 29
3 123 42 44
3 129 148 123
3 131 149 129
3 134 150 131
3 138 151 134
3 29 152 138
3 123 148 42
3 148 45 42
3 129 149 148
3 149 153 148
3 148 153 45
3 153 47 45
3 131 150 149
3 150 154 149
3 149 154 153
3 154 155 153
3 153 155 47
3 155 49 47
3 134 151 150
3 151 156 150
3 150 156 154
3 156 157 154
3 154 157 155
3 157 158 155
3 155 158 49
3 158 51 49
3 138 152 151
3 152 159 151
3 151 159 156
3 159 160 156
3 156 160 157
3 160 161 157
3 157 161 158
3 161 162 158
3 158 162 51
3 162 41 51
3 29 28 152
3 28 163 152
3 152 163 159
3 163 164 159
3 159 164 160
3 164 165 160
3 160 165 161
3 165 166 161
3 161 166 162
3 166 167 162
3 162 167 41
3 167 39 41
3 168 40 39
3 169 170 168
3 171 172 169
3 173 174 171
3 175 176 173
3 26 177 175
3 168 170 40
3 170 68 40
3 169 172 170
3 172 178 170
3 170 178 68
3 178 69 68
3 171 174 172
3 174 179 172
3 172 179 178
3 179 180 178
3 178 180 69
3 180 70 69
3 173 176 174
3 176 181 174
3 174 181 179
3 181 182 179
3 179 182 180
3 182 183 180
3 180 183 70
3 183 71 70
3 175 177 176
3 177 184 176
3 176 184 181
3 184 185 181
3 181 185 182
3 185 186 182
3 182 186 183
3 186 187 183
3 183 187 71
3 187 72 71
3 26 21 177
3 21 188 177
3 177 188 184
3 188 189 184
3 184 189 185
3 189 190 185
3 185 190 186
3 190 191 186
3 186 191 187
3 191 192 187
3 187 192 72
3 192 36 72
3 193 37 36
3 194 195 193
3 196 197 194
3 198 199 196
3 200 201 198
3 25 202 200
3 193 195 37
3 195 93 37
3 194 197 195
3 197 203 195
3 195 203 93
3 203 94 93
3 196 199 197
3 199 204 197
3 197 204 203
3 204 205 203
3 203 205 94
3 205 95 94
3 198 201 199
3 201 206 199
3 199 206 204
3 206 207 204
3 204 207 205
3 207 208 205
3 205 208 95
3 208 96 95
3 200 202 201
3 202 209 201
3 201 209 206
3 209 210 206
3 206 210 207
3 210 211 207
3 207 211 208
3 211 212 208
3 208 212 96
3 212 97 96
3 25 18 202
3 18 213 202
3 202 213 209
3 213 214 209
3 209 214 210
3 214 215 210
3 210 215 211
3 215 216 211
3 211 216 212
3 216 217 212
3 212 217 97
3 217 33 97
3 218 34 33
3 219 220 218
3 221 222 219
3 223 224 221
3 225 226 223
3 24 227 225
3 218 220 34
3 220 118 34
3 219 222 220
3 222 228 220
3 220 228 118
3 228 119 118
3 221 224 222
3 224 229 222
3 222 229 228
3 229 230 228
3 228 230 119
3 230 120 119
3 223 226 224
3 226 231 224
3 224 231 229
3 231 232 229
3 229 232 230
3 232 233 230
3 230 233 120
3 233 121 120
3 225 227 226
3 227 234 226
3 226 234 231
3 234 235 231
3 231 235 232
3 235 236 232
3 232 236 233
3 236 237 233
3 233 237 121
3 237 122 121
3 24 15 227
3 15 238 227
3 227 238 234
3 238 239 234
3 234 239 235
3 239 240 235
3 235 240 236
3 240 241 236
3 236 241 237
3 241 242 237
3 237 242 122
3 242 30 122
3 243 31 30
3 244 245 243
3 246 247 244
3 248 249 246
3 250 251 248
3 23 252 250
3 243 245 31
3 245 143 31
3 244 247 245
3 247 253 245
3 245 253 143
3 253 144 143
3 246 249 247
3 249 254 247
3 247 254 253
3 254 255 253
3 253 255 144
3 255 145 144
3 248 251 249
3 251 256 249
3 249 256 254
3 256 257 254
3 254 257 255
3 257 258 255
3 255 258 145
3 258 146 145
3 250 252 251
3 252 259 251
3 251 259 256
3 259 260 256
3 256 260 257
3 260 261 257
3 257 261 258
3 261 262 258
3 258 262 146
3 262 147 146
3 23 12 252
3 12 263 252
3 252 263 259
3 263 264 259
3 259 264 260
3 264 265 260
3 260 265 261
3 265 266 261
3 261 266 262
3 266 267 262
3 262 267 147
3 267 27 147
3 268 28 27
3 269 270 268
3 271 272 269
3 273 274 271
3 275 276 273
3 22 277 275
3 268 270 28
3 270 163 28
3 269 272 270
3 272 278 270
3 270 278 163
3 278 164 163
3 271 274 272
3 274 279 272
3 272 279 278
3 279 280 278
3 278 280 164
3 280 165 164
3 273 276 274
3 276 281 274
3 274 281 279
3 281 282 279
3 279 282 280
3 282 283 280
3 280 283 165
3 283 166 165
3 275 277 276
3 277 284 276
3 276 284 281
3 284 285 281
3 281 285 282
3 285 286 282
3 282 286 283
3 286 287 283
3 283 287 166
3 287 167 166
3 22 9 277
3 9 288 277
3 277 288 284
3 288 289 284
3 284 289 285
3 289 290 285
3 285 290 286
3 290 291 286
3 286 291 287
3 291 292 287
3 287 292 167
3 292 39 167
3 192 193 36
3 191 293 192
3 190 294 191
3 189 295 190
3 188 296 189
3 21 297 188
3 192 293 193
3 293 194 193
3 191 294 293
3 294 298 293
3 293 298 194
3 298 196 194
3 190 295 294
3 295 299 294
3 294 299 298
3 299 300 298
3 298 300 196
3 300 198 196
3 189 296 295
3 296 301 295
3 295 301 299
3 301 302 299
3 299 302 300
3 302 303 300
3 300 303 198
3 303 200 198
3 188 297 296
3 297 304 296
3 296 304 301
3 304 305 301
3 301 305 302
3 305 306 302
3 302 306 303
3 306 307 303
3 303 307 200
3 307 25 200
3 21 20 297
3 20 308 297
3 297 308 304
3 308 309 304
3 304 309 305
3 309 310 305
3 305 310 306
3 310 311 306
3 306 311 307
3 311 312 307
3 307 312 25
3 312 16 25
3 217 218 33
3 216 313 217
3 215 314 216
3 214 315 215
3 213 316 214
3 18 317 213
3 217 313 218
3 313 219 218
3 216 314 313
3 314 318 313
3 313 318 219
3 318 221 219
3 215 315 314
3 315 319 314
3 314 319 318
3 319 320 318
3 318 320 221
3 320 223 221
3 214 316 315
3 316 321 315
3 315 321 319
3 321 322 319
3 319 322 320
3 322 323 320
3 320 323 223
3 323 225 223
3 213 317 316
3 317 324 316
3 316 324 321
3 324 325 321
3 321 325 322
3 325 326 322
3 322 326 323
3 326 327 323
3 323 327 225
3 327 24 225
3 18 17 317
3 17 328 317
3 317 328 324
3 328 329 324
3 324 329 325
3 329 330 325
3 325 330 326
3 330 331 326
3 326 331 327
3 331 332 327
3 327 332 24
3 332 13 24
3 242 243 30
3 241 333 242
3 240 334 241
3 239 335 240
3 238 336 239
3 15 337 238
3 242 333 243
3 333 244 243
3 241 334 333
3 334 338 333
3 333 338 244
3 338 246 244
3 240 335 334
3 335 339 334
3 334 339 338
3 339 340 338
3 338 340 246
3 340 248 246
3 239 336 335
3 336 341 335
3 335 341 339
3 341 342 339
3 339 342 340
3 342 343 340
3 340 343 248
3 343 250 248
3 238 337 336
3 337 344 336
3 336 344 341
3 344 345 341
3 341 345 342
3 345 346 342
3 342 346 343
3 346 347 343
3 343 347 250
3 347 23 250
3 15 14 337
3 14 348 337
3 337 348 344
3 348 349 344
3 344 349 345
3 349 350 345
3 345 350 346
3 350 351 346
3 346 351 347
3 351 352 347
3 347 352 23
3 352 10 23
3 267 268 27
3 266 353 267
3 265 354 266
3 264 355 265
3 263 356 264
3 12 357 263
3 267 353 268
3 353 269 268
3 266 354 353
3 354 358 353
3 353 358 269
3 358 271 269
3 265 355 354
3 355 359 354
3 354 359 358
3 359 360 358
3 358 360 271
3 360 273 271
3 264 356 355
3 356 361 355
3 355 361 359
3 361 362 359
3 359 362 360
3 362 363 360
3 360 363 273
3 363 275 273
3 263 357 356
3 357 364 356
3 356 364 361
3 364 365 361
3 361 365 362
3 365 366 362
3 362 366 363
3 366 367 363
3 363 367 275
3 367 22 275
3 12 11 357
3 11 368 357
3 357 368 364
3 368 369 364
3 364 369 365
3 369 370 365
3 365 370 366
3 370 371 366
3 366 371 367
3 371 372 367
3 367 372 22
3 372 3 22
3 292 168 39
3 291 373 292
3 290 374 291
3 289 375 290
3 288 376 289
3 9 377 288
3 292 373 168
3 373 169 168
3 291 374 373
3 374 378 373
3 373 378 169
3 378 171 169
3 290 375 374
3 375 379 374
3 374 379 378
3 379 380 378
3 378 380 171
3 380 173 171
3 289 376 375
3 376 381 375
3 375 381 379
3 381 382 379
3 379 382 380
3 382 383 380
3 380 383 173
3 383 175 173
3 288 377 376
3 377 384 376
3 376 384 381
3 384 385 381
3 381 385 382
3 385 386 382
3 382 386 383
3 386 387 383
3 383 387 175
3 387 26 175
3 9 5 377
3 5 388 377
3 377 388 384
3 388 389 384
3 384 389 385
3 389 390 385
3 385 390 386
3 390 391 386
3 386 391 387
3 391 392 387
3 387 392 26
3 392 19 26
3 393 20 19
3 394 395 393
3 396 397 394
3 398 399 396
3 400 401 398
3 8 402 400
3 393 395 20
3 395 308 20
3 394 397 395
3 397 403 395
3 395 403 308
3 403 309 308
3 396 399 397
3 399 404 397
3 397 404 403
3 404 405 403
3 403 405 309
3 405 310 309
3 398 401 399
3 401 406 399
3 399 406 404
3 406 407 404
3 404 407 405
3 407 408 405
3 405 408 310
3 408 311 310
3 400 402 401
3 402 409 401
3 401 409 406
3 409 410 406
3 406 410 407
3 410 411 407
3 407 411 408
3 411 412 408
3 408 412 311
3 412 312 311
3 8 7 402
3 7 413 402
3 402 413 409
3 413 414 409
3 409 414 410
3 414 415 410
3 410 415 411
3 415 416 411
3 411 416 412
3 416 417 412
3 412 417 312
3 417 16 312
3 417 17 16
3 416 418 417
3 415 419 416
3 414 420 415
3 413 421 414
3 7 422 413
3 417 418 17
3 418 328 17
3 416 419 418
3 419 423 418
3 418 423 328
3 423 329 328
3 415 420 419
3 420 424 419
3 419 424 423
3 424 425 423
3 423 425 329
3 425 330 329
3 414 421 420
3 421 426 420
3 420 426 424
3 426 427 424
3 424 427 425
3 427 428 425
3 425 428 330
3 428 331 330
3 413 422 421
3 422 429 421
3 421 429 426
3 429 430 426
3 426 430 427
3 430 431 427
3 427 431 428
3 431 432 428
3 428 432 331
3 432 332 331
3 7 6 422
3 6 433 422
3 422 433 429
3 433 434 429
3 429 434 430
3 434 435 430
3 430 435 431
3 435 436 431
3 431 436 432
3 436 437 432
3 432 437 332
3 437 13 332
3 437 14 13
3 436 438 437
3 435 439 436
3 434 440 435
3 433 441 434
3 6 442 433
3 437 438 14
3 438 348 14
3 436 439 438
3 439 443 438
3 438 443 348
3 443 349 348
3 435 440 439
3 440 444 439
3 439 444 443
3 444 445 443
3 443 445 349
3 445 350 349
3 434 441 440
3 441 446 440
3 440 446 444
3 446 447 444
3 444 447 445
3 447 448 445
3 445 448 350
3 448 351 350
3 433 442 441
3 442 449 441
3 441 449 446
3 449 450 446
3 446 450 447
3 450 451 447
3 447 451 448
3 451 452 448
3 448 452 351
3 452 352 351
3 6 2 442
3 2 453 442
3 442 453 449
3 453 454 449
3 449 454 450
3 454 455 450
3 450 455 451
3 455 456 451
3 451 456 452
3 456 457 452
3 452 457 352
3 457 10 352
3 392 393 19
3 391 458 392
3 390 459 391
3 389 460 390
3 388 461 389
3 5 462 388
3 392 458 393
3 458 394 393
3 391 459 458
3 459 463 458
3 458 463 394
3 463 396 394
3 390 460 459
3 460 464 459
3 459 464 463
3 464 465 463
3 463 465 396
3 465 398 396
3 389 461 460
3 461 466 460
3 460 466 464
3 466 467 464
3 464 467 465
3 467 468 465
3 465 468 398
3 468 400 398
3 388 462 461
3 462 469 461
3 461 469 466
3 469 470 466
3 466 470 467
3 470 471 467
3 467 471 468
3 471 472 468
3 468 472 400
3 472 8 400
3 5 4 462
3 4 473 462
3 462 473 469
3 473 474 469
3 469 474 470
3 474 475 470
3 470 475 471
3 475 476 471
3 471 476 472
3 476 1 472
3 472 1 8
3 1 0 8
3 457 11 10
3 456 477 457
3 455 478 456
3 454 479 455
3 453 480 454
3 2 481 453
3 457 477 11
3 477 368 11
3 456 478 477
3 478 482 477
3 477 482 368
3 482 369 368
3 455 479 478
3 479 483 478
3 478 483 482
3 483 484 482
3 482 484 369
3 484 370 369
3 454 480 479
3 480 485 479
3 479 485 483
3 485 486 483
3 483 486 484
3 486 487 484
3 484 487 370
3 487 371 370
3 453 481 480
3 481 488 480
3 480 488 485
3 488 489 485
3 485 489 486
3 489 490 486
3 486 490 487
3 490 491 487
3 487 491 371
3 491 372 371
3 2 1 481
3 1 476 481
3 481 476 488
3 476 475 488
3 488 475 489
3 475 474 489
3 489 474 490
3 474 473 490
3 490 473 491
3 473 4 491
3 491 4 372
3 4 3 372
