ply
format ascii 1.0
comment Created by Blender 2.76 (sub 0) - www.blender.org, source file: ''
element vertex 642
property float x
property float y
property float z
element face 1280
property list uchar uint vertex_indices
end_header
0.000000 0.000000 -1.000000
0.106331 -0.077253 -0.962664
-0.040614 -0.124999 -0.962664
0.723607 -0.525725 -0.447220
0.649036 -0.471547 -0.548078
0.755368 -0.394294 -0.466849
-0.131432 0.000000 -0.962663
-0.040614 0.124999 -0.962664
0.106331 0.077253 -0.962664
0.780470 -0.471547 -0.335415
-0.276388 -0.850649 -0.447220
-0.141574 -0.840240 -0.466849
-0.207291 -0.887987 -0.335415
-0.894426 0.000000 -0.447216
-0.842867 -0.124999 -0.466846
-0.908584 -0.077253 -0.335412
-0.276388 0.850649 -0.447220
-0.379338 0.762986 -0.466849
-0.354237 0.840241 -0.335415
0.723607 0.525725 -0.447220
0.608423 0.596547 -0.466849
0.689652 0.596548 -0.335415
0.689652 -0.596548 -0.335415
-0.354237 -0.840241 -0.335415
-0.908584 0.077253 -0.335412
-0.207291 0.887987 -0.335415
0.780470 0.471547 -0.335415
0.276388 -0.850649 0.447220
0.379338 -0.762986 0.466849
0.247905 -0.762986 0.548079
-0.723607 -0.525725 0.447220
-0.608423 -0.596547 0.466849
-0.649036 -0.471547 0.548078
-0.723607 0.525725 0.447220
-0.755368 0.394294 0.466849
-0.649036 0.471547 0.548078
0.276388 0.850649 0.447220
0.141574 0.840240 0.466849
0.247905 0.762986 0.548079
0.894426 0.000000 0.447216
0.842867 0.124999 0.466846
0.802252 0.000000 0.548075
0.525730 0.000000 0.850652
0.434911 0.124999 0.850652
0.394297 0.000000 0.887989
0.566345 0.124999 0.769423
0.688189 0.499997 0.525736
0.585239 0.587660 0.506107
0.556756 0.499996 0.606966
0.162456 0.499995 0.850654
0.015511 0.452249 0.850654
0.121842 0.374996 0.887991
0.056124 0.577249 0.769425
-0.262869 0.809012 0.525738
-0.378053 0.738190 0.506108
-0.303482 0.684012 0.606967
-0.425323 0.309011 0.850654
-0.425323 0.154506 0.850654
-0.318992 0.231759 0.887991
-0.531654 0.231759 0.769425
-0.850648 0.000000 0.525736
-0.818888 -0.131431 0.506107
-0.744317 -0.077253 0.606965
-0.425323 -0.309011 0.850654
-0.278378 -0.356757 0.850654
-0.318992 -0.231759 0.887991
-0.384709 -0.434011 0.769425
-0.262869 -0.809012 0.525738
-0.128055 -0.819421 0.506108
-0.156538 -0.731758 0.606967
0.162456 -0.499995 0.850654
0.253274 -0.374996 0.850654
0.121842 -0.374996 0.887991
0.293889 -0.499996 0.769425
0.688189 -0.499997 0.525736
0.739749 -0.374998 0.506106
0.647574 -0.374998 0.606965
0.951058 0.309013 0.000000
0.885341 0.356759 0.131434
0.936900 0.231759 0.111804
0.860240 0.434014 0.000000
0.587786 0.809017 0.000000
0.509936 0.819425 0.111805
0.612887 0.731762 0.131434
0.000000 1.000000 0.000000
-0.065717 0.952253 0.131434
0.069097 0.962662 0.111805
-0.146946 0.952254 0.000000
-0.587786 0.809017 0.000000
-0.621741 0.738194 0.111805
-0.506556 0.809015 0.131434
-0.951058 0.309013 0.000000
-0.925955 0.231759 0.131434
-0.894195 0.363191 0.111805
-0.951058 0.154506 0.000000
-0.951058 -0.309013 0.000000
-0.894195 -0.363191 0.111805
-0.925955 -0.231759 0.131434
-0.587786 -0.809017 0.000000
-0.506556 -0.809015 0.131434
-0.621741 -0.738194 0.111805
-0.440839 -0.856763 0.000000
0.000000 -1.000000 0.000000
0.069097 -0.962662 0.111805
-0.065717 -0.952253 0.131434
0.587786 -0.809017 0.000000
0.612887 -0.731762 0.131434
0.509936 -0.819425 0.111805
0.678604 -0.684016 0.000000
0.951058 -0.309013 0.000000
0.936900 -0.231759 0.111804
0.885341 -0.356759 0.131434
0.440839 0.856763 0.000000
0.506556 0.809015 -0.131434
0.262869 0.809012 -0.525738
0.128055 0.819421 -0.506108
0.197152 0.856759 -0.394303
-0.678604 0.684016 0.000000
-0.612887 0.731762 -0.131434
-0.688189 0.499997 -0.525736
-0.739749 0.374998 -0.506106
-0.753906 0.452251 -0.394302
-0.860240 -0.434014 0.000000
-0.885341 -0.356759 -0.131434
-0.688189 -0.499997 -0.525736
-0.585239 -0.587660 -0.506107
-0.663088 -0.577252 -0.394302
0.146946 -0.952254 0.000000
0.065717 -0.952253 -0.131434
0.262869 -0.809012 -0.525738
0.378053 -0.738190 -0.506108
0.344098 -0.809013 -0.394303
0.951058 -0.154506 0.000000
0.925955 -0.231759 -0.131434
0.850648 0.000000 -0.525736
0.818888 0.131431 -0.506107
0.875750 0.077253 -0.394302
0.425323 0.309011 -0.850654
0.384709 0.434011 -0.769425
0.499894 0.363190 -0.749796
0.278378 0.356757 -0.850654
-0.162456 0.499995 -0.850654
-0.190939 0.587659 -0.749796
-0.056124 0.577249 -0.769425
-0.293889 0.499996 -0.769425
-0.253274 0.374996 -0.850654
-0.525730 0.000000 -0.850652
-0.617904 0.000000 -0.749793
-0.566345 0.124999 -0.769423
-0.566345 -0.124999 -0.769423
-0.434911 -0.124999 -0.850652
-0.162456 -0.499995 -0.850654
-0.190939 -0.587659 -0.749796
-0.293889 -0.499996 -0.769425
0.744317 0.077253 -0.606965
0.744317 -0.077253 -0.606965
0.425323 -0.309011 -0.850654
0.318992 -0.231759 -0.887991
0.425323 -0.154506 -0.850654
-0.056124 -0.577249 -0.769425
-0.015511 -0.452249 -0.850654
0.499894 -0.363190 -0.749796
0.384709 -0.434011 -0.769425
0.344096 -0.559012 -0.688196
0.418667 -0.613190 -0.587337
0.303482 -0.684012 -0.606967
0.459280 -0.488190 -0.668566
0.574465 -0.417368 -0.648937
0.533852 -0.542368 -0.567708
0.050207 -0.654504 -0.688196
0.197151 -0.606758 -0.688196
0.156538 -0.731758 -0.606967
0.090820 -0.529503 -0.769425
0.131434 -0.404503 -0.850654
0.278378 -0.356757 -0.850654
0.237765 -0.481757 -0.769425
-0.219422 -0.675322 -0.648937
-0.113091 -0.752576 -0.567708
-0.247905 -0.762986 -0.548078
-0.084608 -0.664913 -0.668567
0.021724 -0.742167 -0.587337
0.425323 0.000000 -0.850654
0.318992 0.077253 -0.887991
0.425323 0.154506 -0.850654
0.318992 -0.077253 -0.887991
0.212661 -0.154506 -0.925327
0.212661 0.000000 -0.925327
0.637985 0.154506 -0.688195
0.531654 0.077253 -0.769425
0.531654 0.231759 -0.769425
0.637985 0.000000 -0.688195
0.637985 -0.154506 -0.688195
0.531654 -0.231759 -0.769425
0.531654 -0.077253 -0.769425
0.787128 0.262863 -0.486478
0.680796 0.340116 -0.567707
0.755368 0.394294 -0.466849
0.712556 0.208684 -0.587336
0.606225 0.285937 -0.668566
-0.425322 -0.499996 -0.688195
-0.453806 -0.587660 -0.587337
-0.556756 -0.499996 -0.606966
-0.322372 -0.587659 -0.668566
-0.350855 -0.675323 -0.567708
-0.606960 -0.249998 -0.688194
-0.516141 -0.374997 -0.688195
-0.647574 -0.374998 -0.606965
-0.475526 -0.249998 -0.769423
-0.344093 -0.249998 -0.850653
-0.253274 -0.374996 -0.850654
-0.384708 -0.374997 -0.769424
-0.710078 0.000000 -0.648934
-0.750693 -0.124999 -0.567705
-0.802252 0.000000 -0.548075
-0.658519 -0.124999 -0.668564
-0.699134 -0.249998 -0.587335
-0.606960 0.249998 -0.688194
-0.699134 0.249998 -0.587335
-0.647574 0.374998 -0.606965
-0.658519 0.124999 -0.668564
-0.750693 0.124999 -0.567705
-0.425322 0.499996 -0.688195
-0.516141 0.374997 -0.688195
-0.556756 0.499996 -0.606966
-0.384708 0.374997 -0.769424
-0.344093 0.249998 -0.850653
-0.434911 0.124999 -0.850652
-0.475526 0.249998 -0.769423
-0.219422 0.675322 -0.648937
-0.350855 0.675323 -0.567708
-0.247905 0.762986 -0.548078
-0.322372 0.587659 -0.668566
-0.453806 0.587660 -0.587337
0.050207 0.654504 -0.688196
0.021724 0.742167 -0.587337
0.156538 0.731758 -0.606967
-0.084608 0.664913 -0.668567
-0.113091 0.752576 -0.567708
0.344096 0.559012 -0.688196
0.197151 0.606758 -0.688196
0.303482 0.684012 -0.606967
0.237765 0.481757 -0.769425
0.131434 0.404503 -0.850654
-0.015511 0.452249 -0.850654
0.090820 0.529503 -0.769425
0.574465 0.417368 -0.648937
0.533852 0.542368 -0.567708
0.649036 0.471547 -0.548078
0.459280 0.488190 -0.668566
0.418667 0.613190 -0.587337
0.900853 0.154506 -0.262868
0.869093 0.285938 -0.243239
0.925955 0.231759 -0.131434
0.843990 0.208685 -0.374673
0.812230 0.340116 -0.355044
0.951058 0.000000 0.000000
0.925955 0.077253 -0.131434
0.951058 0.154506 0.000000
0.925955 -0.077253 -0.131434
0.900853 -0.154506 -0.262868
0.875750 -0.077253 -0.394302
0.900853 0.000000 -0.262868
0.922742 -0.154506 0.223608
0.922742 0.000000 0.223608
0.908584 -0.077253 0.335412
0.936900 -0.077253 0.111804
0.936900 0.077253 0.111804
0.425327 -0.809014 -0.262869
0.540512 -0.738193 -0.243239
0.506556 -0.809015 -0.131434
0.459283 -0.738191 -0.374674
0.493238 -0.667369 -0.486479
0.608423 -0.596547 -0.466849
0.574467 -0.667370 -0.355044
0.293893 -0.904508 0.000000
0.359610 -0.856761 -0.131434
0.440839 -0.856763 0.000000
0.212664 -0.904507 -0.131434
0.131434 -0.904506 -0.262869
0.197152 -0.856759 -0.394303
0.278381 -0.856760 -0.262869
0.138194 -0.925325 0.223610
0.285140 -0.877579 0.223610
0.207291 -0.887987 0.335415
0.216043 -0.914917 0.111805
0.362990 -0.867171 0.111805
-0.637987 -0.654507 -0.262868
-0.535037 -0.742170 -0.243239
-0.612887 -0.731762 -0.131434
-0.560138 -0.664915 -0.374673
-0.482289 -0.675323 -0.486478
-0.379338 -0.762986 -0.466849
-0.457188 -0.752578 -0.355044
-0.769422 -0.559015 0.000000
-0.703705 -0.606761 -0.131434
-0.678604 -0.684016 0.000000
-0.794523 -0.481760 -0.131434
-0.819624 -0.404505 -0.262868
-0.753906 -0.452251 -0.394302
-0.728806 -0.529506 -0.262868
-0.837333 -0.417369 0.223610
-0.746515 -0.542370 0.223610
-0.780470 -0.471547 0.335415
-0.803377 -0.488192 0.111805
-0.712559 -0.613193 0.111805
-0.819624 0.404505 -0.262868
-0.871183 0.279506 -0.243238
-0.885341 0.356759 -0.131434
-0.805466 0.327252 -0.374672
-0.791308 0.249998 -0.486476
-0.842867 0.124999 -0.466846
-0.857025 0.202252 -0.355042
-0.769422 0.559015 0.000000
-0.794523 0.481760 -0.131434
-0.860240 0.434014 0.000000
-0.703705 0.606761 -0.131434
-0.637987 0.654507 -0.262868
-0.663088 0.577252 -0.394302
-0.728806 0.529506 -0.262868
-0.655697 0.667371 0.223610
-0.746515 0.542370 0.223610
-0.689652 0.596548 0.335415
-0.712559 0.613193 0.111805
-0.803377 0.488192 0.111805
0.131434 0.904506 -0.262869
-0.003380 0.914915 -0.243239
0.065717 0.952253 -0.131434
0.062337 0.867168 -0.374674
-0.006760 0.829831 -0.486479
-0.141574 0.840240 -0.466849
-0.072477 0.877578 -0.355044
0.293893 0.904508 0.000000
0.212664 0.904507 -0.131434
0.146946 0.952254 0.000000
0.359610 0.856761 -0.131434
0.425327 0.809014 -0.262869
0.344098 0.809013 -0.394303
0.278381 0.856760 -0.262869
0.432087 0.829833 0.223610
0.285140 0.877579 0.223610
0.354237 0.840241 0.335415
0.362990 0.867171 0.111805
0.216043 0.914917 0.111805
0.819624 -0.404505 0.262868
0.805466 -0.327252 0.374672
0.753906 -0.452251 0.394302
0.871183 -0.279506 0.243238
0.857025 -0.202252 0.355042
0.637987 -0.654507 0.262868
0.728806 -0.529506 0.262868
0.663088 -0.577252 0.394302
0.703705 -0.606761 0.131434
0.769422 -0.559015 0.000000
0.860240 -0.434014 0.000000
0.794523 -0.481760 0.131434
0.432087 -0.829833 0.223610
0.457188 -0.752578 0.355044
0.354237 -0.840241 0.335415
0.535037 -0.742170 0.243239
0.560138 -0.664915 0.374673
-0.131434 -0.904506 0.262869
-0.062337 -0.867168 0.374674
-0.197152 -0.856759 0.394303
0.003380 -0.914915 0.243239
0.072477 -0.877578 0.355044
-0.425327 -0.809014 0.262869
-0.278381 -0.856760 0.262869
-0.344098 -0.809013 0.394303
-0.359610 -0.856761 0.131434
-0.293893 -0.904508 0.000000
-0.146946 -0.952254 0.000000
-0.212664 -0.904507 0.131434
-0.655697 -0.667371 0.223610
-0.574467 -0.667370 0.355044
-0.689652 -0.596548 0.335415
-0.540512 -0.738193 0.243239
-0.459283 -0.738191 0.374674
-0.900853 -0.154506 0.262868
-0.843990 -0.208685 0.374673
-0.875750 -0.077253 0.394302
-0.869093 -0.285938 0.243239
-0.812230 -0.340116 0.355044
-0.900853 0.154506 0.262868
-0.900853 0.000000 0.262868
-0.875750 0.077253 0.394302
-0.925955 0.077253 0.131434
-0.951058 0.000000 0.000000
-0.951058 -0.154506 0.000000
-0.925955 -0.077253 0.131434
-0.837333 0.417369 0.223610
-0.812230 0.340116 0.355044
-0.780470 0.471547 0.335415
-0.869093 0.285938 0.243239
-0.843990 0.208685 0.374673
-0.425327 0.809014 0.262869
-0.459283 0.738191 0.374674
-0.344098 0.809013 0.394303
-0.540512 0.738193 0.243239
-0.574467 0.667370 0.355044
-0.131434 0.904506 0.262869
-0.278381 0.856760 0.262869
-0.197152 0.856759 0.394303
-0.212664 0.904507 0.131434
-0.293893 0.904508 0.000000
-0.440839 0.856763 0.000000
-0.359610 0.856761 0.131434
0.138194 0.925325 0.223610
0.072477 0.877578 0.355044
0.207291 0.887987 0.335415
0.003380 0.914915 0.243239
-0.062337 0.867168 0.374674
0.637987 0.654507 0.262868
0.560138 0.664915 0.374673
0.663088 0.577252 0.394302
0.535037 0.742170 0.243239
0.457188 0.752578 0.355044
0.819624 0.404505 0.262868
0.728806 0.529506 0.262868
0.753906 0.452251 0.394302
0.794523 0.481760 0.131434
0.769422 0.559015 0.000000
0.678604 0.684016 0.000000
0.703705 0.606761 0.131434
0.922742 0.154506 0.223608
0.857025 0.202252 0.355042
0.908584 0.077253 0.335412
0.871183 0.279506 0.243238
0.805466 0.327252 0.374672
0.606960 -0.249998 0.688194
0.658519 -0.124999 0.668564
0.566345 -0.124999 0.769423
0.699134 -0.249998 0.587335
0.791308 -0.249998 0.486476
0.842867 -0.124999 0.466846
0.750693 -0.124999 0.567705
0.344093 -0.249998 0.850653
0.475526 -0.249998 0.769423
0.434911 -0.124999 0.850652
0.384708 -0.374997 0.769424
0.425322 -0.499996 0.688195
0.556756 -0.499996 0.606966
0.516141 -0.374997 0.688195
0.081228 -0.249998 0.925327
0.172046 -0.124999 0.925327
0.040614 -0.124999 0.962664
0.212660 -0.249998 0.887990
0.303479 -0.124999 0.887989
-0.050207 -0.654504 0.688196
0.084608 -0.664913 0.668567
0.056124 -0.577249 0.769425
-0.021724 -0.742167 0.587337
0.006760 -0.829831 0.486479
0.141574 -0.840240 0.466849
0.113091 -0.752576 0.567708
-0.131434 -0.404503 0.850654
-0.090820 -0.529503 0.769425
0.015511 -0.452249 0.850654
-0.237765 -0.481757 0.769425
-0.344096 -0.559012 0.688196
-0.303482 -0.684012 0.606967
-0.197151 -0.606758 0.688196
-0.212661 -0.154506 0.925327
-0.065717 -0.202252 0.925327
-0.106331 -0.077253 0.962664
-0.172047 -0.279505 0.887991
-0.025103 -0.327251 0.887991
-0.637985 -0.154506 0.688195
-0.606225 -0.285937 0.668566
-0.531654 -0.231759 0.769425
-0.712556 -0.208684 0.587336
-0.787128 -0.262863 0.486478
-0.755368 -0.394294 0.466849
-0.680796 -0.340116 0.567707
-0.425323 0.000000 0.850654
-0.531654 -0.077253 0.769425
-0.425323 -0.154506 0.850654
-0.531654 0.077253 0.769425
-0.637985 0.154506 0.688195
-0.744317 0.077253 0.606965
-0.637985 0.000000 0.688195
-0.212661 0.154506 0.925327
-0.212661 0.000000 0.925327
-0.106331 0.077253 0.962664
-0.318992 0.077253 0.887991
-0.318992 -0.077253 0.887991
-0.344096 0.559012 0.688196
-0.459280 0.488190 0.668566
-0.384709 0.434011 0.769425
-0.418667 0.613190 0.587337
-0.493238 0.667369 0.486479
-0.608423 0.596547 0.466849
-0.533852 0.542368 0.567708
-0.131434 0.404503 0.850654
-0.237765 0.481757 0.769425
-0.278378 0.356757 0.850654
-0.090820 0.529503 0.769425
-0.050207 0.654504 0.688196
-0.156538 0.731758 0.606967
-0.197151 0.606758 0.688196
0.081228 0.249998 0.925327
-0.065717 0.202252 0.925327
0.040614 0.124999 0.962664
-0.025103 0.327251 0.887991
-0.172047 0.279505 0.887991
0.425322 0.499996 0.688195
0.322372 0.587659 0.668566
0.293889 0.499996 0.769425
0.453806 0.587660 0.587337
0.482289 0.675323 0.486478
0.379338 0.762986 0.466849
0.350855 0.675323 0.567708
0.344093 0.249998 0.850653
0.384708 0.374997 0.769424
0.253274 0.374996 0.850654
0.475526 0.249998 0.769423
0.606960 0.249998 0.688194
0.647574 0.374998 0.606965
0.516141 0.374997 0.688195
0.262865 0.000000 0.925326
0.172046 0.124999 0.925327
0.131432 0.000000 0.962663
0.303479 0.124999 0.887989
0.212660 0.249998 0.887990
0.710078 0.000000 0.648934
0.658519 0.124999 0.668564
0.617904 0.000000 0.749793
0.750693 0.124999 0.567705
0.791308 0.249998 0.486476
0.739749 0.374998 0.506106
0.699134 0.249998 0.587335
0.219422 0.675322 0.648937
0.084608 0.664913 0.668567
0.190939 0.587659 0.749796
0.113091 0.752576 0.567708
0.006760 0.829831 0.486479
-0.128055 0.819421 0.506108
-0.021724 0.742167 0.587337
-0.574465 0.417368 0.648937
-0.606225 0.285937 0.668566
-0.499894 0.363190 0.749796
-0.680796 0.340116 0.567707
-0.787128 0.262863 0.486478
-0.818888 0.131431 0.506107
-0.712556 0.208684 0.587336
-0.574465 -0.417368 0.648937
-0.459280 -0.488190 0.668566
-0.499894 -0.363190 0.749796
-0.533852 -0.542368 0.567708
-0.493238 -0.667369 0.486479
-0.378053 -0.738190 0.506108
-0.418667 -0.613190 0.587337
0.219422 -0.675322 0.648937
0.322372 -0.587659 0.668566
0.190939 -0.587659 0.749796
0.350855 -0.675323 0.567708
0.482289 -0.675323 0.486478
0.585239 -0.587660 0.506107
0.453806 -0.587660 0.587337
0.837333 0.417369 -0.223610
0.803377 0.488192 -0.111805
0.894195 0.363191 -0.111805
0.746515 0.542370 -0.223610
0.655697 0.667371 -0.223610
0.621741 0.738194 -0.111805
0.712559 0.613193 -0.111805
-0.138194 0.925325 -0.223610
-0.216043 0.914917 -0.111805
-0.069097 0.962662 -0.111805
-0.285140 0.877579 -0.223610
-0.432087 0.829833 -0.223610
-0.509936 0.819425 -0.111805
-0.362990 0.867171 -0.111805
-0.922742 0.154506 -0.223608
-0.936900 0.077253 -0.111804
-0.936900 0.231759 -0.111804
-0.922742 0.000000 -0.223608
-0.922742 -0.154506 -0.223608
-0.936900 -0.231759 -0.111804
-0.936900 -0.077253 -0.111804
-0.432087 -0.829833 -0.223610
-0.362990 -0.867171 -0.111805
-0.509936 -0.819425 -0.111805
-0.285140 -0.877579 -0.223610
-0.138194 -0.925325 -0.223610
-0.069097 -0.962662 -0.111805
-0.216043 -0.914917 -0.111805
0.655697 -0.667371 -0.223610
0.712559 -0.613193 -0.111805
0.621741 -0.738194 -0.111805
0.746515 -0.542370 -0.223610
0.837333 -0.417369 -0.223610
0.894195 -0.363191 -0.111805
0.803377 -0.488192 -0.111805
0.540512 0.738193 -0.243239
0.574467 0.667370 -0.355044
0.493238 0.667369 -0.486479
0.378053 0.738190 -0.506108
0.459283 0.738191 -0.374674
-0.535037 0.742170 -0.243239
-0.457188 0.752578 -0.355044
-0.482289 0.675323 -0.486478
-0.585239 0.587660 -0.506107
-0.560138 0.664915 -0.374673
-0.871183 -0.279506 -0.243238
-0.857025 -0.202252 -0.355042
-0.791308 -0.249998 -0.486476
-0.739749 -0.374998 -0.506106
-0.805466 -0.327252 -0.374672
-0.003380 -0.914915 -0.243239
-0.072477 -0.877578 -0.355044
-0.006760 -0.829831 -0.486479
0.128055 -0.819421 -0.506108
0.062337 -0.867168 -0.374674
0.869093 -0.285938 -0.243239
0.812230 -0.340116 -0.355044
0.787128 -0.262863 -0.486478
0.818888 -0.131431 -0.506107
0.843990 -0.208685 -0.374673
0.212661 0.154506 -0.925327
0.172047 0.279505 -0.887991
0.318992 0.231759 -0.887991
0.065717 0.202252 -0.925327
-0.081228 0.249998 -0.925327
-0.121842 0.374996 -0.887991
0.025103 0.327250 -0.887991
-0.212660 0.249998 -0.887990
-0.172046 0.124999 -0.925327
-0.262865 0.000000 -0.925326
-0.394297 0.000000 -0.887989
-0.303479 0.124999 -0.887989
-0.303479 -0.124999 -0.887989
-0.172046 -0.124999 -0.925327
-0.081228 -0.249998 -0.925327
-0.121842 -0.374996 -0.887991
-0.212660 -0.249998 -0.887990
0.712556 -0.208684 -0.587336
0.680796 -0.340116 -0.567707
0.606225 -0.285937 -0.668566
0.025103 -0.327250 -0.887991
0.065717 -0.202252 -0.925327
0.172047 -0.279505 -0.887991
0.000000 0.000000 1.000000
3 0 1 2
3 3 4 5
3 0 2 6
3 0 6 7
3 0 7 8
3 3 5 9
3 10 11 12
3 13 14 15
3 16 17 18
3 19 20 21
3 3 9 22
3 10 12 23
3 13 15 24
3 16 18 25
3 19 21 26
3 27 28 29
3 30 31 32
3 33 34 35
3 36 37 38
3 39 40 41
3 42 43 44
3 42 45 43
3 46 47 48
3 49 50 51
3 49 52 50
3 53 54 55
3 56 57 58
3 56 59 57
3 60 61 62
3 63 64 65
3 63 66 64
3 67 68 69
3 70 71 72
3 70 73 71
3 74 75 76
3 77 78 79
3 77 80 78
3 81 82 83
3 84 85 86
3 84 87 85
3 88 89 90
3 91 92 93
3 91 94 92
3 95 96 97
3 98 99 100
3 98 101 99
3 102 103 104
3 105 106 107
3 105 108 106
3 109 110 111
3 81 112 82
3 81 113 112
3 114 115 116
3 88 117 89
3 88 118 117
3 119 120 121
3 95 122 96
3 95 123 122
3 124 125 126
3 102 127 103
3 102 128 127
3 129 130 131
3 109 132 110
3 109 133 132
3 134 135 136
3 137 138 139
3 137 140 138
3 141 142 143
3 141 144 142
3 141 145 144
3 146 147 148
3 146 149 147
3 146 150 149
3 151 152 153
3 134 154 135
3 134 155 154
3 156 157 158
3 151 159 152
3 151 160 159
3 156 161 162
3 163 164 165
3 163 166 164
3 167 4 168
3 169 170 171
3 169 172 170
3 173 174 175
3 176 177 178
3 176 179 177
3 169 171 180
3 181 182 183
3 181 184 182
3 185 1 186
3 187 188 189
3 187 190 188
3 191 192 193
3 194 195 196
3 194 197 195
3 187 189 198
3 199 200 201
3 199 202 200
3 176 178 203
3 204 205 206
3 204 207 205
3 208 209 210
3 211 212 213
3 211 214 212
3 204 206 215
3 216 217 218
3 216 219 217
3 211 213 220
3 221 222 223
3 221 224 222
3 225 226 227
3 228 229 230
3 228 231 229
3 221 223 232
3 233 234 235
3 233 236 234
3 228 230 237
3 238 239 240
3 238 241 239
3 242 243 244
3 245 246 247
3 245 248 246
3 238 240 249
3 250 251 252
3 250 253 251
3 194 196 254
3 255 256 257
3 255 258 256
3 259 260 261
3 262 263 264
3 262 265 263
3 255 257 266
3 267 268 269
3 267 270 268
3 271 272 273
3 274 275 276
3 274 277 275
3 278 279 280
3 281 282 283
3 281 284 282
3 274 276 285
3 286 287 288
3 286 289 287
3 290 291 292
3 293 294 295
3 293 296 294
3 297 298 299
3 300 301 302
3 300 303 301
3 293 295 304
3 305 306 307
3 305 308 306
3 309 310 311
3 312 313 314
3 312 315 313
3 316 317 318
3 319 320 321
3 319 322 320
3 312 314 323
3 324 325 326
3 324 327 325
3 328 329 330
3 331 332 333
3 331 334 332
3 335 336 337
3 338 339 340
3 338 341 339
3 331 333 342
3 343 344 345
3 343 346 344
3 262 264 347
3 348 349 350
3 348 351 349
3 352 353 354
3 355 356 357
3 355 358 356
3 348 350 359
3 360 361 362
3 360 363 361
3 281 283 364
3 365 366 367
3 365 368 366
3 369 370 371
3 372 373 374
3 372 375 373
3 365 367 376
3 377 378 379
3 377 380 378
3 300 302 381
3 382 383 384
3 382 385 383
3 386 387 388
3 389 390 391
3 389 392 390
3 382 384 393
3 394 395 396
3 394 397 395
3 319 321 398
3 399 400 401
3 399 402 400
3 403 404 405
3 406 407 408
3 406 409 407
3 399 401 410
3 411 412 413
3 411 414 412
3 338 340 415
3 416 417 418
3 416 419 417
3 420 421 422
3 423 424 425
3 423 426 424
3 416 418 427
3 428 429 430
3 428 431 429
3 432 433 434
3 435 436 437
3 435 438 436
3 439 440 441
3 442 443 444
3 442 445 443
3 435 437 446
3 447 448 449
3 447 450 448
3 451 452 453
3 454 455 456
3 454 457 455
3 458 459 460
3 461 462 463
3 461 464 462
3 454 456 465
3 466 467 468
3 466 469 467
3 470 471 472
3 473 474 475
3 473 476 474
3 477 478 479
3 480 481 482
3 480 483 481
3 473 475 484
3 485 486 487
3 485 488 486
3 489 490 491
3 492 493 494
3 492 495 493
3 496 497 498
3 499 500 501
3 499 502 500
3 492 494 503
3 504 505 506
3 504 507 505
3 508 509 510
3 511 512 513
3 511 514 512
3 515 516 517
3 518 519 520
3 518 521 519
3 511 513 522
3 523 524 525
3 523 526 524
3 527 528 529
3 530 531 532
3 530 533 531
3 534 535 536
3 537 538 539
3 537 540 538
3 541 542 543
3 544 545 546
3 544 547 545
3 548 549 550
3 551 552 553
3 551 554 552
3 555 556 557
3 558 559 560
3 558 561 559
3 562 563 564
3 565 566 567
3 565 568 566
3 569 570 571
3 572 573 574
3 572 575 573
3 576 577 578
3 579 580 581
3 579 582 580
3 583 584 585
3 586 587 588
3 586 589 587
3 590 591 592
3 562 593 563
3 562 594 593
3 595 596 597
3 569 598 570
3 569 599 598
3 600 601 602
3 576 603 577
3 576 604 603
3 605 606 607
3 583 608 584
3 583 609 608
3 610 611 612
3 590 613 591
3 590 614 613
3 615 616 617
3 618 619 620
3 618 621 619
3 622 623 624
3 622 625 623
3 622 626 625
3 627 628 629
3 627 630 628
3 627 631 630
3 632 633 634
3 615 635 616
3 615 636 635
3 167 161 637
3 632 638 633
3 632 639 638
3 185 157 640
3 640 174 173
3 640 157 174
3 157 156 174
3 638 640 173
3 638 639 640
3 639 185 640
3 633 160 151
3 633 638 160
3 638 173 160
3 637 192 191
3 637 161 192
3 161 156 192
3 635 637 191
3 635 636 637
3 636 167 637
3 616 155 134
3 616 635 155
3 635 191 155
3 634 209 208
3 634 633 209
3 633 151 209
3 630 634 208
3 630 631 634
3 631 632 634
3 628 150 146
3 628 630 150
3 630 208 150
3 629 226 225
3 629 628 226
3 628 146 226
3 625 629 225
3 625 626 629
3 626 627 629
3 623 145 141
3 623 625 145
3 625 225 145
3 624 243 242
3 624 623 243
3 623 141 243
3 619 624 242
3 619 621 624
3 621 622 624
3 620 140 137
3 620 619 140
3 619 242 140
3 617 260 259
3 617 616 260
3 616 134 260
3 613 617 259
3 613 614 617
3 614 615 617
3 591 133 109
3 591 613 133
3 613 259 133
3 612 279 278
3 612 611 279
3 611 129 279
3 608 612 278
3 608 609 612
3 609 610 612
3 584 128 102
3 584 608 128
3 608 278 128
3 607 298 297
3 607 606 298
3 606 124 298
3 603 607 297
3 603 604 607
3 604 605 607
3 577 123 95
3 577 603 123
3 603 297 123
3 602 317 316
3 602 601 317
3 601 119 317
3 598 602 316
3 598 599 602
3 599 600 602
3 570 118 88
3 570 598 118
3 598 316 118
3 597 336 335
3 597 596 336
3 596 114 336
3 593 597 335
3 593 594 597
3 594 595 597
3 563 113 81
3 563 593 113
3 593 335 113
3 592 353 352
3 592 591 353
3 591 109 353
3 587 592 352
3 587 589 592
3 589 590 592
3 588 108 105
3 588 587 108
3 587 352 108
3 585 370 369
3 585 584 370
3 584 102 370
3 580 585 369
3 580 582 585
3 582 583 585
3 581 101 98
3 581 580 101
3 580 369 101
3 578 387 386
3 578 577 387
3 577 95 387
3 573 578 386
3 573 575 578
3 575 576 578
3 574 94 91
3 574 573 94
3 573 386 94
3 571 404 403
3 571 570 404
3 570 88 404
3 566 571 403
3 566 568 571
3 568 569 571
3 567 87 84
3 567 566 87
3 566 403 87
3 564 421 420
3 564 563 421
3 563 81 421
3 559 564 420
3 559 561 564
3 561 562 564
3 560 80 77
3 560 559 80
3 559 420 80
3 557 440 439
3 557 556 440
3 556 74 440
3 552 557 439
3 552 554 557
3 554 555 557
3 553 73 70
3 553 552 73
3 552 439 73
3 550 459 458
3 550 549 459
3 549 67 459
3 545 550 458
3 545 547 550
3 547 548 550
3 546 66 63
3 546 545 66
3 545 458 66
3 543 478 477
3 543 542 478
3 542 60 478
3 538 543 477
3 538 540 543
3 540 541 543
3 539 59 56
3 539 538 59
3 538 477 59
3 536 497 496
3 536 535 497
3 535 53 497
3 531 536 496
3 531 533 536
3 533 534 536
3 532 52 49
3 532 531 52
3 531 496 52
3 529 516 515
3 529 528 516
3 528 46 516
3 524 529 515
3 524 526 529
3 526 527 529
3 525 45 42
3 525 524 45
3 524 515 45
3 522 51 499
3 522 513 51
3 513 49 51
3 519 522 499
3 519 521 522
3 521 511 522
3 520 501 641
3 520 519 501
3 519 499 501
3 517 48 504
3 517 516 48
3 516 46 48
3 512 517 504
3 512 514 517
3 514 515 517
3 513 506 49
3 513 512 506
3 512 504 506
3 510 38 530
3 510 509 38
3 509 36 38
3 505 510 530
3 505 507 510
3 507 508 510
3 506 532 49
3 506 505 532
3 505 530 532
3 503 58 480
3 503 494 58
3 494 56 58
3 500 503 480
3 500 502 503
3 502 492 503
3 501 482 641
3 501 500 482
3 500 480 482
3 498 55 485
3 498 497 55
3 497 53 55
3 493 498 485
3 493 495 498
3 495 496 498
3 494 487 56
3 494 493 487
3 493 485 487
3 491 35 537
3 491 490 35
3 490 33 35
3 486 491 537
3 486 488 491
3 488 489 491
3 487 539 56
3 487 486 539
3 486 537 539
3 484 65 461
3 484 475 65
3 475 63 65
3 481 484 461
3 481 483 484
3 483 473 484
3 482 463 641
3 482 481 463
3 481 461 463
3 479 62 466
3 479 478 62
3 478 60 62
3 474 479 466
3 474 476 479
3 476 477 479
3 475 468 63
3 475 474 468
3 474 466 468
3 472 32 544
3 472 471 32
3 471 30 32
3 467 472 544
3 467 469 472
3 469 470 472
3 468 546 63
3 468 467 546
3 467 544 546
3 465 72 442
3 465 456 72
3 456 70 72
3 462 465 442
3 462 464 465
3 464 454 465
3 463 444 641
3 463 462 444
3 462 442 444
3 460 69 447
3 460 459 69
3 459 67 69
3 455 460 447
3 455 457 460
3 457 458 460
3 456 449 70
3 456 455 449
3 455 447 449
3 453 29 551
3 453 452 29
3 452 27 29
3 448 453 551
3 448 450 453
3 450 451 453
3 449 553 70
3 449 448 553
3 448 551 553
3 446 44 518
3 446 437 44
3 437 42 44
3 443 446 518
3 443 445 446
3 445 435 446
3 444 520 641
3 444 443 520
3 443 518 520
3 441 76 428
3 441 440 76
3 440 74 76
3 436 441 428
3 436 438 441
3 438 439 441
3 437 430 42
3 437 436 430
3 436 428 430
3 434 41 523
3 434 433 41
3 433 39 41
3 429 434 523
3 429 431 434
3 431 432 434
3 430 525 42
3 430 429 525
3 429 523 525
3 427 528 527
3 427 418 528
3 418 46 528
3 424 427 527
3 424 426 427
3 426 416 427
3 425 40 39
3 425 424 40
3 424 527 40
3 422 83 411
3 422 421 83
3 421 81 83
3 417 422 411
3 417 419 422
3 419 420 422
3 418 413 46
3 418 417 413
3 417 411 413
3 415 509 508
3 415 340 509
3 340 36 509
3 412 415 508
3 412 414 415
3 414 338 415
3 413 47 46
3 413 412 47
3 412 508 47
3 410 535 534
3 410 401 535
3 401 53 535
3 407 410 534
3 407 409 410
3 409 399 410
3 408 37 36
3 408 407 37
3 407 534 37
3 405 90 394
3 405 404 90
3 404 88 90
3 400 405 394
3 400 402 405
3 402 403 405
3 401 396 53
3 401 400 396
3 400 394 396
3 398 490 489
3 398 321 490
3 321 33 490
3 395 398 489
3 395 397 398
3 397 319 398
3 396 54 53
3 396 395 54
3 395 489 54
3 393 542 541
3 393 384 542
3 384 60 542
3 390 393 541
3 390 392 393
3 392 382 393
3 391 34 33
3 391 390 34
3 390 541 34
3 388 97 377
3 388 387 97
3 387 95 97
3 383 388 377
3 383 385 388
3 385 386 388
3 384 379 60
3 384 383 379
3 383 377 379
3 381 471 470
3 381 302 471
3 302 30 471
3 378 381 470
3 378 380 381
3 380 300 381
3 379 61 60
3 379 378 61
3 378 470 61
3 376 549 548
3 376 367 549
3 367 67 549
3 373 376 548
3 373 375 376
3 375 365 376
3 374 31 30
3 374 373 31
3 373 548 31
3 371 104 360
3 371 370 104
3 370 102 104
3 366 371 360
3 366 368 371
3 368 369 371
3 367 362 67
3 367 366 362
3 366 360 362
3 364 452 451
3 364 283 452
3 283 27 452
3 361 364 451
3 361 363 364
3 363 281 364
3 362 68 67
3 362 361 68
3 361 451 68
3 359 556 555
3 359 350 556
3 350 74 556
3 356 359 555
3 356 358 359
3 358 348 359
3 357 28 27
3 357 356 28
3 356 555 28
3 354 111 343
3 354 353 111
3 353 109 111
3 349 354 343
3 349 351 354
3 351 352 354
3 350 345 74
3 350 349 345
3 349 343 345
3 347 433 432
3 347 264 433
3 264 39 433
3 344 347 432
3 344 346 347
3 346 262 347
3 345 75 74
3 345 344 75
3 344 432 75
3 342 86 406
3 342 333 86
3 333 84 86
3 339 342 406
3 339 341 342
3 341 331 342
3 340 408 36
3 340 339 408
3 339 406 408
3 337 116 324
3 337 336 116
3 336 114 116
3 332 337 324
3 332 334 337
3 334 335 337
3 333 326 84
3 333 332 326
3 332 324 326
3 330 25 565
3 330 329 25
3 329 16 25
3 325 330 565
3 325 327 330
3 327 328 330
3 326 567 84
3 326 325 567
3 325 565 567
3 323 93 389
3 323 314 93
3 314 91 93
3 320 323 389
3 320 322 323
3 322 312 323
3 321 391 33
3 321 320 391
3 320 389 391
3 318 121 305
3 318 317 121
3 317 119 121
3 313 318 305
3 313 315 318
3 315 316 318
3 314 307 91
3 314 313 307
3 313 305 307
3 311 24 572
3 311 310 24
3 310 13 24
3 306 311 572
3 306 308 311
3 308 309 311
3 307 574 91
3 307 306 574
3 306 572 574
3 304 100 372
3 304 295 100
3 295 98 100
3 301 304 372
3 301 303 304
3 303 293 304
3 302 374 30
3 302 301 374
3 301 372 374
3 299 126 286
3 299 298 126
3 298 124 126
3 294 299 286
3 294 296 299
3 296 297 299
3 295 288 98
3 295 294 288
3 294 286 288
3 292 23 579
3 292 291 23
3 291 10 23
3 287 292 579
3 287 289 292
3 289 290 292
3 288 581 98
3 288 287 581
3 287 579 581
3 285 107 355
3 285 276 107
3 276 105 107
3 282 285 355
3 282 284 285
3 284 274 285
3 283 357 27
3 283 282 357
3 282 355 357
3 280 131 267
3 280 279 131
3 279 129 131
3 275 280 267
3 275 277 280
3 277 278 280
3 276 269 105
3 276 275 269
3 275 267 269
3 273 22 586
3 273 272 22
3 272 3 22
3 268 273 586
3 268 270 273
3 270 271 273
3 269 588 105
3 269 268 588
3 268 586 588
3 266 79 423
3 266 257 79
3 257 77 79
3 263 266 423
3 263 265 266
3 265 255 266
3 264 425 39
3 264 263 425
3 263 423 425
3 261 136 250
3 261 260 136
3 260 134 136
3 256 261 250
3 256 258 261
3 258 259 261
3 257 252 77
3 257 256 252
3 256 250 252
3 254 26 558
3 254 196 26
3 196 19 26
3 251 254 558
3 251 253 254
3 253 194 254
3 252 560 77
3 252 251 560
3 251 558 560
3 249 596 595
3 249 240 596
3 240 114 596
3 246 249 595
3 246 248 249
3 248 238 249
3 247 20 19
3 247 246 20
3 246 595 20
3 244 143 233
3 244 243 143
3 243 141 143
3 239 244 233
3 239 241 244
3 241 242 244
3 240 235 114
3 240 239 235
3 239 233 235
3 237 329 328
3 237 230 329
3 230 16 329
3 234 237 328
3 234 236 237
3 236 228 237
3 235 115 114
3 235 234 115
3 234 328 115
3 232 601 600
3 232 223 601
3 223 119 601
3 229 232 600
3 229 231 232
3 231 221 232
3 230 17 16
3 230 229 17
3 229 600 17
3 227 148 216
3 227 226 148
3 226 146 148
3 222 227 216
3 222 224 227
3 224 225 227
3 223 218 119
3 223 222 218
3 222 216 218
3 220 310 309
3 220 213 310
3 213 13 310
3 217 220 309
3 217 219 220
3 219 211 220
3 218 120 119
3 218 217 120
3 217 309 120
3 215 606 605
3 215 206 606
3 206 124 606
3 212 215 605
3 212 214 215
3 214 204 215
3 213 14 13
3 213 212 14
3 212 605 14
3 210 153 199
3 210 209 153
3 209 151 153
3 205 210 199
3 205 207 210
3 207 208 210
3 206 201 124
3 206 205 201
3 205 199 201
3 203 291 290
3 203 178 291
3 178 10 291
3 200 203 290
3 200 202 203
3 202 176 203
3 201 125 124
3 201 200 125
3 200 290 125
3 198 139 245
3 198 189 139
3 189 137 139
3 195 198 245
3 195 197 198
3 197 187 198
3 196 247 19
3 196 195 247
3 195 245 247
3 193 158 181
3 193 192 158
3 192 156 158
3 188 193 181
3 188 190 193
3 190 191 193
3 189 183 137
3 189 188 183
3 188 181 183
3 186 8 618
3 186 1 8
3 1 0 8
3 182 186 618
3 182 184 186
3 184 185 186
3 183 620 137
3 183 182 620
3 182 618 620
3 180 611 610
3 180 171 611
3 171 129 611
3 177 180 610
3 177 179 180
3 179 169 180
3 178 11 10
3 178 177 11
3 177 610 11
3 175 162 163
3 175 174 162
3 174 156 162
3 170 175 163
3 170 172 175
3 172 173 175
3 171 165 129
3 171 170 165
3 170 163 165
3 168 272 271
3 168 4 272
3 4 3 272
3 164 168 271
3 164 166 168
3 166 167 168
3 165 130 129
3 165 164 130
3 164 271 130
3 162 166 163
3 162 161 166
3 161 167 166
3 159 172 169
3 159 160 172
3 160 173 172
3 152 179 176
3 152 159 179
3 159 169 179
3 158 184 181
3 158 157 184
3 157 185 184
3 154 190 187
3 154 155 190
3 155 191 190
3 135 197 194
3 135 154 197
3 154 187 197
3 153 202 199
3 153 152 202
3 152 176 202
3 149 207 204
3 149 150 207
3 150 208 207
3 147 214 211
3 147 149 214
3 149 204 214
3 148 219 216
3 148 147 219
3 147 211 219
3 144 224 221
3 144 145 224
3 145 225 224
3 142 231 228
3 142 144 231
3 144 221 231
3 143 236 233
3 143 142 236
3 142 228 236
3 138 241 238
3 138 140 241
3 140 242 241
3 139 248 245
3 139 138 248
3 138 238 248
3 136 253 250
3 136 135 253
3 135 194 253
3 132 258 255
3 132 133 258
3 133 259 258
3 110 265 262
3 110 132 265
3 132 255 265
3 131 270 267
3 131 130 270
3 130 271 270
3 127 277 274
3 127 128 277
3 128 278 277
3 103 284 281
3 103 127 284
3 127 274 284
3 126 289 286
3 126 125 289
3 125 290 289
3 122 296 293
3 122 123 296
3 123 297 296
3 96 303 300
3 96 122 303
3 122 293 303
3 121 308 305
3 121 120 308
3 120 309 308
3 117 315 312
3 117 118 315
3 118 316 315
3 89 322 319
3 89 117 322
3 117 312 322
3 116 327 324
3 116 115 327
3 115 328 327
3 112 334 331
3 112 113 334
3 113 335 334
3 82 341 338
3 82 112 341
3 112 331 341
3 111 346 343
3 111 110 346
3 110 262 346
3 106 351 348
3 106 108 351
3 108 352 351
3 107 358 355
3 107 106 358
3 106 348 358
3 104 363 360
3 104 103 363
3 103 281 363
3 99 368 365
3 99 101 368
3 101 369 368
3 100 375 372
3 100 99 375
3 99 365 375
3 97 380 377
3 97 96 380
3 96 300 380
3 92 385 382
3 92 94 385
3 94 386 385
3 93 392 389
3 93 92 392
3 92 382 392
3 90 397 394
3 90 89 397
3 89 319 397
3 85 402 399
3 85 87 402
3 87 403 402
3 86 409 406
3 86 85 409
3 85 399 409
3 83 414 411
3 83 82 414
3 82 338 414
3 78 419 416
3 78 80 419
3 80 420 419
3 79 426 423
3 79 78 426
3 78 416 426
3 76 431 428
3 76 75 431
3 75 432 431
3 71 438 435
3 71 73 438
3 73 439 438
3 72 445 442
3 72 71 445
3 71 435 445
3 69 450 447
3 69 68 450
3 68 451 450
3 64 457 454
3 64 66 457
3 66 458 457
3 65 464 461
3 65 64 464
3 64 454 464
3 62 469 466
3 62 61 469
3 61 470 469
3 57 476 473
3 57 59 476
3 59 477 476
3 58 483 480
3 58 57 483
3 57 473 483
3 55 488 485
3 55 54 488
3 54 489 488
3 50 495 492
3 50 52 495
3 52 496 495
3 51 502 499
3 51 50 502
3 50 492 502
3 48 507 504
3 48 47 507
3 47 508 507
3 43 514 511
3 43 45 514
3 45 515 514
3 44 521 518
3 44 43 521
3 43 511 521
3 41 526 523
3 41 40 526
3 40 527 526
3 38 533 530
3 38 37 533
3 37 534 533
3 35 540 537
3 35 34 540
3 34 541 540
3 32 547 544
3 32 31 547
3 31 548 547
3 29 554 551
3 29 28 554
3 28 555 554
3 26 561 558
3 26 21 561
3 21 562 561
3 25 568 565
3 25 18 568
3 18 569 568
3 24 575 572
3 24 15 575
3 15 576 575
3 23 582 579
3 23 12 582
3 12 583 582
3 22 589 586
3 22 9 589
3 9 590 589
3 21 594 562
3 21 20 594
3 20 595 594
3 18 599 569
3 18 17 599
3 17 600 599
3 15 604 576
3 15 14 604
3 14 605 604
3 12 609 583
3 12 11 609
3 11 610 609
3 9 614 590
3 9 5 614
3 5 615 614
3 8 621 618
3 8 7 621
3 7 622 621
3 7 626 622
3 7 6 626
3 6 627 626
3 6 631 627
3 6 2 631
3 2 632 631
3 5 636 615
3 5 4 636
3 4 167 636
3 2 639 632
3 2 1 639
3 1 185 639
