ply
format ascii 1.0
comment Created by Blender 2.82 (sub 7) - www.blender.org, source file: ''
element vertex 362
property float x
property float y
property float z
element face 720
property list uchar uint vertex_indices
end_header
0.000000 0.000000 -1.000000
0.131083 -0.095236 -0.986786
-0.050068 -0.154097 -0.986786
0.723607 -0.525725 -0.447220
0.655421 -0.476186 -0.586234
0.786506 -0.380949 -0.486093
-0.162029 0.000000 -0.986786
-0.050068 0.154097 -0.986786
0.131083 0.095236 -0.986786
0.817453 -0.476187 -0.324063
-0.276388 -0.850649 -0.447220
-0.119260 -0.865731 -0.486094
-0.200276 -0.924593 -0.324063
-0.894426 0.000000 -0.447216
-0.860215 -0.154097 -0.486091
-0.941230 -0.095237 -0.324061
-0.276388 0.850649 -0.447220
-0.412375 0.770493 -0.486094
-0.381430 0.865733 -0.324064
0.723607 0.525725 -0.447220
0.605354 0.630285 -0.486094
0.705493 0.630287 -0.324064
0.705493 -0.630287 -0.324064
-0.381430 -0.865733 -0.324064
-0.941230 0.095237 -0.324061
-0.200276 0.924593 -0.324063
0.817453 0.476187 -0.324063
0.276388 -0.850649 0.447220
0.412375 -0.770493 0.486094
0.250344 -0.770492 0.586234
-0.723607 -0.525725 0.447220
-0.605354 -0.630285 0.486094
-0.655421 -0.476186 0.586234
-0.723607 0.525725 0.447220
-0.786506 0.380949 0.486093
-0.655421 0.476186 0.586234
0.276388 0.850649 0.447220
0.119260 0.865731 0.486094
0.250344 0.770492 0.586234
0.894426 0.000000 0.447216
0.860215 0.154097 0.486091
0.810145 0.000000 0.586229
0.162029 0.000000 0.986786
0.050068 0.154097 0.986786
0.000000 0.000000 1.000000
0.343278 0.000000 0.939234
0.229395 0.166665 0.958958
0.525730 0.000000 0.850652
0.422988 0.174223 0.889228
0.686556 0.000000 0.727077
0.606179 0.174223 0.776011
0.755126 0.166665 0.634040
0.106076 0.326474 0.939235
0.296406 0.348446 0.889229
0.162456 0.499995 0.850654
0.491120 0.356819 0.794658
0.353014 0.522670 0.776013
0.212153 0.652950 0.727081
0.662788 0.348447 0.662795
0.536206 0.522671 0.662796
0.391853 0.666663 0.634044
0.792635 0.326475 0.514922
0.688189 0.499997 0.525736
0.555434 0.652952 0.514924
0.412375 0.770493 0.486094
-0.131083 0.095236 0.986786
-0.087622 0.269668 0.958959
-0.034988 0.456121 0.889230
0.021619 0.630346 0.776014
0.074833 0.769668 0.634044
-0.277716 0.201770 0.939235
-0.239799 0.389573 0.889230
-0.425323 0.309011 0.850654
-0.187594 0.577344 0.794659
-0.388004 0.497249 0.776013
-0.555434 0.403542 0.727081
-0.126585 0.738022 0.662797
-0.331397 0.671474 0.662797
-0.512947 0.578683 0.634044
-0.065565 0.854725 0.514925
-0.262869 0.809012 0.525738
-0.449360 0.730020 0.514924
-0.605354 0.630285 0.486094
-0.131083 -0.095236 0.986786
-0.283548 0.000000 0.958958
-0.444610 0.107675 0.889229
-0.592814 0.215350 0.776013
-0.708873 0.309012 0.634043
-0.277716 -0.201770 0.939235
-0.444610 -0.107675 0.889229
-0.425323 -0.309011 0.850654
-0.607058 0.000000 0.794658
-0.592814 -0.215350 0.776013
-0.555434 -0.403542 0.727081
-0.741019 0.107675 0.662795
-0.741019 -0.107675 0.662795
-0.708873 -0.309012 0.634043
-0.833152 0.201771 0.514923
-0.850648 0.000000 0.525736
-0.833152 -0.201771 0.514923
-0.786506 -0.380949 0.486093
0.050068 -0.154097 0.986786
-0.087622 -0.269668 0.958959
-0.239799 -0.389573 0.889230
-0.388004 -0.497249 0.776013
-0.512947 -0.578683 0.634044
0.106076 -0.326474 0.939235
-0.034988 -0.456121 0.889230
0.162456 -0.499995 0.850654
-0.187594 -0.577344 0.794659
0.021619 -0.630346 0.776014
0.212153 -0.652950 0.727081
-0.331397 -0.671474 0.662797
-0.126585 -0.738022 0.662797
0.074833 -0.769668 0.634044
-0.449360 -0.730020 0.514924
-0.262869 -0.809012 0.525738
-0.065565 -0.854725 0.514925
0.119260 -0.865731 0.486094
0.229395 -0.166665 0.958958
0.296406 -0.348446 0.889229
0.353014 -0.522670 0.776013
0.391853 -0.666663 0.634044
0.422988 -0.174223 0.889228
0.491120 -0.356819 0.794658
0.606179 -0.174223 0.776011
0.536206 -0.522671 0.662796
0.662788 -0.348447 0.662795
0.755126 -0.166665 0.634040
0.555434 -0.652952 0.514924
0.688189 -0.499997 0.525736
0.792635 -0.326475 0.514922
0.860215 -0.154097 0.486091
0.941230 0.095237 0.324061
0.964276 0.201771 0.171641
0.896903 0.269669 0.350490
0.951058 0.309013 0.000000
0.902592 0.389575 0.183193
0.898717 0.403543 -0.171641
0.867606 0.497252 0.000000
0.796500 0.578686 -0.175246
0.810995 0.456123 0.366386
0.794656 0.577347 0.187595
0.684413 0.630349 0.366387
0.741024 0.671478 0.000000
0.649428 0.738027 0.183194
0.533630 0.769671 0.350493
0.661517 0.730024 -0.171642
0.587786 0.809017 -0.000000
0.489875 0.854729 0.171642
0.381430 0.865733 0.324064
0.200276 0.924593 0.324063
0.106077 0.979432 0.171642
0.020681 0.936337 0.350493
0.000000 1.000000 0.000000
-0.091597 0.978800 0.183194
-0.106077 0.979432 -0.171642
-0.204813 0.978801 0.000000
-0.304233 0.936339 -0.175247
-0.183194 0.912250 0.366387
-0.303532 0.934171 0.187596
-0.388006 0.845702 0.366387
-0.409627 0.912253 0.000000
-0.501224 0.845704 0.183194
-0.567102 0.745352 0.350493
-0.489875 0.854729 -0.171642
-0.587786 0.809017 -0.000000
-0.661517 0.730024 0.171642
-0.705493 0.630287 0.324064
-0.817453 0.476187 0.324063
-0.898717 0.403543 0.171641
-0.884119 0.309013 0.350491
-0.951058 0.309013 0.000000
-0.959200 0.215351 0.183193
-0.964276 0.201771 -0.171641
-0.994186 0.107675 0.000000
-0.984525 0.000000 -0.175245
-0.924212 0.107675 0.366385
-0.982247 0.000000 0.187594
-0.924212 -0.107675 0.366385
-0.994186 -0.107675 0.000000
-0.959200 -0.215351 0.183193
-0.884119 -0.309013 0.350491
-0.964276 -0.201771 -0.171641
-0.951058 -0.309013 -0.000000
-0.898717 -0.403543 0.171641
-0.817453 -0.476187 0.324063
-0.705493 -0.630287 0.324064
-0.661517 -0.730024 0.171642
-0.567102 -0.745352 0.350493
-0.587786 -0.809017 0.000000
-0.501224 -0.845704 0.183194
-0.489875 -0.854729 -0.171642
-0.409627 -0.912253 0.000000
-0.304233 -0.936339 -0.175247
-0.388006 -0.845702 0.366387
-0.303532 -0.934171 0.187596
-0.183194 -0.912250 0.366387
-0.204813 -0.978801 0.000000
-0.091597 -0.978800 0.183194
0.020681 -0.936337 0.350493
-0.106077 -0.979432 -0.171642
0.000000 -1.000000 -0.000000
0.106077 -0.979432 0.171642
0.200276 -0.924593 0.324063
0.381430 -0.865733 0.324064
0.489875 -0.854729 0.171642
0.533630 -0.769671 0.350493
0.587786 -0.809017 0.000000
0.649428 -0.738027 0.183194
0.661517 -0.730024 -0.171642
0.741024 -0.671478 0.000000
0.796500 -0.578685 -0.175246
0.684413 -0.630349 0.366387
0.794656 -0.577347 0.187595
0.810995 -0.456123 0.366386
0.867606 -0.497252 0.000000
0.902592 -0.389575 0.183193
0.896903 -0.269669 0.350490
0.898717 -0.403543 -0.171641
0.951058 -0.309013 -0.000000
0.964276 -0.201771 0.171641
0.941230 -0.095237 0.324061
0.304233 0.936339 0.175247
0.409627 0.912253 -0.000000
0.501224 0.845704 -0.183194
0.567102 0.745352 -0.350493
0.204813 0.978801 0.000000
0.303532 0.934171 -0.187596
0.091597 0.978800 -0.183194
0.388007 0.845702 -0.366387
0.183194 0.912250 -0.366387
-0.020681 0.936337 -0.350493
0.449360 0.730020 -0.514924
0.262869 0.809012 -0.525738
0.065565 0.854725 -0.514925
-0.119260 0.865731 -0.486094
-0.796500 0.578685 0.175246
-0.741024 0.671478 -0.000000
-0.649428 0.738027 -0.183194
-0.533630 0.769671 -0.350493
-0.867606 0.497252 0.000000
-0.794656 0.577347 -0.187595
-0.902592 0.389575 -0.183193
-0.684413 0.630349 -0.366387
-0.810995 0.456123 -0.366386
-0.896903 0.269669 -0.350490
-0.555434 0.652952 -0.514924
-0.688189 0.499997 -0.525736
-0.792635 0.326475 -0.514922
-0.860215 0.154097 -0.486091
-0.796500 -0.578686 0.175246
-0.867606 -0.497252 -0.000000
-0.902592 -0.389575 -0.183193
-0.896903 -0.269669 -0.350490
-0.741024 -0.671478 0.000000
-0.794656 -0.577347 -0.187595
-0.649428 -0.738027 -0.183194
-0.810995 -0.456123 -0.366386
-0.684413 -0.630349 -0.366387
-0.533630 -0.769671 -0.350493
-0.792635 -0.326475 -0.514922
-0.688189 -0.499997 -0.525736
-0.555434 -0.652952 -0.514924
-0.412375 -0.770493 -0.486094
0.304233 -0.936339 0.175247
0.204813 -0.978801 -0.000000
0.091597 -0.978800 -0.183194
-0.020681 -0.936337 -0.350493
0.409627 -0.912253 0.000000
0.303532 -0.934171 -0.187596
0.501224 -0.845704 -0.183194
0.183194 -0.912250 -0.366387
0.388006 -0.845702 -0.366387
0.567102 -0.745352 -0.350493
0.065565 -0.854725 -0.514925
0.262869 -0.809012 -0.525738
0.449360 -0.730020 -0.514924
0.605354 -0.630285 -0.486094
0.984525 0.000000 0.175245
0.994186 -0.107675 -0.000000
0.959200 -0.215351 -0.183193
0.884119 -0.309013 -0.350491
0.994186 0.107675 0.000000
0.982247 0.000000 -0.187594
0.959200 0.215351 -0.183193
0.924212 -0.107675 -0.366385
0.924212 0.107675 -0.366385
0.884119 0.309013 -0.350491
0.833152 -0.201771 -0.514923
0.850648 0.000000 -0.525736
0.833152 0.201771 -0.514923
0.786506 0.380949 -0.486093
0.655421 0.476186 -0.586234
0.555434 0.403542 -0.727081
0.512947 0.578683 -0.634044
0.425323 0.309011 -0.850654
0.388004 0.497249 -0.776013
0.277716 0.201770 -0.939235
0.239799 0.389573 -0.889230
0.087622 0.269668 -0.958959
0.331397 0.671474 -0.662797
0.187594 0.577344 -0.794659
0.126585 0.738022 -0.662797
0.034988 0.456121 -0.889230
-0.021619 0.630346 -0.776014
-0.074833 0.769668 -0.634044
-0.106076 0.326474 -0.939235
-0.162456 0.499995 -0.850654
-0.212153 0.652950 -0.727081
-0.250344 0.770492 -0.586234
-0.391853 0.666663 -0.634044
-0.353014 0.522670 -0.776013
-0.296406 0.348446 -0.889230
-0.229395 0.166665 -0.958958
-0.536206 0.522671 -0.662796
-0.491120 0.356819 -0.794658
-0.662788 0.348447 -0.662795
-0.422988 0.174223 -0.889228
-0.606179 0.174223 -0.776011
-0.755126 0.166665 -0.634040
-0.343278 0.000000 -0.939234
-0.525730 0.000000 -0.850652
-0.686556 0.000000 -0.727077
-0.810145 0.000000 -0.586229
-0.755126 -0.166665 -0.634040
-0.606179 -0.174223 -0.776011
-0.422988 -0.174223 -0.889228
-0.229395 -0.166665 -0.958958
-0.662788 -0.348446 -0.662795
-0.491120 -0.356819 -0.794658
-0.536206 -0.522671 -0.662796
-0.296406 -0.348446 -0.889230
-0.353014 -0.522670 -0.776013
-0.391853 -0.666663 -0.634044
-0.106076 -0.326474 -0.939235
-0.162456 -0.499995 -0.850654
-0.212153 -0.652950 -0.727081
-0.250344 -0.770492 -0.586234
0.708873 0.309012 -0.634043
0.741019 0.107675 -0.662795
0.741019 -0.107675 -0.662795
0.708873 -0.309012 -0.634043
0.592814 0.215350 -0.776013
0.607058 0.000000 -0.794658
0.444610 0.107675 -0.889229
0.592814 -0.215350 -0.776013
0.444610 -0.107675 -0.889229
0.283548 0.000000 -0.958958
0.555434 -0.403542 -0.727081
0.425323 -0.309011 -0.850654
0.277716 -0.201770 -0.939235
-0.074833 -0.769668 -0.634044
-0.021619 -0.630345 -0.776014
0.034988 -0.456121 -0.889230
0.087622 -0.269668 -0.958959
0.126585 -0.738022 -0.662797
0.187594 -0.577344 -0.794659
0.331397 -0.671474 -0.662797
0.239799 -0.389573 -0.889230
0.388004 -0.497249 -0.776013
0.512947 -0.578683 -0.634044
3 0 1 2
3 3 4 5
3 0 2 6
3 0 6 7
3 0 7 8
3 3 5 9
3 10 11 12
3 13 14 15
3 16 17 18
3 19 20 21
3 3 9 22
3 10 12 23
3 13 15 24
3 16 18 25
3 19 21 26
3 27 28 29
3 30 31 32
3 33 34 35
3 36 37 38
3 39 40 41
3 42 43 44
3 45 46 42
3 47 48 45
3 49 50 47
3 41 51 49
3 42 46 43
3 46 52 43
3 45 48 46
3 48 53 46
3 46 53 52
3 53 54 52
3 47 50 48
3 50 55 48
3 48 55 53
3 55 56 53
3 53 56 54
3 56 57 54
3 49 51 50
3 51 58 50
3 50 58 55
3 58 59 55
3 55 59 56
3 59 60 56
3 56 60 57
3 60 38 57
3 41 40 51
3 40 61 51
3 51 61 58
3 61 62 58
3 58 62 59
3 62 63 59
3 59 63 60
3 63 64 60
3 60 64 38
3 64 36 38
3 43 65 44
3 52 66 43
3 54 67 52
3 57 68 54
3 38 69 57
3 43 66 65
3 66 70 65
3 52 67 66
3 67 71 66
3 66 71 70
3 71 72 70
3 54 68 67
3 68 73 67
3 67 73 71
3 73 74 71
3 71 74 72
3 74 75 72
3 57 69 68
3 69 76 68
3 68 76 73
3 76 77 73
3 73 77 74
3 77 78 74
3 74 78 75
3 78 35 75
3 38 37 69
3 37 79 69
3 69 79 76
3 79 80 76
3 76 80 77
3 80 81 77
3 77 81 78
3 81 82 78
3 78 82 35
3 82 33 35
3 65 83 44
3 70 84 65
3 72 85 70
3 75 86 72
3 35 87 75
3 65 84 83
3 84 88 83
3 70 85 84
3 85 89 84
3 84 89 88
3 89 90 88
3 72 86 85
3 86 91 85
3 85 91 89
3 91 92 89
3 89 92 90
3 92 93 90
3 75 87 86
3 87 94 86
3 86 94 91
3 94 95 91
3 91 95 92
3 95 96 92
3 92 96 93
3 96 32 93
3 35 34 87
3 34 97 87
3 87 97 94
3 97 98 94
3 94 98 95
3 98 99 95
3 95 99 96
3 99 100 96
3 96 100 32
3 100 30 32
3 83 101 44
3 88 102 83
3 90 103 88
3 93 104 90
3 32 105 93
3 83 102 101
3 102 106 101
3 88 103 102
3 103 107 102
3 102 107 106
3 107 108 106
3 90 104 103
3 104 109 103
3 103 109 107
3 109 110 107
3 107 110 108
3 110 111 108
3 93 105 104
3 105 112 104
3 104 112 109
3 112 113 109
3 109 113 110
3 113 114 110
3 110 114 111
3 114 29 111
3 32 31 105
3 31 115 105
3 105 115 112
3 115 116 112
3 112 116 113
3 116 117 113
3 113 117 114
3 117 118 114
3 114 118 29
3 118 27 29
3 101 42 44
3 106 119 101
3 108 120 106
3 111 121 108
3 29 122 111
3 101 119 42
3 119 45 42
3 106 120 119
3 120 123 119
3 119 123 45
3 123 47 45
3 108 121 120
3 121 124 120
3 120 124 123
3 124 125 123
3 123 125 47
3 125 49 47
3 111 122 121
3 122 126 121
3 121 126 124
3 126 127 124
3 124 127 125
3 127 128 125
3 125 128 49
3 128 41 49
3 29 28 122
3 28 129 122
3 122 129 126
3 129 130 126
3 126 130 127
3 130 131 127
3 127 131 128
3 131 132 128
3 128 132 41
3 132 39 41
3 133 40 39
3 134 135 133
3 136 137 134
3 138 139 136
3 26 140 138
3 133 135 40
3 135 61 40
3 134 137 135
3 137 141 135
3 135 141 61
3 141 62 61
3 136 139 137
3 139 142 137
3 137 142 141
3 142 143 141
3 141 143 62
3 143 63 62
3 138 140 139
3 140 144 139
3 139 144 142
3 144 145 142
3 142 145 143
3 145 146 143
3 143 146 63
3 146 64 63
3 26 21 140
3 21 147 140
3 140 147 144
3 147 148 144
3 144 148 145
3 148 149 145
3 145 149 146
3 149 150 146
3 146 150 64
3 150 36 64
3 151 37 36
3 152 153 151
3 154 155 152
3 156 157 154
3 25 158 156
3 151 153 37
3 153 79 37
3 152 155 153
3 155 159 153
3 153 159 79
3 159 80 79
3 154 157 155
3 157 160 155
3 155 160 159
3 160 161 159
3 159 161 80
3 161 81 80
3 156 158 157
3 158 162 157
3 157 162 160
3 162 163 160
3 160 163 161
3 163 164 161
3 161 164 81
3 164 82 81
3 25 18 158
3 18 165 158
3 158 165 162
3 165 166 162
3 162 166 163
3 166 167 163
3 163 167 164
3 167 168 164
3 164 168 82
3 168 33 82
3 169 34 33
3 170 171 169
3 172 173 170
3 174 175 172
3 24 176 174
3 169 171 34
3 171 97 34
3 170 173 171
3 173 177 171
3 171 177 97
3 177 98 97
3 172 175 173
3 175 178 173
3 173 178 177
3 178 179 177
3 177 179 98
3 179 99 98
3 174 176 175
3 176 180 175
3 175 180 178
3 180 181 178
3 178 181 179
3 181 182 179
3 179 182 99
3 182 100 99
3 24 15 176
3 15 183 176
3 176 183 180
3 183 184 180
3 180 184 181
3 184 185 181
3 181 185 182
3 185 186 182
3 182 186 100
3 186 30 100
3 187 31 30
3 188 189 187
3 190 191 188
3 192 193 190
3 23 194 192
3 187 189 31
3 189 115 31
3 188 191 189
3 191 195 189
3 189 195 115
3 195 116 115
3 190 193 191
3 193 196 191
3 191 196 195
3 196 197 195
3 195 197 116
3 197 117 116
3 192 194 193
3 194 198 193
3 193 198 196
3 198 199 196
3 196 199 197
3 199 200 197
3 197 200 117
3 200 118 117
3 23 12 194
3 12 201 194
3 194 201 198
3 201 202 198
3 198 202 199
3 202 203 199
3 199 203 200
3 203 204 200
3 200 204 118
3 204 27 118
3 205 28 27
3 206 207 205
3 208 209 206
3 210 211 208
3 22 212 210
3 205 207 28
3 207 129 28
3 206 209 207
3 209 213 207
3 207 213 129
3 213 130 129
3 208 211 209
3 211 214 209
3 209 214 213
3 214 215 213
3 213 215 130
3 215 131 130
3 210 212 211
3 212 216 211
3 211 216 214
3 216 217 214
3 214 217 215
3 217 218 215
3 215 218 131
3 218 132 131
3 22 9 212
3 9 219 212
3 212 219 216
3 219 220 216
3 216 220 217
3 220 221 217
3 217 221 218
3 221 222 218
3 218 222 132
3 222 39 132
3 150 151 36
3 149 223 150
3 148 224 149
3 147 225 148
3 21 226 147
3 150 223 151
3 223 152 151
3 149 224 223
3 224 227 223
3 223 227 152
3 227 154 152
3 148 225 224
3 225 228 224
3 224 228 227
3 228 229 227
3 227 229 154
3 229 156 154
3 147 226 225
3 226 230 225
3 225 230 228
3 230 231 228
3 228 231 229
3 231 232 229
3 229 232 156
3 232 25 156
3 21 20 226
3 20 233 226
3 226 233 230
3 233 234 230
3 230 234 231
3 234 235 231
3 231 235 232
3 235 236 232
3 232 236 25
3 236 16 25
3 168 169 33
3 167 237 168
3 166 238 167
3 165 239 166
3 18 240 165
3 168 237 169
3 237 170 169
3 167 238 237
3 238 241 237
3 237 241 170
3 241 172 170
3 166 239 238
3 239 242 238
3 238 242 241
3 242 243 241
3 241 243 172
3 243 174 172
3 165 240 239
3 240 244 239
3 239 244 242
3 244 245 242
3 242 245 243
3 245 246 243
3 243 246 174
3 246 24 174
3 18 17 240
3 17 247 240
3 240 247 244
3 247 248 244
3 244 248 245
3 248 249 245
3 245 249 246
3 249 250 246
3 246 250 24
3 250 13 24
3 186 187 30
3 185 251 186
3 184 252 185
3 183 253 184
3 15 254 183
3 186 251 187
3 251 188 187
3 185 252 251
3 252 255 251
3 251 255 188
3 255 190 188
3 184 253 252
3 253 256 252
3 252 256 255
3 256 257 255
3 255 257 190
3 257 192 190
3 183 254 253
3 254 258 253
3 253 258 256
3 258 259 256
3 256 259 257
3 259 260 257
3 257 260 192
3 260 23 192
3 15 14 254
3 14 261 254
3 254 261 258
3 261 262 258
3 258 262 259
3 262 263 259
3 259 263 260
3 263 264 260
3 260 264 23
3 264 10 23
3 204 205 27
3 203 265 204
3 202 266 203
3 201 267 202
3 12 268 201
3 204 265 205
3 265 206 205
3 203 266 265
3 266 269 265
3 265 269 206
3 269 208 206
3 202 267 266
3 267 270 266
3 266 270 269
3 270 271 269
3 269 271 208
3 271 210 208
3 201 268 267
3 268 272 267
3 267 272 270
3 272 273 270
3 270 273 271
3 273 274 271
3 271 274 210
3 274 22 210
3 12 11 268
3 11 275 268
3 268 275 272
3 275 276 272
3 272 276 273
3 276 277 273
3 273 277 274
3 277 278 274
3 274 278 22
3 278 3 22
3 222 133 39
3 221 279 222
3 220 280 221
3 219 281 220
3 9 282 219
3 222 279 133
3 279 134 133
3 221 280 279
3 280 283 279
3 279 283 134
3 283 136 134
3 220 281 280
3 281 284 280
3 280 284 283
3 284 285 283
3 283 285 136
3 285 138 136
3 219 282 281
3 282 286 281
3 281 286 284
3 286 287 284
3 284 287 285
3 287 288 285
3 285 288 138
3 288 26 138
3 9 5 282
3 5 289 282
3 282 289 286
3 289 290 286
3 286 290 287
3 290 291 287
3 287 291 288
3 291 292 288
3 288 292 26
3 292 19 26
3 293 20 19
3 294 295 293
3 296 297 294
3 298 299 296
3 8 300 298
3 293 295 20
3 295 233 20
3 294 297 295
3 297 301 295
3 295 301 233
3 301 234 233
3 296 299 297
3 299 302 297
3 297 302 301
3 302 303 301
3 301 303 234
3 303 235 234
3 298 300 299
3 300 304 299
3 299 304 302
3 304 305 302
3 302 305 303
3 305 306 303
3 303 306 235
3 306 236 235
3 8 7 300
3 7 307 300
3 300 307 304
3 307 308 304
3 304 308 305
3 308 309 305
3 305 309 306
3 309 310 306
3 306 310 236
3 310 16 236
3 310 17 16
3 309 311 310
3 308 312 309
3 307 313 308
3 7 314 307
3 310 311 17
3 311 247 17
3 309 312 311
3 312 315 311
3 311 315 247
3 315 248 247
3 308 313 312
3 313 316 312
3 312 316 315
3 316 317 315
3 315 317 248
3 317 249 248
3 307 314 313
3 314 318 313
3 313 318 316
3 318 319 316
3 316 319 317
3 319 320 317
3 317 320 249
3 320 250 249
3 7 6 314
3 6 321 314
3 314 321 318
3 321 322 318
3 318 322 319
3 322 323 319
3 319 323 320
3 323 324 320
3 320 324 250
3 324 13 250
3 324 14 13
3 323 325 324
3 322 326 323
3 321 327 322
3 6 328 321
3 324 325 14
3 325 261 14
3 323 326 325
3 326 329 325
3 325 329 261
3 329 262 261
3 322 327 326
3 327 330 326
3 326 330 329
3 330 331 329
3 329 331 262
3 331 263 262
3 321 328 327
3 328 332 327
3 327 332 330
3 332 333 330
3 330 333 331
3 333 334 331
3 331 334 263
3 334 264 263
3 6 2 328
3 2 335 328
3 328 335 332
3 335 336 332
3 332 336 333
3 336 337 333
3 333 337 334
3 337 338 334
3 334 338 264
3 338 10 264
3 292 293 19
3 291 339 292
3 290 340 291
3 289 341 290
3 5 342 289
3 292 339 293
3 339 294 293
3 291 340 339
3 340 343 339
3 339 343 294
3 343 296 294
3 290 341 340
3 341 344 340
3 340 344 343
3 344 345 343
3 343 345 296
3 345 298 296
3 289 342 341
3 342 346 341
3 341 346 344
3 346 347 344
3 344 347 345
3 347 348 345
3 345 348 298
3 348 8 298
3 5 4 342
3 4 349 342
3 342 349 346
3 349 350 346
3 346 350 347
3 350 351 347
3 347 351 348
3 351 1 348
3 348 1 8
3 1 0 8
3 338 11 10
3 337 352 338
3 336 353 337
3 335 354 336
3 2 355 335
3 338 352 11
3 352 275 11
3 337 353 352
3 353 356 352
3 352 356 275
3 356 276 275
3 336 354 353
3 354 357 353
3 353 357 356
3 357 358 356
3 356 358 276
3 358 277 276
3 335 355 354
3 355 359 354
3 354 359 357
3 359 360 357
3 357 360 358
3 360 361 358
3 358 361 277
3 361 278 277
3 2 1 355
3 1 351 355
3 355 351 359
3 351 350 359
3 359 350 360
3 350 349 360
3 360 349 361
3 349 4 361
3 361 4 278
3 4 3 278
