ply
format ascii 1.0
comment Created by Blender 2.82 (sub 7) - www.blender.org, source file: ''
element vertex 812
property float x
property float y
property float z
element face 1620
property list uchar uint vertex_indices
end_header
0.000000 0.000000 -1.000000
0.085185 -0.061890 -0.994441
-0.032537 -0.100141 -0.994441
0.723607 -0.525725 -0.447220
0.681488 -0.495124 -0.538913
0.766673 -0.433233 -0.473836
-0.105295 0.000000 -0.994441
-0.032537 0.100141 -0.994441
0.085185 0.061890 -0.994441
0.786785 -0.495124 -0.368540
-0.276388 -0.850649 -0.447220
-0.175114 -0.863026 -0.473837
-0.227763 -0.901278 -0.368540
-0.894426 0.000000 -0.447216
-0.874902 -0.100141 -0.473833
-0.927551 -0.061890 -0.368537
-0.276388 0.850649 -0.447220
-0.365597 0.801135 -0.473837
-0.345487 0.863028 -0.368541
0.723607 0.525725 -0.447220
0.648951 0.595266 -0.473837
0.714027 0.595267 -0.368540
0.714027 -0.595267 -0.368540
-0.345487 -0.863028 -0.368541
-0.927551 0.061890 -0.368537
-0.227763 0.901278 -0.368540
0.786785 0.495124 -0.368540
0.276388 -0.850649 0.447220
0.365597 -0.801135 0.473837
0.260300 -0.801134 0.538913
-0.723607 -0.525725 0.447220
-0.648951 -0.595266 0.473837
-0.681488 -0.495124 0.538913
-0.723607 0.525725 0.447220
-0.766673 0.433233 0.473836
-0.681488 0.495124 0.538913
0.276388 0.850649 0.447220
0.175114 0.863026 0.473837
0.260300 0.801134 0.538913
0.894426 0.000000 0.447216
0.874902 0.100141 0.473833
0.842364 0.000000 0.538909
0.105295 0.000000 0.994441
0.032537 0.100141 0.994441
0.000000 0.000000 1.000000
0.220994 0.000000 0.975275
0.145877 0.105986 0.983609
0.343278 0.000000 0.939234
0.269125 0.110849 0.956705
0.466217 0.000000 0.884670
0.397022 0.114109 0.910688
0.582772 0.000000 0.812636
0.522225 0.115261 0.844983
0.686556 0.000000 0.727077
0.636987 0.114109 0.762382
0.773479 0.000000 0.633821
0.735343 0.110849 0.668568
0.814526 0.105986 0.570364
0.068289 0.210176 0.975276
0.188587 0.221697 0.956705
0.106076 0.326474 0.939235
0.317288 0.230522 0.919885
0.231209 0.342326 0.910689
0.144066 0.443396 0.884672
0.447663 0.235349 0.862676
0.362165 0.353024 0.862676
0.270994 0.461045 0.844985
0.180082 0.554246 0.812639
0.571394 0.235349 0.786206
0.491120 0.356819 0.794658
0.400400 0.470699 0.786207
0.305361 0.570546 0.762386
0.212153 0.652950 0.727081
0.680870 0.230522 0.695180
0.609629 0.353024 0.709737
0.524132 0.470699 0.709738
0.429640 0.576308 0.695183
0.332654 0.665097 0.668571
0.239013 0.735620 0.633826
0.771361 0.221698 0.596534
0.711140 0.342327 0.614078
0.634578 0.461046 0.620280
0.545328 0.570547 0.614080
0.449210 0.665097 0.596537
0.352498 0.741907 0.570368
0.841771 0.210176 0.497241
0.792635 0.326475 0.514922
0.726841 0.443397 0.524501
0.646304 0.554247 0.524501
0.555434 0.652952 0.514924
0.460010 0.735622 0.497244
0.365597 0.801135 0.473837
-0.085185 0.061890 0.994441
-0.055721 0.171488 0.983609
-0.022261 0.290205 0.956706
0.014160 0.412849 0.910689
0.051753 0.532280 0.844985
0.088311 0.641069 0.762386
0.121805 0.733605 0.668571
0.150898 0.807410 0.570368
-0.178787 0.129895 0.975276
-0.152571 0.247864 0.956705
-0.277716 0.201770 0.939235
-0.121195 0.372992 0.919885
-0.254126 0.325676 0.910689
-0.377176 0.274031 0.884672
-0.085498 0.498476 0.862677
-0.223833 0.453528 0.862677
-0.354740 0.400200 0.844985
-0.471471 0.342540 0.812639
-0.047264 0.616152 0.786208
-0.187594 0.577344 0.794659
-0.323933 0.526255 0.786208
-0.448261 0.466723 0.762385
-0.555434 0.403542 0.727081
-0.008845 0.718778 0.695183
-0.147365 0.688879 0.709738
-0.285700 0.643931 0.709738
-0.415338 0.586698 0.695183
-0.529750 0.521898 0.668571
-0.625758 0.454634 0.633826
0.027510 0.802114 0.596537
-0.105824 0.782117 0.614081
-0.242391 0.745988 0.620281
-0.374111 0.694943 0.614080
-0.493734 0.632748 0.596537
-0.596669 0.564506 0.570367
0.060226 0.865518 0.497244
-0.065565 0.854725 0.514924
-0.197096 0.828282 0.524502
-0.327407 0.785940 0.524502
-0.449360 0.730020 0.514924
-0.557469 0.664813 0.497244
-0.648951 0.595266 0.473837
-0.085185 -0.061890 0.994441
-0.180314 0.000000 0.983609
-0.282881 0.068508 0.956705
-0.388268 0.141045 0.910689
-0.490237 0.213704 0.844984
-0.582404 0.282091 0.762385
-0.660060 0.342540 0.668570
-0.721263 0.393016 0.570367
-0.178787 -0.129895 0.975276
-0.282881 -0.068508 0.956705
-0.277716 -0.201770 0.939235
-0.392189 -0.000000 0.919885
-0.388268 -0.141045 0.910689
-0.377176 -0.274031 0.884672
-0.500501 0.072726 0.862676
-0.500501 -0.072726 0.862676
-0.490237 -0.213704 0.844984
-0.471471 -0.342540 0.812639
-0.600602 0.145453 0.786207
-0.607058 -0.000000 0.794658
-0.600602 -0.145453 0.786207
-0.582404 -0.282091 0.762385
-0.555434 -0.403542 0.727081
-0.686333 0.213705 0.695182
-0.700703 0.072726 0.709737
-0.700703 -0.072726 0.709737
-0.686333 -0.213705 0.695182
-0.660060 -0.342540 0.668570
-0.625758 -0.454634 0.633826
-0.754355 0.274032 0.596536
-0.776539 0.141046 0.614079
-0.784381 -0.000000 0.620280
-0.776539 -0.141046 0.614079
-0.754355 -0.274032 0.596536
-0.721263 -0.393016 0.570367
-0.804546 0.324739 0.497243
-0.833152 0.201771 0.514923
-0.848649 0.068508 0.524501
-0.848649 -0.068508 0.524501
-0.833152 -0.201771 0.514923
-0.804546 -0.324739 0.497243
-0.766673 -0.433233 0.473836
0.032537 -0.100141 0.994441
-0.055721 -0.171488 0.983609
-0.152571 -0.247864 0.956705
-0.254126 -0.325676 0.910689
-0.354740 -0.400200 0.844985
-0.448261 -0.466723 0.762385
-0.529750 -0.521898 0.668571
-0.596669 -0.564506 0.570367
0.068289 -0.210176 0.975276
-0.022261 -0.290205 0.956706
0.106076 -0.326474 0.939235
-0.121195 -0.372992 0.919885
0.014160 -0.412849 0.910689
0.144066 -0.443396 0.884672
-0.223833 -0.453528 0.862677
-0.085498 -0.498476 0.862677
0.051753 -0.532280 0.844985
0.180082 -0.554246 0.812639
-0.323933 -0.526255 0.786208
-0.187594 -0.577344 0.794659
-0.047264 -0.616152 0.786208
0.088311 -0.641069 0.762386
0.212153 -0.652950 0.727081
-0.415338 -0.586698 0.695183
-0.285700 -0.643931 0.709738
-0.147365 -0.688879 0.709738
-0.008845 -0.718778 0.695183
0.121805 -0.733605 0.668571
0.239013 -0.735620 0.633826
-0.493734 -0.632748 0.596537
-0.374111 -0.694943 0.614080
-0.242391 -0.745988 0.620281
-0.105824 -0.782117 0.614080
0.027510 -0.802114 0.596537
0.150898 -0.807410 0.570368
-0.557469 -0.664813 0.497244
-0.449360 -0.730020 0.514924
-0.327407 -0.785940 0.524502
-0.197096 -0.828282 0.524503
-0.065565 -0.854725 0.514925
0.060226 -0.865518 0.497244
0.175114 -0.863026 0.473837
0.145877 -0.105986 0.983609
0.188587 -0.221697 0.956705
0.231209 -0.342326 0.910689
0.270994 -0.461045 0.844985
0.305361 -0.570546 0.762386
0.332654 -0.665097 0.668571
0.352498 -0.741907 0.570368
0.269125 -0.110849 0.956705
0.317288 -0.230522 0.919885
0.397022 -0.114109 0.910688
0.362165 -0.353023 0.862676
0.447663 -0.235349 0.862676
0.522225 -0.115261 0.844983
0.400400 -0.470699 0.786207
0.491121 -0.356819 0.794658
0.571394 -0.235349 0.786206
0.636987 -0.114109 0.762382
0.429640 -0.576308 0.695183
0.524132 -0.470699 0.709738
0.609629 -0.353024 0.709737
0.680870 -0.230522 0.695180
0.735343 -0.110849 0.668568
0.449210 -0.665097 0.596537
0.545328 -0.570547 0.614080
0.634578 -0.461046 0.620280
0.711140 -0.342327 0.614078
0.771361 -0.221698 0.596534
0.814526 -0.105986 0.570364
0.460010 -0.735622 0.497244
0.555434 -0.652952 0.514924
0.646304 -0.554247 0.524501
0.726841 -0.443397 0.524501
0.792635 -0.326475 0.514922
0.841771 -0.210176 0.497241
0.874902 -0.100141 0.473833
0.927551 0.061890 0.368537
0.952269 0.129895 0.276245
0.904685 0.171489 0.390048
0.964276 0.201771 0.171641
0.923935 0.247865 0.291389
0.959953 0.274032 0.058278
0.928193 0.325678 0.179975
0.937694 0.342541 -0.058278
0.914421 0.400203 0.060598
0.898717 0.403543 -0.171641
0.882365 0.466725 -0.059992
0.846755 0.454635 -0.276247
0.834897 0.521900 -0.174834
0.776987 0.564508 -0.278608
0.865657 0.290206 0.407944
0.876969 0.372993 0.302988
0.808209 0.412851 0.419943
0.871701 0.453531 0.185600
0.809834 0.498479 0.309333
0.732628 0.532283 0.424184
0.848071 0.526258 0.061867
0.794656 0.577347 0.187595
0.724338 0.616156 0.309333
0.642397 0.641072 0.419944
0.807533 0.586702 -0.060598
0.762574 0.643935 0.061867
0.700708 0.688884 0.185600
0.625739 0.718782 0.302990
0.543506 0.733608 0.407947
0.754360 0.632751 -0.174835
0.716553 0.694948 -0.059992
0.663191 0.745993 0.060598
0.596569 0.782121 0.179977
0.521247 0.802118 0.291391
0.442658 0.807412 0.390051
0.694052 0.664816 -0.276248
0.661517 0.730024 -0.171642
0.615544 0.785945 -0.058278
0.557265 0.828287 0.058278
0.489875 0.854729 0.171642
0.417804 0.865521 0.276248
0.345487 0.863028 0.368541
0.227763 0.901278 0.368540
0.170725 0.945802 0.276247
0.116462 0.913399 0.390051
0.106077 0.979432 0.171642
0.049772 0.955308 0.291391
0.036017 0.997650 0.058278
-0.022916 0.983404 0.179977
-0.036017 0.997650 -0.058278
-0.098048 0.993335 0.060598
-0.106077 0.979432 -0.171642
-0.171220 0.983405 -0.059992
-0.170725 0.945802 -0.276247
-0.238362 0.955310 -0.174835
-0.296779 0.913400 -0.278608
-0.008506 0.912966 0.407947
-0.083746 0.949307 0.302990
-0.142900 0.896229 0.419944
-0.161968 0.969185 0.185600
-0.223835 0.924235 0.309334
-0.279842 0.861252 0.424185
-0.238437 0.969185 0.061867
-0.303532 0.934171 0.187596
-0.362171 0.879287 0.309334
-0.411188 0.809056 0.419944
-0.308448 0.949309 -0.060598
-0.376774 0.924237 0.061867
-0.438640 0.879288 0.185601
-0.490242 0.817227 0.302990
-0.529752 0.743600 0.407947
-0.368674 0.912969 -0.174835
-0.439509 0.896232 -0.059992
-0.504546 0.861256 0.060598
-0.559494 0.809058 0.179977
-0.601787 0.743602 0.291391
-0.631107 0.670495 0.390051
-0.417804 0.865521 -0.276248
-0.489875 0.854729 -0.171642
-0.557265 0.828287 -0.058278
-0.615544 0.785945 0.058278
-0.661517 0.730024 0.171642
-0.694052 0.664816 0.276248
-0.714027 0.595267 0.368540
-0.786785 0.495124 0.368540
-0.846755 0.454635 0.276247
-0.832706 0.393017 0.390050
-0.898717 0.403543 0.171641
-0.893173 0.342541 0.291390
-0.937694 0.342541 0.058278
-0.942355 0.282092 0.179976
-0.959953 0.274032 -0.058278
-0.975017 0.213705 0.060598
-0.964276 0.201771 -0.171641
-0.988184 0.141046 -0.059992
-0.952269 0.129895 -0.276245
-0.982212 0.068508 -0.174833
-0.960406 0.000000 -0.278605
-0.870911 0.274033 0.407946
-0.928724 0.213705 0.302988
-0.896523 0.141046 0.419943
-0.971801 0.145453 0.185599
-0.948169 0.072727 0.309332
-0.905576 0.000000 0.424183
-0.995431 0.072727 0.061866
-0.982247 -0.000000 0.187594
-0.948169 -0.072727 0.309332
-0.896523 -0.141046 0.419943
-0.998162 -0.000000 -0.060598
-0.995431 -0.072727 0.061866
-0.971801 -0.145453 0.185599
-0.928724 -0.213705 0.302988
-0.870911 -0.274033 0.407946
-0.982212 -0.068508 -0.174833
-0.988184 -0.141046 -0.059992
-0.975017 -0.213705 0.060598
-0.942355 -0.282092 0.179976
-0.893173 -0.342541 0.291390
-0.832706 -0.393017 0.390050
-0.952269 -0.129895 -0.276245
-0.964276 -0.201771 -0.171641
-0.959953 -0.274032 -0.058278
-0.937694 -0.342541 0.058278
-0.898717 -0.403543 0.171641
-0.846755 -0.454635 0.276247
-0.786785 -0.495124 0.368540
-0.714027 -0.595267 0.368540
-0.694052 -0.664816 0.276248
-0.631108 -0.670495 0.390051
-0.661517 -0.730024 0.171642
-0.601787 -0.743602 0.291391
-0.615544 -0.785945 0.058278
-0.559494 -0.809058 0.179977
-0.557265 -0.828287 -0.058278
-0.504546 -0.861256 0.060598
-0.489875 -0.854729 -0.171642
-0.439509 -0.896232 -0.059992
-0.417804 -0.865521 -0.276248
-0.368674 -0.912969 -0.174835
-0.296779 -0.913400 -0.278608
-0.529752 -0.743600 0.407947
-0.490242 -0.817227 0.302990
-0.411188 -0.809056 0.419945
-0.438640 -0.879288 0.185601
-0.362171 -0.879287 0.309334
-0.279842 -0.861252 0.424185
-0.376774 -0.924237 0.061867
-0.303532 -0.934171 0.187596
-0.223835 -0.924235 0.309334
-0.142900 -0.896229 0.419944
-0.308448 -0.949309 -0.060598
-0.238437 -0.969185 0.061867
-0.161968 -0.969185 0.185600
-0.083746 -0.949307 0.302990
-0.008506 -0.912966 0.407947
-0.238362 -0.955310 -0.174835
-0.171220 -0.983405 -0.059992
-0.098048 -0.993335 0.060598
-0.022916 -0.983404 0.179977
0.049772 -0.955308 0.291391
0.116462 -0.913399 0.390051
-0.170725 -0.945802 -0.276247
-0.106077 -0.979432 -0.171642
-0.036017 -0.997650 -0.058278
0.036017 -0.997650 0.058278
0.106077 -0.979432 0.171642
0.170725 -0.945802 0.276247
0.227763 -0.901278 0.368540
0.345487 -0.863028 0.368541
0.417804 -0.865521 0.276248
0.442658 -0.807412 0.390051
0.489875 -0.854729 0.171642
0.521247 -0.802118 0.291391
0.557265 -0.828287 0.058278
0.596569 -0.782121 0.179977
0.615544 -0.785945 -0.058278
0.663191 -0.745993 0.060598
0.661517 -0.730024 -0.171642
0.716553 -0.694948 -0.059992
0.694052 -0.664816 -0.276248
0.754360 -0.632751 -0.174835
0.776987 -0.564508 -0.278608
0.543506 -0.733608 0.407947
0.625739 -0.718782 0.302990
0.642397 -0.641072 0.419944
0.700708 -0.688884 0.185600
0.724338 -0.616156 0.309333
0.732628 -0.532283 0.424184
0.762574 -0.643935 0.061867
0.794656 -0.577347 0.187595
0.809834 -0.498479 0.309333
0.808209 -0.412851 0.419943
0.807533 -0.586702 -0.060598
0.848071 -0.526258 0.061867
0.871701 -0.453531 0.185600
0.876969 -0.372993 0.302988
0.865657 -0.290206 0.407944
0.834897 -0.521900 -0.174834
0.882365 -0.466725 -0.059992
0.914421 -0.400203 0.060598
0.928193 -0.325678 0.179975
0.923935 -0.247865 0.291389
0.904685 -0.171489 0.390048
0.846755 -0.454635 -0.276247
0.898717 -0.403543 -0.171641
0.937694 -0.342541 -0.058278
0.959953 -0.274032 0.058278
0.964276 -0.201771 0.171641
0.952269 -0.129895 0.276245
0.927551 -0.061890 0.368537
0.296779 0.913400 0.278608
0.368674 0.912969 0.174835
0.439509 0.896232 0.059992
0.504546 0.861256 -0.060598
0.559494 0.809058 -0.179977
0.601787 0.743602 -0.291391
0.631108 0.670495 -0.390051
0.238362 0.955310 0.174835
0.308448 0.949309 0.060598
0.171220 0.983405 0.059992
0.376774 0.924237 -0.061867
0.238437 0.969185 -0.061867
0.098048 0.993335 -0.060598
0.438640 0.879288 -0.185601
0.303532 0.934171 -0.187596
0.161968 0.969185 -0.185600
0.022916 0.983404 -0.179977
0.490242 0.817227 -0.302990
0.362171 0.879287 -0.309334
0.223835 0.924235 -0.309334
0.083746 0.949307 -0.302990
-0.049772 0.955308 -0.291391
0.529752 0.743600 -0.407947
0.411188 0.809056 -0.419944
0.279842 0.861252 -0.424185
0.142900 0.896229 -0.419944
0.008506 0.912966 -0.407947
-0.116462 0.913399 -0.390051
0.557469 0.664813 -0.497244
0.449360 0.730020 -0.514924
0.327407 0.785940 -0.524502
0.197096 0.828282 -0.524503
0.065565 0.854725 -0.514925
-0.060226 0.865518 -0.497244
-0.175114 0.863026 -0.473837
-0.776987 0.564508 0.278608
-0.754360 0.632751 0.174835
-0.716553 0.694948 0.059992
-0.663191 0.745993 -0.060598
-0.596569 0.782121 -0.179977
-0.521247 0.802118 -0.291391
-0.442658 0.807412 -0.390051
-0.834897 0.521900 0.174834
-0.807533 0.586702 0.060598
-0.882365 0.466725 0.059992
-0.762574 0.643935 -0.061867
-0.848071 0.526258 -0.061867
-0.914421 0.400203 -0.060598
-0.700708 0.688884 -0.185600
-0.794656 0.577347 -0.187595
-0.871701 0.453531 -0.185600
-0.928193 0.325678 -0.179975
-0.625739 0.718782 -0.302990
-0.724338 0.616156 -0.309333
-0.809834 0.498479 -0.309333
-0.876969 0.372993 -0.302988
-0.923935 0.247865 -0.291389
-0.543506 0.733608 -0.407947
-0.642397 0.641072 -0.419944
-0.732628 0.532283 -0.424184
-0.808209 0.412851 -0.419943
-0.865657 0.290206 -0.407944
-0.904685 0.171489 -0.390048
-0.460010 0.735622 -0.497244
-0.555434 0.652952 -0.514924
-0.646304 0.554247 -0.524501
-0.726841 0.443397 -0.524501
-0.792635 0.326475 -0.514922
-0.841771 0.210176 -0.497241
-0.874902 0.100141 -0.473833
-0.776987 -0.564508 0.278608
-0.834897 -0.521900 0.174834
-0.882365 -0.466725 0.059992
-0.914421 -0.400203 -0.060598
-0.928193 -0.325678 -0.179975
-0.923935 -0.247865 -0.291389
-0.904685 -0.171489 -0.390048
-0.754360 -0.632751 0.174835
-0.807533 -0.586702 0.060598
-0.716553 -0.694948 0.059992
-0.848071 -0.526258 -0.061867
-0.762574 -0.643935 -0.061867
-0.663191 -0.745993 -0.060598
-0.871701 -0.453531 -0.185600
-0.794656 -0.577347 -0.187595
-0.700708 -0.688884 -0.185600
-0.596569 -0.782121 -0.179977
-0.876969 -0.372993 -0.302988
-0.809834 -0.498479 -0.309333
-0.724338 -0.616156 -0.309333
-0.625739 -0.718782 -0.302990
-0.521247 -0.802118 -0.291391
-0.865657 -0.290206 -0.407944
-0.808209 -0.412851 -0.419943
-0.732628 -0.532283 -0.424184
-0.642397 -0.641072 -0.419944
-0.543506 -0.733608 -0.407947
-0.442658 -0.807412 -0.390051
-0.841771 -0.210176 -0.497241
-0.792635 -0.326475 -0.514922
-0.726841 -0.443397 -0.524501
-0.646304 -0.554247 -0.524501
-0.555434 -0.652952 -0.514924
-0.460010 -0.735622 -0.497244
-0.365597 -0.801135 -0.473837
0.296779 -0.913400 0.278608
0.238362 -0.955310 0.174835
0.171220 -0.983405 0.059992
0.098048 -0.993335 -0.060598
0.022916 -0.983404 -0.179977
-0.049772 -0.955308 -0.291391
-0.116462 -0.913399 -0.390051
0.368674 -0.912969 0.174835
0.308448 -0.949309 0.060598
0.439509 -0.896232 0.059992
0.238437 -0.969185 -0.061867
0.376774 -0.924237 -0.061867
0.504546 -0.861256 -0.060598
0.161968 -0.969185 -0.185600
0.303532 -0.934171 -0.187596
0.438640 -0.879288 -0.185601
0.559494 -0.809058 -0.179977
0.083746 -0.949307 -0.302990
0.223835 -0.924235 -0.309334
0.362171 -0.879287 -0.309334
0.490242 -0.817227 -0.302990
0.601787 -0.743602 -0.291391
0.008506 -0.912966 -0.407947
0.142900 -0.896229 -0.419944
0.279842 -0.861252 -0.424185
0.411188 -0.809056 -0.419945
0.529752 -0.743600 -0.407947
0.631108 -0.670495 -0.390051
-0.060226 -0.865518 -0.497244
0.065565 -0.854725 -0.514924
0.197096 -0.828282 -0.524502
0.327407 -0.785940 -0.524502
0.449360 -0.730020 -0.514924
0.557469 -0.664813 -0.497244
0.648951 -0.595266 -0.473837
0.960406 0.000000 0.278605
0.982212 -0.068508 0.174833
0.988184 -0.141046 0.059992
0.975017 -0.213705 -0.060598
0.942355 -0.282092 -0.179976
0.893173 -0.342541 -0.291390
0.832706 -0.393017 -0.390050
0.982212 0.068508 0.174833
0.998162 0.000000 0.060598
0.988184 0.141046 0.059992
0.995431 -0.072726 -0.061866
0.995431 0.072727 -0.061866
0.975017 0.213705 -0.060598
0.971801 -0.145453 -0.185599
0.982247 0.000000 -0.187594
0.971801 0.145453 -0.185599
0.942355 0.282092 -0.179976
0.928724 -0.213705 -0.302988
0.948169 -0.072727 -0.309332
0.948169 0.072727 -0.309332
0.928724 0.213705 -0.302988
0.893173 0.342541 -0.291390
0.870911 -0.274033 -0.407946
0.896523 -0.141046 -0.419943
0.905576 0.000000 -0.424183
0.896523 0.141046 -0.419943
0.870911 0.274033 -0.407946
0.832706 0.393017 -0.390050
0.804546 -0.324739 -0.497243
0.833152 -0.201771 -0.514923
0.848649 -0.068508 -0.524501
0.848649 0.068508 -0.524501
0.833152 0.201771 -0.514923
0.804546 0.324739 -0.497243
0.766673 0.433233 -0.473836
0.681488 0.495124 -0.538913
0.625758 0.454634 -0.633826
0.596669 0.564506 -0.570367
0.555434 0.403542 -0.727081
0.529750 0.521898 -0.668571
0.471471 0.342540 -0.812639
0.448261 0.466723 -0.762385
0.377176 0.274031 -0.884672
0.354740 0.400200 -0.844985
0.277716 0.201770 -0.939235
0.254126 0.325676 -0.910689
0.178787 0.129895 -0.975276
0.152571 0.247864 -0.956705
0.055721 0.171488 -0.983609
0.493734 0.632748 -0.596537
0.415338 0.586698 -0.695183
0.374111 0.694943 -0.614080
0.323933 0.526255 -0.786208
0.285700 0.643931 -0.709738
0.242391 0.745988 -0.620281
0.223833 0.453528 -0.862677
0.187594 0.577344 -0.794659
0.147365 0.688879 -0.709738
0.105824 0.782117 -0.614081
0.121195 0.372992 -0.919885
0.085498 0.498476 -0.862677
0.047264 0.616152 -0.786208
0.008845 0.718778 -0.695183
-0.027510 0.802114 -0.596537
0.022261 0.290205 -0.956706
-0.014160 0.412849 -0.910689
-0.051753 0.532280 -0.844985
-0.088311 0.641069 -0.762386
-0.121805 0.733605 -0.668571
-0.150898 0.807410 -0.570368
-0.068289 0.210176 -0.975276
-0.106076 0.326474 -0.939235
-0.144066 0.443396 -0.884672
-0.180082 0.554246 -0.812639
-0.212153 0.652950 -0.727081
-0.239013 0.735620 -0.633826
-0.260300 0.801134 -0.538913
-0.352498 0.741907 -0.570368
-0.332654 0.665097 -0.668571
-0.305361 0.570546 -0.762386
-0.270994 0.461045 -0.844985
-0.231209 0.342326 -0.910689
-0.188587 0.221697 -0.956705
-0.145877 0.105986 -0.983609
-0.449210 0.665097 -0.596537
-0.429640 0.576308 -0.695183
-0.545328 0.570547 -0.614080
-0.400400 0.470699 -0.786207
-0.524132 0.470699 -0.709738
-0.634578 0.461046 -0.620280
-0.362165 0.353023 -0.862676
-0.491121 0.356819 -0.794658
-0.609629 0.353024 -0.709737
-0.711140 0.342327 -0.614078
-0.317288 0.230522 -0.919885
-0.447663 0.235349 -0.862676
-0.571394 0.235349 -0.786206
-0.680870 0.230522 -0.695180
-0.771361 0.221698 -0.596534
-0.269125 0.110849 -0.956705
-0.397022 0.114109 -0.910688
-0.522225 0.115261 -0.844983
-0.636987 0.114109 -0.762382
-0.735343 0.110849 -0.668568
-0.814526 0.105986 -0.570364
-0.220994 0.000000 -0.975275
-0.343278 0.000000 -0.939234
-0.466217 0.000000 -0.884670
-0.582772 0.000000 -0.812636
-0.686556 0.000000 -0.727077
-0.773479 0.000000 -0.633821
-0.842364 0.000000 -0.538909
-0.814526 -0.105986 -0.570364
-0.735343 -0.110849 -0.668568
-0.636987 -0.114109 -0.762382
-0.522225 -0.115261 -0.844983
-0.397022 -0.114109 -0.910688
-0.269125 -0.110849 -0.956705
-0.145877 -0.105986 -0.983609
-0.771361 -0.221698 -0.596534
-0.680870 -0.230522 -0.695180
-0.711140 -0.342327 -0.614078
-0.571394 -0.235349 -0.786206
-0.609629 -0.353024 -0.709737
-0.634578 -0.461046 -0.620280
-0.447663 -0.235349 -0.862676
-0.491120 -0.356819 -0.794658
-0.524132 -0.470699 -0.709738
-0.545328 -0.570547 -0.614080
-0.317288 -0.230522 -0.919885
-0.362165 -0.353023 -0.862676
-0.400400 -0.470699 -0.786207
-0.429640 -0.576308 -0.695183
-0.449210 -0.665097 -0.596537
-0.188587 -0.221697 -0.956705
-0.231209 -0.342326 -0.910689
-0.270994 -0.461045 -0.844985
-0.305361 -0.570546 -0.762386
-0.332654 -0.665097 -0.668571
-0.352498 -0.741907 -0.570368
-0.068289 -0.210176 -0.975276
-0.106076 -0.326474 -0.939235
-0.144066 -0.443396 -0.884672
-0.180082 -0.554246 -0.812639
-0.212153 -0.652950 -0.727081
-0.239013 -0.735620 -0.633826
-0.260300 -0.801134 -0.538913
0.721263 0.393016 -0.570367
0.754355 0.274032 -0.596536
0.776539 0.141046 -0.614079
0.784381 0.000000 -0.620280
0.776539 -0.141046 -0.614079
0.754355 -0.274032 -0.596536
0.721263 -0.393016 -0.570367
0.660060 0.342540 -0.668570
0.686333 0.213705 -0.695182
0.582404 0.282091 -0.762385
0.700703 0.072726 -0.709737
0.600602 0.145453 -0.786207
0.490237 0.213704 -0.844984
0.700703 -0.072726 -0.709737
0.607058 0.000000 -0.794658
0.500501 0.072726 -0.862676
0.388268 0.141045 -0.910689
0.686333 -0.213705 -0.695182
0.600602 -0.145453 -0.786207
0.500501 -0.072726 -0.862676
0.392189 0.000000 -0.919885
0.282881 0.068508 -0.956705
0.660060 -0.342540 -0.668570
0.582404 -0.282091 -0.762385
0.490237 -0.213704 -0.844984
0.388268 -0.141045 -0.910689
0.282881 -0.068508 -0.956705
0.180314 -0.000000 -0.983609
0.625758 -0.454634 -0.633826
0.555434 -0.403542 -0.727081
0.471471 -0.342540 -0.812639
0.377176 -0.274031 -0.884672
0.277716 -0.201770 -0.939235
0.178787 -0.129895 -0.975276
-0.150898 -0.807410 -0.570368
-0.121805 -0.733605 -0.668571
-0.088311 -0.641069 -0.762386
-0.051753 -0.532280 -0.844985
-0.014160 -0.412849 -0.910689
0.022261 -0.290205 -0.956706
0.055721 -0.171488 -0.983609
-0.027510 -0.802114 -0.596537
0.008845 -0.718778 -0.695183
0.105824 -0.782117 -0.614080
0.047264 -0.616152 -0.786208
0.147365 -0.688879 -0.709738
0.242391 -0.745988 -0.620281
0.085498 -0.498476 -0.862677
0.187594 -0.577344 -0.794659
0.285700 -0.643931 -0.709738
0.374111 -0.694943 -0.614080
0.121195 -0.372992 -0.919885
0.223833 -0.453528 -0.862677
0.323933 -0.526255 -0.786208
0.415338 -0.586698 -0.695183
0.493734 -0.632748 -0.596537
0.152571 -0.247864 -0.956705
0.254126 -0.325676 -0.910689
0.354740 -0.400200 -0.844985
0.448261 -0.466723 -0.762385
0.529750 -0.521898 -0.668571
0.596669 -0.564506 -0.570367
3 0 1 2
3 3 4 5
3 0 2 6
3 0 6 7
3 0 7 8
3 3 5 9
3 10 11 12
3 13 14 15
3 16 17 18
3 19 20 21
3 3 9 22
3 10 12 23
3 13 15 24
3 16 18 25
3 19 21 26
3 27 28 29
3 30 31 32
3 33 34 35
3 36 37 38
3 39 40 41
3 42 43 44
3 45 46 42
3 47 48 45
3 49 50 47
3 51 52 49
3 53 54 51
3 55 56 53
3 41 57 55
3 42 46 43
3 46 58 43
3 45 48 46
3 48 59 46
3 46 59 58
3 59 60 58
3 47 50 48
3 50 61 48
3 48 61 59
3 61 62 59
3 59 62 60
3 62 63 60
3 49 52 50
3 52 64 50
3 50 64 61
3 64 65 61
3 61 65 62
3 65 66 62
3 62 66 63
3 66 67 63
3 51 54 52
3 54 68 52
3 52 68 64
3 68 69 64
3 64 69 65
3 69 70 65
3 65 70 66
3 70 71 66
3 66 71 67
3 71 72 67
3 53 56 54
3 56 73 54
3 54 73 68
3 73 74 68
3 68 74 69
3 74 75 69
3 69 75 70
3 75 76 70
3 70 76 71
3 76 77 71
3 71 77 72
3 77 78 72
3 55 57 56
3 57 79 56
3 56 79 73
3 79 80 73
3 73 80 74
3 80 81 74
3 74 81 75
3 81 82 75
3 75 82 76
3 82 83 76
3 76 83 77
3 83 84 77
3 77 84 78
3 84 38 78
3 41 40 57
3 40 85 57
3 57 85 79
3 85 86 79
3 79 86 80
3 86 87 80
3 80 87 81
3 87 88 81
3 81 88 82
3 88 89 82
3 82 89 83
3 89 90 83
3 83 90 84
3 90 91 84
3 84 91 38
3 91 36 38
3 43 92 44
3 58 93 43
3 60 94 58
3 63 95 60
3 67 96 63
3 72 97 67
3 78 98 72
3 38 99 78
3 43 93 92
3 93 100 92
3 58 94 93
3 94 101 93
3 93 101 100
3 101 102 100
3 60 95 94
3 95 103 94
3 94 103 101
3 103 104 101
3 101 104 102
3 104 105 102
3 63 96 95
3 96 106 95
3 95 106 103
3 106 107 103
3 103 107 104
3 107 108 104
3 104 108 105
3 108 109 105
3 67 97 96
3 97 110 96
3 96 110 106
3 110 111 106
3 106 111 107
3 111 112 107
3 107 112 108
3 112 113 108
3 108 113 109
3 113 114 109
3 72 98 97
3 98 115 97
3 97 115 110
3 115 116 110
3 110 116 111
3 116 117 111
3 111 117 112
3 117 118 112
3 112 118 113
3 118 119 113
3 113 119 114
3 119 120 114
3 78 99 98
3 99 121 98
3 98 121 115
3 121 122 115
3 115 122 116
3 122 123 116
3 116 123 117
3 123 124 117
3 117 124 118
3 124 125 118
3 118 125 119
3 125 126 119
3 119 126 120
3 126 35 120
3 38 37 99
3 37 127 99
3 99 127 121
3 127 128 121
3 121 128 122
3 128 129 122
3 122 129 123
3 129 130 123
3 123 130 124
3 130 131 124
3 124 131 125
3 131 132 125
3 125 132 126
3 132 133 126
3 126 133 35
3 133 33 35
3 92 134 44
3 100 135 92
3 102 136 100
3 105 137 102
3 109 138 105
3 114 139 109
3 120 140 114
3 35 141 120
3 92 135 134
3 135 142 134
3 100 136 135
3 136 143 135
3 135 143 142
3 143 144 142
3 102 137 136
3 137 145 136
3 136 145 143
3 145 146 143
3 143 146 144
3 146 147 144
3 105 138 137
3 138 148 137
3 137 148 145
3 148 149 145
3 145 149 146
3 149 150 146
3 146 150 147
3 150 151 147
3 109 139 138
3 139 152 138
3 138 152 148
3 152 153 148
3 148 153 149
3 153 154 149
3 149 154 150
3 154 155 150
3 150 155 151
3 155 156 151
3 114 140 139
3 140 157 139
3 139 157 152
3 157 158 152
3 152 158 153
3 158 159 153
3 153 159 154
3 159 160 154
3 154 160 155
3 160 161 155
3 155 161 156
3 161 162 156
3 120 141 140
3 141 163 140
3 140 163 157
3 163 164 157
3 157 164 158
3 164 165 158
3 158 165 159
3 165 166 159
3 159 166 160
3 166 167 160
3 160 167 161
3 167 168 161
3 161 168 162
3 168 32 162
3 35 34 141
3 34 169 141
3 141 169 163
3 169 170 163
3 163 170 164
3 170 171 164
3 164 171 165
3 171 172 165
3 165 172 166
3 172 173 166
3 166 173 167
3 173 174 167
3 167 174 168
3 174 175 168
3 168 175 32
3 175 30 32
3 134 176 44
3 142 177 134
3 144 178 142
3 147 179 144
3 151 180 147
3 156 181 151
3 162 182 156
3 32 183 162
3 134 177 176
3 177 184 176
3 142 178 177
3 178 185 177
3 177 185 184
3 185 186 184
3 144 179 178
3 179 187 178
3 178 187 185
3 187 188 185
3 185 188 186
3 188 189 186
3 147 180 179
3 180 190 179
3 179 190 187
3 190 191 187
3 187 191 188
3 191 192 188
3 188 192 189
3 192 193 189
3 151 181 180
3 181 194 180
3 180 194 190
3 194 195 190
3 190 195 191
3 195 196 191
3 191 196 192
3 196 197 192
3 192 197 193
3 197 198 193
3 156 182 181
3 182 199 181
3 181 199 194
3 199 200 194
3 194 200 195
3 200 201 195
3 195 201 196
3 201 202 196
3 196 202 197
3 202 203 197
3 197 203 198
3 203 204 198
3 162 183 182
3 183 205 182
3 182 205 199
3 205 206 199
3 199 206 200
3 206 207 200
3 200 207 201
3 207 208 201
3 201 208 202
3 208 209 202
3 202 209 203
3 209 210 203
3 203 210 204
3 210 29 204
3 32 31 183
3 31 211 183
3 183 211 205
3 211 212 205
3 205 212 206
3 212 213 206
3 206 213 207
3 213 214 207
3 207 214 208
3 214 215 208
3 208 215 209
3 215 216 209
3 209 216 210
3 216 217 210
3 210 217 29
3 217 27 29
3 176 42 44
3 184 218 176
3 186 219 184
3 189 220 186
3 193 221 189
3 198 222 193
3 204 223 198
3 29 224 204
3 176 218 42
3 218 45 42
3 184 219 218
3 219 225 218
3 218 225 45
3 225 47 45
3 186 220 219
3 220 226 219
3 219 226 225
3 226 227 225
3 225 227 47
3 227 49 47
3 189 221 220
3 221 228 220
3 220 228 226
3 228 229 226
3 226 229 227
3 229 230 227
3 227 230 49
3 230 51 49
3 193 222 221
3 222 231 221
3 221 231 228
3 231 232 228
3 228 232 229
3 232 233 229
3 229 233 230
3 233 234 230
3 230 234 51
3 234 53 51
3 198 223 222
3 223 235 222
3 222 235 231
3 235 236 231
3 231 236 232
3 236 237 232
3 232 237 233
3 237 238 233
3 233 238 234
3 238 239 234
3 234 239 53
3 239 55 53
3 204 224 223
3 224 240 223
3 223 240 235
3 240 241 235
3 235 241 236
3 241 242 236
3 236 242 237
3 242 243 237
3 237 243 238
3 243 244 238
3 238 244 239
3 244 245 239
3 239 245 55
3 245 41 55
3 29 28 224
3 28 246 224
3 224 246 240
3 246 247 240
3 240 247 241
3 247 248 241
3 241 248 242
3 248 249 242
3 242 249 243
3 249 250 243
3 243 250 244
3 250 251 244
3 244 251 245
3 251 252 245
3 245 252 41
3 252 39 41
3 253 40 39
3 254 255 253
3 256 257 254
3 258 259 256
3 260 261 258
3 262 263 260
3 264 265 262
3 26 266 264
3 253 255 40
3 255 85 40
3 254 257 255
3 257 267 255
3 255 267 85
3 267 86 85
3 256 259 257
3 259 268 257
3 257 268 267
3 268 269 267
3 267 269 86
3 269 87 86
3 258 261 259
3 261 270 259
3 259 270 268
3 270 271 268
3 268 271 269
3 271 272 269
3 269 272 87
3 272 88 87
3 260 263 261
3 263 273 261
3 261 273 270
3 273 274 270
3 270 274 271
3 274 275 271
3 271 275 272
3 275 276 272
3 272 276 88
3 276 89 88
3 262 265 263
3 265 277 263
3 263 277 273
3 277 278 273
3 273 278 274
3 278 279 274
3 274 279 275
3 279 280 275
3 275 280 276
3 280 281 276
3 276 281 89
3 281 90 89
3 264 266 265
3 266 282 265
3 265 282 277
3 282 283 277
3 277 283 278
3 283 284 278
3 278 284 279
3 284 285 279
3 279 285 280
3 285 286 280
3 280 286 281
3 286 287 281
3 281 287 90
3 287 91 90
3 26 21 266
3 21 288 266
3 266 288 282
3 288 289 282
3 282 289 283
3 289 290 283
3 283 290 284
3 290 291 284
3 284 291 285
3 291 292 285
3 285 292 286
3 292 293 286
3 286 293 287
3 293 294 287
3 287 294 91
3 294 36 91
3 295 37 36
3 296 297 295
3 298 299 296
3 300 301 298
3 302 303 300
3 304 305 302
3 306 307 304
3 25 308 306
3 295 297 37
3 297 127 37
3 296 299 297
3 299 309 297
3 297 309 127
3 309 128 127
3 298 301 299
3 301 310 299
3 299 310 309
3 310 311 309
3 309 311 128
3 311 129 128
3 300 303 301
3 303 312 301
3 301 312 310
3 312 313 310
3 310 313 311
3 313 314 311
3 311 314 129
3 314 130 129
3 302 305 303
3 305 315 303
3 303 315 312
3 315 316 312
3 312 316 313
3 316 317 313
3 313 317 314
3 317 318 314
3 314 318 130
3 318 131 130
3 304 307 305
3 307 319 305
3 305 319 315
3 319 320 315
3 315 320 316
3 320 321 316
3 316 321 317
3 321 322 317
3 317 322 318
3 322 323 318
3 318 323 131
3 323 132 131
3 306 308 307
3 308 324 307
3 307 324 319
3 324 325 319
3 319 325 320
3 325 326 320
3 320 326 321
3 326 327 321
3 321 327 322
3 327 328 322
3 322 328 323
3 328 329 323
3 323 329 132
3 329 133 132
3 25 18 308
3 18 330 308
3 308 330 324
3 330 331 324
3 324 331 325
3 331 332 325
3 325 332 326
3 332 333 326
3 326 333 327
3 333 334 327
3 327 334 328
3 334 335 328
3 328 335 329
3 335 336 329
3 329 336 133
3 336 33 133
3 337 34 33
3 338 339 337
3 340 341 338
3 342 343 340
3 344 345 342
3 346 347 344
3 348 349 346
3 24 350 348
3 337 339 34
3 339 169 34
3 338 341 339
3 341 351 339
3 339 351 169
3 351 170 169
3 340 343 341
3 343 352 341
3 341 352 351
3 352 353 351
3 351 353 170
3 353 171 170
3 342 345 343
3 345 354 343
3 343 354 352
3 354 355 352
3 352 355 353
3 355 356 353
3 353 356 171
3 356 172 171
3 344 347 345
3 347 357 345
3 345 357 354
3 357 358 354
3 354 358 355
3 358 359 355
3 355 359 356
3 359 360 356
3 356 360 172
3 360 173 172
3 346 349 347
3 349 361 347
3 347 361 357
3 361 362 357
3 357 362 358
3 362 363 358
3 358 363 359
3 363 364 359
3 359 364 360
3 364 365 360
3 360 365 173
3 365 174 173
3 348 350 349
3 350 366 349
3 349 366 361
3 366 367 361
3 361 367 362
3 367 368 362
3 362 368 363
3 368 369 363
3 363 369 364
3 369 370 364
3 364 370 365
3 370 371 365
3 365 371 174
3 371 175 174
3 24 15 350
3 15 372 350
3 350 372 366
3 372 373 366
3 366 373 367
3 373 374 367
3 367 374 368
3 374 375 368
3 368 375 369
3 375 376 369
3 369 376 370
3 376 377 370
3 370 377 371
3 377 378 371
3 371 378 175
3 378 30 175
3 379 31 30
3 380 381 379
3 382 383 380
3 384 385 382
3 386 387 384
3 388 389 386
3 390 391 388
3 23 392 390
3 379 381 31
3 381 211 31
3 380 383 381
3 383 393 381
3 381 393 211
3 393 212 211
3 382 385 383
3 385 394 383
3 383 394 393
3 394 395 393
3 393 395 212
3 395 213 212
3 384 387 385
3 387 396 385
3 385 396 394
3 396 397 394
3 394 397 395
3 397 398 395
3 395 398 213
3 398 214 213
3 386 389 387
3 389 399 387
3 387 399 396
3 399 400 396
3 396 400 397
3 400 401 397
3 397 401 398
3 401 402 398
3 398 402 214
3 402 215 214
3 388 391 389
3 391 403 389
3 389 403 399
3 403 404 399
3 399 404 400
3 404 405 400
3 400 405 401
3 405 406 401
3 401 406 402
3 406 407 402
3 402 407 215
3 407 216 215
3 390 392 391
3 392 408 391
3 391 408 403
3 408 409 403
3 403 409 404
3 409 410 404
3 404 410 405
3 410 411 405
3 405 411 406
3 411 412 406
3 406 412 407
3 412 413 407
3 407 413 216
3 413 217 216
3 23 12 392
3 12 414 392
3 392 414 408
3 414 415 408
3 408 415 409
3 415 416 409
3 409 416 410
3 416 417 410
3 410 417 411
3 417 418 411
3 411 418 412
3 418 419 412
3 412 419 413
3 419 420 413
3 413 420 217
3 420 27 217
3 421 28 27
3 422 423 421
3 424 425 422
3 426 427 424
3 428 429 426
3 430 431 428
3 432 433 430
3 22 434 432
3 421 423 28
3 423 246 28
3 422 425 423
3 425 435 423
3 423 435 246
3 435 247 246
3 424 427 425
3 427 436 425
3 425 436 435
3 436 437 435
3 435 437 247
3 437 248 247
3 426 429 427
3 429 438 427
3 427 438 436
3 438 439 436
3 436 439 437
3 439 440 437
3 437 440 248
3 440 249 248
3 428 431 429
3 431 441 429
3 429 441 438
3 441 442 438
3 438 442 439
3 442 443 439
3 439 443 440
3 443 444 440
3 440 444 249
3 444 250 249
3 430 433 431
3 433 445 431
3 431 445 441
3 445 446 441
3 441 446 442
3 446 447 442
3 442 447 443
3 447 448 443
3 443 448 444
3 448 449 444
3 444 449 250
3 449 251 250
3 432 434 433
3 434 450 433
3 433 450 445
3 450 451 445
3 445 451 446
3 451 452 446
3 446 452 447
3 452 453 447
3 447 453 448
3 453 454 448
3 448 454 449
3 454 455 449
3 449 455 251
3 455 252 251
3 22 9 434
3 9 456 434
3 434 456 450
3 456 457 450
3 450 457 451
3 457 458 451
3 451 458 452
3 458 459 452
3 452 459 453
3 459 460 453
3 453 460 454
3 460 461 454
3 454 461 455
3 461 462 455
3 455 462 252
3 462 39 252
3 294 295 36
3 293 463 294
3 292 464 293
3 291 465 292
3 290 466 291
3 289 467 290
3 288 468 289
3 21 469 288
3 294 463 295
3 463 296 295
3 293 464 463
3 464 470 463
3 463 470 296
3 470 298 296
3 292 465 464
3 465 471 464
3 464 471 470
3 471 472 470
3 470 472 298
3 472 300 298
3 291 466 465
3 466 473 465
3 465 473 471
3 473 474 471
3 471 474 472
3 474 475 472
3 472 475 300
3 475 302 300
3 290 467 466
3 467 476 466
3 466 476 473
3 476 477 473
3 473 477 474
3 477 478 474
3 474 478 475
3 478 479 475
3 475 479 302
3 479 304 302
3 289 468 467
3 468 480 467
3 467 480 476
3 480 481 476
3 476 481 477
3 481 482 477
3 477 482 478
3 482 483 478
3 478 483 479
3 483 484 479
3 479 484 304
3 484 306 304
3 288 469 468
3 469 485 468
3 468 485 480
3 485 486 480
3 480 486 481
3 486 487 481
3 481 487 482
3 487 488 482
3 482 488 483
3 488 489 483
3 483 489 484
3 489 490 484
3 484 490 306
3 490 25 306
3 21 20 469
3 20 491 469
3 469 491 485
3 491 492 485
3 485 492 486
3 492 493 486
3 486 493 487
3 493 494 487
3 487 494 488
3 494 495 488
3 488 495 489
3 495 496 489
3 489 496 490
3 496 497 490
3 490 497 25
3 497 16 25
3 336 337 33
3 335 498 336
3 334 499 335
3 333 500 334
3 332 501 333
3 331 502 332
3 330 503 331
3 18 504 330
3 336 498 337
3 498 338 337
3 335 499 498
3 499 505 498
3 498 505 338
3 505 340 338
3 334 500 499
3 500 506 499
3 499 506 505
3 506 507 505
3 505 507 340
3 507 342 340
3 333 501 500
3 501 508 500
3 500 508 506
3 508 509 506
3 506 509 507
3 509 510 507
3 507 510 342
3 510 344 342
3 332 502 501
3 502 511 501
3 501 511 508
3 511 512 508
3 508 512 509
3 512 513 509
3 509 513 510
3 513 514 510
3 510 514 344
3 514 346 344
3 331 503 502
3 503 515 502
3 502 515 511
3 515 516 511
3 511 516 512
3 516 517 512
3 512 517 513
3 517 518 513
3 513 518 514
3 518 519 514
3 514 519 346
3 519 348 346
3 330 504 503
3 504 520 503
3 503 520 515
3 520 521 515
3 515 521 516
3 521 522 516
3 516 522 517
3 522 523 517
3 517 523 518
3 523 524 518
3 518 524 519
3 524 525 519
3 519 525 348
3 525 24 348
3 18 17 504
3 17 526 504
3 504 526 520
3 526 527 520
3 520 527 521
3 527 528 521
3 521 528 522
3 528 529 522
3 522 529 523
3 529 530 523
3 523 530 524
3 530 531 524
3 524 531 525
3 531 532 525
3 525 532 24
3 532 13 24
3 378 379 30
3 377 533 378
3 376 534 377
3 375 535 376
3 374 536 375
3 373 537 374
3 372 538 373
3 15 539 372
3 378 533 379
3 533 380 379
3 377 534 533
3 534 540 533
3 533 540 380
3 540 382 380
3 376 535 534
3 535 541 534
3 534 541 540
3 541 542 540
3 540 542 382
3 542 384 382
3 375 536 535
3 536 543 535
3 535 543 541
3 543 544 541
3 541 544 542
3 544 545 542
3 542 545 384
3 545 386 384
3 374 537 536
3 537 546 536
3 536 546 543
3 546 547 543
3 543 547 544
3 547 548 544
3 544 548 545
3 548 549 545
3 545 549 386
3 549 388 386
3 373 538 537
3 538 550 537
3 537 550 546
3 550 551 546
3 546 551 547
3 551 552 547
3 547 552 548
3 552 553 548
3 548 553 549
3 553 554 549
3 549 554 388
3 554 390 388
3 372 539 538
3 539 555 538
3 538 555 550
3 555 556 550
3 550 556 551
3 556 557 551
3 551 557 552
3 557 558 552
3 552 558 553
3 558 559 553
3 553 559 554
3 559 560 554
3 554 560 390
3 560 23 390
3 15 14 539
3 14 561 539
3 539 561 555
3 561 562 555
3 555 562 556
3 562 563 556
3 556 563 557
3 563 564 557
3 557 564 558
3 564 565 558
3 558 565 559
3 565 566 559
3 559 566 560
3 566 567 560
3 560 567 23
3 567 10 23
3 420 421 27
3 419 568 420
3 418 569 419
3 417 570 418
3 416 571 417
3 415 572 416
3 414 573 415
3 12 574 414
3 420 568 421
3 568 422 421
3 419 569 568
3 569 575 568
3 568 575 422
3 575 424 422
3 418 570 569
3 570 576 569
3 569 576 575
3 576 577 575
3 575 577 424
3 577 426 424
3 417 571 570
3 571 578 570
3 570 578 576
3 578 579 576
3 576 579 577
3 579 580 577
3 577 580 426
3 580 428 426
3 416 572 571
3 572 581 571
3 571 581 578
3 581 582 578
3 578 582 579
3 582 583 579
3 579 583 580
3 583 584 580
3 580 584 428
3 584 430 428
3 415 573 572
3 573 585 572
3 572 585 581
3 585 586 581
3 581 586 582
3 586 587 582
3 582 587 583
3 587 588 583
3 583 588 584
3 588 589 584
3 584 589 430
3 589 432 430
3 414 574 573
3 574 590 573
3 573 590 585
3 590 591 585
3 585 591 586
3 591 592 586
3 586 592 587
3 592 593 587
3 587 593 588
3 593 594 588
3 588 594 589
3 594 595 589
3 589 595 432
3 595 22 432
3 12 11 574
3 11 596 574
3 574 596 590
3 596 597 590
3 590 597 591
3 597 598 591
3 591 598 592
3 598 599 592
3 592 599 593
3 599 600 593
3 593 600 594
3 600 601 594
3 594 601 595
3 601 602 595
3 595 602 22
3 602 3 22
3 462 253 39
3 461 603 462
3 460 604 461
3 459 605 460
3 458 606 459
3 457 607 458
3 456 608 457
3 9 609 456
3 462 603 253
3 603 254 253
3 461 604 603
3 604 610 603
3 603 610 254
3 610 256 254
3 460 605 604
3 605 611 604
3 604 611 610
3 611 612 610
3 610 612 256
3 612 258 256
3 459 606 605
3 606 613 605
3 605 613 611
3 613 614 611
3 611 614 612
3 614 615 612
3 612 615 258
3 615 260 258
3 458 607 606
3 607 616 606
3 606 616 613
3 616 617 613
3 613 617 614
3 617 618 614
3 614 618 615
3 618 619 615
3 615 619 260
3 619 262 260
3 457 608 607
3 608 620 607
3 607 620 616
3 620 621 616
3 616 621 617
3 621 622 617
3 617 622 618
3 622 623 618
3 618 623 619
3 623 624 619
3 619 624 262
3 624 264 262
3 456 609 608
3 609 625 608
3 608 625 620
3 625 626 620
3 620 626 621
3 626 627 621
3 621 627 622
3 627 628 622
3 622 628 623
3 628 629 623
3 623 629 624
3 629 630 624
3 624 630 264
3 630 26 264
3 9 5 609
3 5 631 609
3 609 631 625
3 631 632 625
3 625 632 626
3 632 633 626
3 626 633 627
3 633 634 627
3 627 634 628
3 634 635 628
3 628 635 629
3 635 636 629
3 629 636 630
3 636 637 630
3 630 637 26
3 637 19 26
3 638 20 19
3 639 640 638
3 641 642 639
3 643 644 641
3 645 646 643
3 647 648 645
3 649 650 647
3 8 651 649
3 638 640 20
3 640 491 20
3 639 642 640
3 642 652 640
3 640 652 491
3 652 492 491
3 641 644 642
3 644 653 642
3 642 653 652
3 653 654 652
3 652 654 492
3 654 493 492
3 643 646 644
3 646 655 644
3 644 655 653
3 655 656 653
3 653 656 654
3 656 657 654
3 654 657 493
3 657 494 493
3 645 648 646
3 648 658 646
3 646 658 655
3 658 659 655
3 655 659 656
3 659 660 656
3 656 660 657
3 660 661 657
3 657 661 494
3 661 495 494
3 647 650 648
3 650 662 648
3 648 662 658
3 662 663 658
3 658 663 659
3 663 664 659
3 659 664 660
3 664 665 660
3 660 665 661
3 665 666 661
3 661 666 495
3 666 496 495
3 649 651 650
3 651 667 650
3 650 667 662
3 667 668 662
3 662 668 663
3 668 669 663
3 663 669 664
3 669 670 664
3 664 670 665
3 670 671 665
3 665 671 666
3 671 672 666
3 666 672 496
3 672 497 496
3 8 7 651
3 7 673 651
3 651 673 667
3 673 674 667
3 667 674 668
3 674 675 668
3 668 675 669
3 675 676 669
3 669 676 670
3 676 677 670
3 670 677 671
3 677 678 671
3 671 678 672
3 678 679 672
3 672 679 497
3 679 16 497
3 679 17 16
3 678 680 679
3 677 681 678
3 676 682 677
3 675 683 676
3 674 684 675
3 673 685 674
3 7 686 673
3 679 680 17
3 680 526 17
3 678 681 680
3 681 687 680
3 680 687 526
3 687 527 526
3 677 682 681
3 682 688 681
3 681 688 687
3 688 689 687
3 687 689 527
3 689 528 527
3 676 683 682
3 683 690 682
3 682 690 688
3 690 691 688
3 688 691 689
3 691 692 689
3 689 692 528
3 692 529 528
3 675 684 683
3 684 693 683
3 683 693 690
3 693 694 690
3 690 694 691
3 694 695 691
3 691 695 692
3 695 696 692
3 692 696 529
3 696 530 529
3 674 685 684
3 685 697 684
3 684 697 693
3 697 698 693
3 693 698 694
3 698 699 694
3 694 699 695
3 699 700 695
3 695 700 696
3 700 701 696
3 696 701 530
3 701 531 530
3 673 686 685
3 686 702 685
3 685 702 697
3 702 703 697
3 697 703 698
3 703 704 698
3 698 704 699
3 704 705 699
3 699 705 700
3 705 706 700
3 700 706 701
3 706 707 701
3 701 707 531
3 707 532 531
3 7 6 686
3 6 708 686
3 686 708 702
3 708 709 702
3 702 709 703
3 709 710 703
3 703 710 704
3 710 711 704
3 704 711 705
3 711 712 705
3 705 712 706
3 712 713 706
3 706 713 707
3 713 714 707
3 707 714 532
3 714 13 532
3 714 14 13
3 713 715 714
3 712 716 713
3 711 717 712
3 710 718 711
3 709 719 710
3 708 720 709
3 6 721 708
3 714 715 14
3 715 561 14
3 713 716 715
3 716 722 715
3 715 722 561
3 722 562 561
3 712 717 716
3 717 723 716
3 716 723 722
3 723 724 722
3 722 724 562
3 724 563 562
3 711 718 717
3 718 725 717
3 717 725 723
3 725 726 723
3 723 726 724
3 726 727 724
3 724 727 563
3 727 564 563
3 710 719 718
3 719 728 718
3 718 728 725
3 728 729 725
3 725 729 726
3 729 730 726
3 726 730 727
3 730 731 727
3 727 731 564
3 731 565 564
3 709 720 719
3 720 732 719
3 719 732 728
3 732 733 728
3 728 733 729
3 733 734 729
3 729 734 730
3 734 735 730
3 730 735 731
3 735 736 731
3 731 736 565
3 736 566 565
3 708 721 720
3 721 737 720
3 720 737 732
3 737 738 732
3 732 738 733
3 738 739 733
3 733 739 734
3 739 740 734
3 734 740 735
3 740 741 735
3 735 741 736
3 741 742 736
3 736 742 566
3 742 567 566
3 6 2 721
3 2 743 721
3 721 743 737
3 743 744 737
3 737 744 738
3 744 745 738
3 738 745 739
3 745 746 739
3 739 746 740
3 746 747 740
3 740 747 741
3 747 748 741
3 741 748 742
3 748 749 742
3 742 749 567
3 749 10 567
3 637 638 19
3 636 750 637
3 635 751 636
3 634 752 635
3 633 753 634
3 632 754 633
3 631 755 632
3 5 756 631
3 637 750 638
3 750 639 638
3 636 751 750
3 751 757 750
3 750 757 639
3 757 641 639
3 635 752 751
3 752 758 751
3 751 758 757
3 758 759 757
3 757 759 641
3 759 643 641
3 634 753 752
3 753 760 752
3 752 760 758
3 760 761 758
3 758 761 759
3 761 762 759
3 759 762 643
3 762 645 643
3 633 754 753
3 754 763 753
3 753 763 760
3 763 764 760
3 760 764 761
3 764 765 761
3 761 765 762
3 765 766 762
3 762 766 645
3 766 647 645
3 632 755 754
3 755 767 754
3 754 767 763
3 767 768 763
3 763 768 764
3 768 769 764
3 764 769 765
3 769 770 765
3 765 770 766
3 770 771 766
3 766 771 647
3 771 649 647
3 631 756 755
3 756 772 755
3 755 772 767
3 772 773 767
3 767 773 768
3 773 774 768
3 768 774 769
3 774 775 769
3 769 775 770
3 775 776 770
3 770 776 771
3 776 777 771
3 771 777 649
3 777 8 649
3 5 4 756
3 4 778 756
3 756 778 772
3 778 779 772
3 772 779 773
3 779 780 773
3 773 780 774
3 780 781 774
3 774 781 775
3 781 782 775
3 775 782 776
3 782 783 776
3 776 783 777
3 783 1 777
3 777 1 8
3 1 0 8
3 749 11 10
3 748 784 749
3 747 785 748
3 746 786 747
3 745 787 746
3 744 788 745
3 743 789 744
3 2 790 743
3 749 784 11
3 784 596 11
3 748 785 784
3 785 791 784
3 784 791 596
3 791 597 596
3 747 786 785
3 786 792 785
3 785 792 791
3 792 793 791
3 791 793 597
3 793 598 597
3 746 787 786
3 787 794 786
3 786 794 792
3 794 795 792
3 792 795 793
3 795 796 793
3 793 796 598
3 796 599 598
3 745 788 787
3 788 797 787
3 787 797 794
3 797 798 794
3 794 798 795
3 798 799 795
3 795 799 796
3 799 800 796
3 796 800 599
3 800 600 599
3 744 789 788
3 789 801 788
3 788 801 797
3 801 802 797
3 797 802 798
3 802 803 798
3 798 803 799
3 803 804 799
3 799 804 800
3 804 805 800
3 800 805 600
3 805 601 600
3 743 790 789
3 790 806 789
3 789 806 801
3 806 807 801
3 801 807 802
3 807 808 802
3 802 808 803
3 808 809 803
3 803 809 804
3 809 810 804
3 804 810 805
3 810 811 805
3 805 811 601
3 811 602 601
3 2 1 790
3 1 783 790
3 790 783 806
3 783 782 806
3 806 782 807
3 782 781 807
3 807 781 808
3 781 780 808
3 808 780 809
3 780 779 809
3 809 779 810
3 779 778 810
3 810 778 811
3 778 4 811
3 811 4 602
3 4 3 602
