ply
format ascii 1.0
comment Created by Blender 2.79 (sub 0) - www.blender.org, source file: ''
element vertex 162
property float x
property float y
property float z
element face 320
property list uchar uint vertex_indices
end_header
0.000000 0.000000 -1.000000
0.221076 -0.160619 -0.961939
-0.084442 -0.259889 -0.961939
0.723607 -0.525725 -0.447220
0.597195 -0.433883 -0.674614
0.818272 -0.273263 -0.505726
-0.273266 0.000000 -0.961939
-0.084442 0.259889 -0.961939
0.221076 0.160619 -0.961939
0.870465 -0.433884 -0.232458
-0.276388 -0.850649 -0.447220
-0.007027 -0.862665 -0.505727
-0.143662 -0.961938 -0.232458
-0.894426 0.000000 -0.447216
-0.822618 -0.259890 -0.505724
-0.959253 -0.160620 -0.232455
-0.276388 0.850649 -0.447220
-0.501372 0.702044 -0.505727
-0.449184 0.862669 -0.232458
0.723607 0.525725 -0.447220
0.512754 0.693774 -0.505727
0.681642 0.693778 -0.232458
0.681642 -0.693778 -0.232458
-0.449184 -0.862669 -0.232458
-0.959253 0.160620 -0.232455
-0.143662 0.961938 -0.232458
0.870465 0.433884 -0.232458
0.276388 -0.850649 0.447220
0.501372 -0.702044 0.505727
0.228104 -0.702043 0.674614
-0.723607 -0.525725 0.447220
-0.512754 -0.693774 0.505727
-0.597195 -0.433883 0.674614
-0.723607 0.525725 0.447220
-0.818272 0.273263 0.505726
-0.597195 0.433883 0.674614
0.276388 0.850649 0.447220
0.007027 0.862665 0.505727
0.228104 0.702043 0.674614
0.894426 0.000000 0.447216
0.822618 0.259890 0.505724
0.738174 0.000000 0.674610
0.525730 0.000000 0.850652
0.361800 0.262863 0.894429
0.273266 0.000000 0.961939
0.638195 0.262864 0.723609
0.688189 0.499997 0.525736
0.501372 0.702044 0.505727
0.447211 0.525727 0.723611
0.162456 0.499995 0.850654
-0.138197 0.425320 0.894430
0.084442 0.259889 0.961939
-0.052790 0.688185 0.723612
-0.262869 0.809012 0.525738
-0.512754 0.693774 0.505727
-0.361804 0.587779 0.723612
-0.425323 0.309011 0.850654
-0.447210 0.000000 0.894429
-0.221076 0.160619 0.961939
-0.670817 0.162457 0.723611
-0.850648 0.000000 0.525736
-0.818272 -0.273263 0.505726
-0.670817 -0.162457 0.723611
-0.425323 -0.309011 0.850654
-0.138197 -0.425320 0.894430
-0.221076 -0.160619 0.961939
-0.361804 -0.587779 0.723612
-0.262869 -0.809012 0.525738
0.007027 -0.862665 0.505727
-0.052790 -0.688185 0.723612
0.162456 -0.499995 0.850654
0.361800 -0.262863 0.894429
0.084442 -0.259889 0.961939
0.447211 -0.525727 0.723611
0.688189 -0.499997 0.525736
0.822618 -0.259890 0.505724
0.638195 -0.262864 0.723609
0.951058 0.309013 0.000000
0.861804 0.425322 0.276396
0.959253 0.160620 0.232455
0.809018 0.587783 0.000000
0.587786 0.809017 0.000000
0.449184 0.862669 0.232458
0.670820 0.688190 0.276396
0.000000 1.000000 0.000000
-0.138199 0.951055 0.276397
0.143662 0.961938 0.232458
-0.309017 0.951056 0.000000
-0.587786 0.809017 0.000000
-0.681642 0.693778 0.232458
-0.447216 0.850649 0.276397
-0.951058 0.309013 0.000000
-0.947213 0.162458 0.276396
-0.870465 0.433884 0.232458
-1.000000 0.000000 0.000000
-0.951058 -0.309013 0.000000
-0.870465 -0.433884 0.232458
-0.947213 -0.162458 0.276396
-0.587786 -0.809017 0.000000
-0.447216 -0.850649 0.276397
-0.681642 -0.693778 0.232458
-0.309017 -0.951056 0.000000
0.000000 -1.000000 0.000000
0.143662 -0.961938 0.232458
-0.138199 -0.951055 0.276397
0.587786 -0.809017 0.000000
0.670820 -0.688190 0.276396
0.449184 -0.862669 0.232458
0.809018 -0.587783 0.000000
0.951058 -0.309013 0.000000
0.959253 -0.160620 0.232455
0.861804 -0.425322 0.276396
0.309017 0.951056 0.000000
0.447216 0.850649 -0.276397
0.262869 0.809012 -0.525738
-0.007027 0.862665 -0.505727
0.138199 0.951055 -0.276397
-0.809018 0.587783 0.000000
-0.670820 0.688190 -0.276396
-0.688189 0.499997 -0.525736
-0.822618 0.259890 -0.505724
-0.861804 0.425322 -0.276396
-0.809018 -0.587783 0.000000
-0.861804 -0.425322 -0.276396
-0.688189 -0.499997 -0.525736
-0.501372 -0.702044 -0.505727
-0.670820 -0.688190 -0.276396
0.309017 -0.951056 0.000000
0.138199 -0.951055 -0.276397
0.262869 -0.809012 -0.525738
0.512754 -0.693774 -0.505727
0.447216 -0.850649 -0.276397
1.000000 0.000000 0.000000
0.947213 -0.162458 -0.276396
0.850648 0.000000 -0.525736
0.818272 0.273263 -0.505726
0.947213 0.162458 -0.276396
0.425323 0.309011 -0.850654
0.361804 0.587779 -0.723612
0.597195 0.433883 -0.674614
0.138197 0.425320 -0.894430
-0.162456 0.499995 -0.850654
-0.228104 0.702043 -0.674614
0.052790 0.688185 -0.723612
-0.447211 0.525727 -0.723612
-0.361800 0.262863 -0.894429
-0.525730 0.000000 -0.850652
-0.738174 0.000000 -0.674610
-0.638195 0.262864 -0.723609
-0.638195 -0.262864 -0.723609
-0.361800 -0.262863 -0.894429
-0.162456 -0.499995 -0.850654
-0.228104 -0.702043 -0.674614
-0.447211 -0.525727 -0.723612
0.670817 0.162457 -0.723611
0.670817 -0.162457 -0.723611
0.425323 -0.309011 -0.850654
0.447210 0.000000 -0.894429
0.052790 -0.688185 -0.723612
0.138197 -0.425320 -0.894430
0.361804 -0.587779 -0.723612
0.000000 0.000000 1.000000
3 0 1 2
3 3 4 5
3 0 2 6
3 0 6 7
3 0 7 8
3 3 5 9
3 10 11 12
3 13 14 15
3 16 17 18
3 19 20 21
3 3 9 22
3 10 12 23
3 13 15 24
3 16 18 25
3 19 21 26
3 27 28 29
3 30 31 32
3 33 34 35
3 36 37 38
3 39 40 41
3 42 43 44
3 42 45 43
3 46 47 48
3 49 50 51
3 49 52 50
3 53 54 55
3 56 57 58
3 56 59 57
3 60 61 62
3 63 64 65
3 63 66 64
3 67 68 69
3 70 71 72
3 70 73 71
3 74 75 76
3 77 78 79
3 77 80 78
3 81 82 83
3 84 85 86
3 84 87 85
3 88 89 90
3 91 92 93
3 91 94 92
3 95 96 97
3 98 99 100
3 98 101 99
3 102 103 104
3 105 106 107
3 105 108 106
3 109 110 111
3 81 112 82
3 81 113 112
3 114 115 116
3 88 117 89
3 88 118 117
3 119 120 121
3 95 122 96
3 95 123 122
3 124 125 126
3 102 127 103
3 102 128 127
3 129 130 131
3 109 132 110
3 109 133 132
3 134 135 136
3 137 138 139
3 137 140 138
3 141 142 143
3 141 144 142
3 141 145 144
3 146 147 148
3 146 149 147
3 146 150 149
3 151 152 153
3 134 154 135
3 134 155 154
3 156 1 157
3 151 158 152
3 151 159 158
3 156 4 160
3 160 130 129
3 160 4 130
3 4 3 130
3 158 160 129
3 158 159 160
3 159 156 160
3 152 11 10
3 152 158 11
3 158 129 11
3 157 8 137
3 157 1 8
3 1 0 8
3 154 157 137
3 154 155 157
3 155 156 157
3 135 139 19
3 135 154 139
3 154 137 139
3 153 125 124
3 153 152 125
3 152 10 125
3 149 153 124
3 149 150 153
3 150 151 153
3 147 14 13
3 147 149 14
3 149 124 14
3 148 120 119
3 148 147 120
3 147 13 120
3 144 148 119
3 144 145 148
3 145 146 148
3 142 17 16
3 142 144 17
3 144 119 17
3 143 115 114
3 143 142 115
3 142 16 115
3 138 143 114
3 138 140 143
3 140 141 143
3 139 20 19
3 139 138 20
3 138 114 20
3 136 26 77
3 136 135 26
3 135 19 26
3 132 136 77
3 132 133 136
3 133 134 136
3 110 79 39
3 110 132 79
3 132 77 79
3 131 22 105
3 131 130 22
3 130 3 22
3 127 131 105
3 127 128 131
3 128 129 131
3 103 107 27
3 103 127 107
3 127 105 107
3 126 23 98
3 126 125 23
3 125 10 23
3 122 126 98
3 122 123 126
3 123 124 126
3 96 100 30
3 96 122 100
3 122 98 100
3 121 24 91
3 121 120 24
3 120 13 24
3 117 121 91
3 117 118 121
3 118 119 121
3 89 93 33
3 89 117 93
3 117 91 93
3 116 25 84
3 116 115 25
3 115 16 25
3 112 116 84
3 112 113 116
3 113 114 116
3 82 86 36
3 82 112 86
3 112 84 86
3 111 75 74
3 111 110 75
3 110 39 75
3 106 111 74
3 106 108 111
3 108 109 111
3 107 28 27
3 107 106 28
3 106 74 28
3 104 68 67
3 104 103 68
3 103 27 68
3 99 104 67
3 99 101 104
3 101 102 104
3 100 31 30
3 100 99 31
3 99 67 31
3 97 61 60
3 97 96 61
3 96 30 61
3 92 97 60
3 92 94 97
3 94 95 97
3 93 34 33
3 93 92 34
3 92 60 34
3 90 54 53
3 90 89 54
3 89 33 54
3 85 90 53
3 85 87 90
3 87 88 90
3 86 37 36
3 86 85 37
3 85 53 37
3 83 47 46
3 83 82 47
3 82 36 47
3 78 83 46
3 78 80 83
3 80 81 83
3 79 40 39
3 79 78 40
3 78 46 40
3 76 41 42
3 76 75 41
3 75 39 41
3 71 76 42
3 71 73 76
3 73 74 76
3 72 44 161
3 72 71 44
3 71 42 44
3 69 29 70
3 69 68 29
3 68 27 29
3 64 69 70
3 64 66 69
3 66 67 69
3 65 72 161
3 65 64 72
3 64 70 72
3 62 32 63
3 62 61 32
3 61 30 32
3 57 62 63
3 57 59 62
3 59 60 62
3 58 65 161
3 58 57 65
3 57 63 65
3 55 35 56
3 55 54 35
3 54 33 35
3 50 55 56
3 50 52 55
3 52 53 55
3 51 58 161
3 51 50 58
3 50 56 58
3 48 38 49
3 48 47 38
3 47 36 38
3 43 48 49
3 43 45 48
3 45 46 48
3 44 51 161
3 44 43 51
3 43 49 51
3 41 45 42
3 41 40 45
3 40 46 45
3 38 52 49
3 38 37 52
3 37 53 52
3 35 59 56
3 35 34 59
3 34 60 59
3 32 66 63
3 32 31 66
3 31 67 66
3 29 73 70
3 29 28 73
3 28 74 73
3 26 80 77
3 26 21 80
3 21 81 80
3 25 87 84
3 25 18 87
3 18 88 87
3 24 94 91
3 24 15 94
3 15 95 94
3 23 101 98
3 23 12 101
3 12 102 101
3 22 108 105
3 22 9 108
3 9 109 108
3 21 113 81
3 21 20 113
3 20 114 113
3 18 118 88
3 18 17 118
3 17 119 118
3 15 123 95
3 15 14 123
3 14 124 123
3 12 128 102
3 12 11 128
3 11 129 128
3 9 133 109
3 9 5 133
3 5 134 133
3 8 140 137
3 8 7 140
3 7 141 140
3 7 145 141
3 7 6 145
3 6 146 145
3 6 150 146
3 6 2 150
3 2 151 150
3 5 155 134
3 5 4 155
3 4 156 155
3 2 159 151
3 2 1 159
3 1 156 159
